<svg width="229" height="247" viewBox="0 0 229 247" fill="none" xmlns="http://www.w3.org/2000/svg">
    <path opacity="0.2" d="M58.2426 205.5L116.5 147.243L174.757 205.5L116.5 263.757L58.2426 205.5Z" stroke="#134E4A"
        stroke-width="6" />
    <path opacity="0.2" d="M148.243 117L217 48.2426L285.757 117L217 185.757L148.243 117Z" stroke="#134E4A"
        stroke-width="6" />
    <path opacity="0.2" d="M4.24264 73.5L41.5 36.2426L78.7574 73.5L41.5 110.757L4.24264 73.5Z" stroke="#134E4A"
        strokeOpacity="0.5" stroke-width="6" />
    <path opacity="0.2" d="M114.243 18.5L151.5 -18.7574L188.757 18.5L151.5 55.7574L114.243 18.5Z" stroke="#134E4A"
        strokeOpacity="0.5" stroke-width="6" />
    <path opacity="0.3" d="M71.2426 205L117 159.243L162.757 205L117 250.757L71.2426 205Z" stroke="#2DD4BF"
        stroke-width="6" />
    <path opacity="0.3" d="M163.243 116.5L217.5 62.2426L271.757 116.5L217.5 170.757L163.243 116.5Z" stroke="#2DD4BF"
        stroke-width="6" />
    <path opacity="0.3" d="M13.2426 73L42 44.2426L70.7574 73L42 101.757L13.2426 73Z" stroke="#2DD4BF"
        strokeOpacity="0.5" stroke-width="6" />
    <path opacity="0.3" d="M123.243 18L152 -10.7574L180.757 18L152 46.7574L123.243 18Z" stroke="#2DD4BF"
        strokeOpacity="0.5" stroke-width="6" />
    <path opacity="0.6" d="M86.2426 205L117 174.243L147.757 205L117 235.757L86.2426 205Z" stroke="#2DD4BF"
        stroke-width="6" />
    <path opacity="0.6" d="M181.243 116.5L217.5 80.2426L253.757 116.5L217.5 152.757L181.243 116.5Z" stroke="#2DD4BF"
        stroke-width="6" />
    <path opacity="0.6" d="M23.2426 73L42 54.2426L60.7574 73L42 91.7574L23.2426 73Z" stroke="#2DD4BF"
        strokeOpacity="0.5" stroke-width="6" />
    <path opacity="0.6" d="M133.243 18L152 -0.757359L170.757 18L152 36.7574L133.243 18Z" stroke="#2DD4BF"
        strokeOpacity="0.5" stroke-width="6" />
    <path d="M101.243 205L117 189.243L132.757 205L117 220.757L101.243 205Z" stroke="#2DD4BF" stroke-width="6" />
    <path d="M198.243 116.5L217.5 97.2426L236.757 116.5L217.5 135.757L198.243 116.5Z" stroke="#2DD4BF"
        stroke-width="6" />
    <path d="M33.2426 73L42 64.2426L50.7574 73L42 81.7574L33.2426 73Z" stroke="#2DD4BF" strokeOpacity="0.5"
        stroke-width="6" />
    <path d="M143.243 18L152 9.24264L160.757 18L152 26.7574L143.243 18Z" stroke="#2DD4BF" strokeOpacity="0.5"
        stroke-width="6" />
</svg>