<svg width="655" height="228" viewBox="0 0 655 228" fill="none" xmlns="http://www.w3.org/2000/svg">
    <g clip-path="url(#clip0_387_1660)">
        <path
            d="M239 239C245.736 222.478 259.015 207.494 271.857 195.157C292.87 174.971 315.235 160.309 344.792 158.219C356.633 157.382 369.8 160.257 381.3 157.095C390.159 154.66 400.777 148.03 407.423 141.838C431.724 119.202 450.252 88.0339 478.898 70.212C490.989 62.6892 505.303 60.2627 517.596 53.3492C528.91 46.9865 540.065 39.4082 550.534 31.7488C557.059 26.9758 564.265 22.0572 569.681 16.0906C575.752 9.401 581.381 0.366586 588.34 -5.26891C601.432 -15.8708 614.74 -25.4322 627.526 -36.5051C642.179 -49.1954 648.43 -68.0654 663.952 -80.1074C670.132 -84.9014 673.842 -90.9009 681.152 -94.24C686.018 -96.4632 691.234 -97.9755 695.025 -101.949C696.582 -103.581 696.929 -104.317 699 -105"
            stroke="#4C1961" stroke-width="23" stroke-linecap="round" />
        <path
            d="M188.5 237.5C195.397 220.209 230.493 168.029 243.643 155.118C265.158 133.993 288.057 118.649 318.322 116.462C330.446 115.586 343.927 118.595 355.703 115.286C364.773 112.737 375.645 105.799 382.451 99.3193C407.332 75.6296 426.303 43.0122 455.634 24.3613C468.015 16.4886 482.671 13.9494 495.258 6.71429C506.843 0.0556755 518.264 -7.87515 528.984 -15.8908C535.665 -20.8858 543.044 -26.0331 548.588 -32.2773C554.805 -39.278 560.569 -48.7326 567.694 -54.6303C581.099 -65.7252 594.725 -75.7313 607.816 -87.3193C622.82 -100.6 629.22 -120.348 645.114 -132.95C651.442 -137.967 655.241 -144.245 662.725 -147.739C667.708 -150.066 673.048 -151.649 676.93 -155.807C678.524 -157.515 678.88 -158.285 681 -159"
            stroke="#4C1961" stroke-width="23" stroke-linecap="round" />
        <path
            d="M166.5 196.5C173.397 179.209 208.493 127.029 221.643 114.118C243.158 92.9926 266.057 77.649 296.322 75.4622C308.446 74.5861 321.927 77.5946 333.703 74.2857C342.773 71.7369 353.645 64.7991 360.451 58.3193C385.332 34.6296 404.303 2.0122 433.634 -16.6387C446.015 -24.5114 460.671 -27.0506 473.258 -34.2857C484.843 -40.9443 496.264 -48.8751 506.984 -56.8908C513.665 -61.8858 521.044 -67.0331 526.588 -73.2773C532.805 -80.278 538.569 -89.7326 545.694 -95.6303C559.099 -106.725 572.725 -116.731 585.816 -128.319C600.82 -141.6 607.22 -161.348 623.114 -173.95C629.442 -178.967 633.241 -185.245 640.725 -188.739C645.708 -191.066 651.048 -192.649 654.93 -196.807C656.524 -198.515 656.88 -199.285 659 -200"
            stroke="#4C1961" stroke-width="23" stroke-linecap="round" />
        <path
            d="M300 275C305.901 260.351 317.535 247.066 328.786 236.127C347.195 218.23 366.788 205.23 392.683 203.378C403.057 202.635 414.592 205.184 424.667 202.381C432.428 200.222 441.73 194.344 447.553 188.854C468.843 168.783 485.075 141.149 510.171 125.348C520.765 118.678 533.304 116.527 544.074 110.397C553.987 104.756 563.759 98.0363 572.931 91.2453C578.647 87.0134 584.961 82.6525 589.705 77.3623C595.024 71.4311 599.956 63.421 606.053 58.4244C617.522 49.0245 629.181 40.5471 640.382 30.7295C653.22 19.4779 658.696 2.74724 672.295 -7.9295C677.709 -12.18 680.96 -17.4994 687.363 -20.4599C691.627 -22.431 696.196 -23.7719 699.517 -27.2946C700.882 -28.7415 701.186 -29.3942 703 -30"
            stroke="#4C1961" stroke-width="23" stroke-linecap="round" />
        <path
            d="M450 265C455.623 248.045 466.708 232.67 477.429 220.01C494.97 199.296 513.639 184.25 538.313 182.106C548.198 181.247 559.189 184.197 568.789 180.952C576.185 178.453 585.048 171.65 590.597 165.296C610.882 142.067 626.349 110.084 650.262 91.796C660.356 84.0764 672.305 81.5865 682.567 74.4921C692.012 67.9629 701.323 60.1863 710.063 52.3266C715.51 47.4286 721.526 42.3814 726.047 36.2586C731.115 29.3941 735.814 20.1233 741.623 14.3403C752.552 3.46111 763.661 -6.35046 774.334 -17.7131C786.567 -30.7354 791.785 -50.0991 804.743 -62.4561C809.902 -67.3756 812.999 -73.5321 819.101 -76.9585C823.163 -79.2398 827.517 -80.7917 830.681 -84.8688C831.981 -86.5435 832.271 -87.2989 834 -88"
            stroke="#4C1961" stroke-width="23" stroke-linecap="round" />
        <path
            d="M490 299C495.623 282.045 506.708 266.67 517.429 254.01C534.97 233.296 553.639 218.25 578.313 216.106C588.198 215.247 599.189 218.197 608.789 214.952C616.185 212.453 625.048 205.65 630.597 199.296C650.882 176.067 666.349 144.084 690.262 125.796C700.356 118.076 712.305 115.586 722.567 108.492C732.012 101.963 741.323 94.1863 750.063 86.3266C755.51 81.4286 761.526 76.3814 766.047 70.2586C771.115 63.3941 775.814 54.1233 781.623 48.3403C792.552 37.4611 803.661 27.6495 814.334 16.2869C826.567 3.26456 831.785 -16.0991 844.743 -28.4561C849.902 -33.3756 852.999 -39.5321 859.101 -42.9585C863.163 -45.2398 867.517 -46.7917 870.681 -50.8688C871.981 -52.5435 872.271 -53.2989 874 -54"
            stroke="#4C1961" stroke-width="23" stroke-linecap="round" />
    </g>
    <defs>
        <clipPath id="clip0_387_1660">
            <rect width="874" height="499" fill="white" transform="translate(0 -200)" />
        </clipPath>
    </defs>
</svg>