<svg width="289" height="247" viewBox="0 0 289 247" fill="none" xmlns="http://www.w3.org/2000/svg">
    <circle cx="225" cy="177" r="84" fill="url(#paint0_linear_221_15133)" />
    <circle cx="256.5" cy="9.49998" r="22.5" transform="rotate(-20.8612 256.5 9.49998)"
        fill="url(#paint1_linear_221_15133)" />
    <circle cx="162" cy="208" r="3" fill="white" />
    <circle cx="200" cy="119" r="2" fill="white" />
    <circle cx="257" cy="221" r="2" fill="white" />
    <circle cx="11" cy="47" r="2" fill="white" />
    <circle cx="90.5" cy="75.5" r="1.5" fill="white" />
    <circle cx="70.5" cy="145.5" r="1.5" fill="white" />
    <circle cx="240.5" cy="43.5" r="1.5" fill="white" />
    <circle cx="180" cy="166" r="1" fill="white" />
    <circle cx="271.5" cy="194.5" r="1.5" fill="white" />
    <circle cx="192.5" cy="238.5" r="0.5" fill="white" />
    <circle cx="152.5" cy="198.5" r="0.5" fill="white" />
    <circle cx="251.5" cy="172.5" r="0.5" fill="white" />
    <circle cx="10" cy="206" r="1" fill="white" />
    <circle cx="132.5" cy="123.5" r="32.5" fill="url(#paint2_linear_221_15133)" />
    <circle cx="212.5" cy="201.5" r="32.5" fill="url(#paint3_linear_221_15133)" />
    <circle cx="292.5" cy="133.5" r="32.5" fill="url(#paint4_linear_221_15133)" />
    <circle cx="88.5" cy="36.5" r="32.5" fill="url(#paint5_linear_221_15133)" />
    <circle cx="20" cy="132" r="20" fill="url(#paint6_linear_221_15133)" />
    <circle cx="58.5" cy="205.5" r="22.5" fill="url(#paint7_linear_221_15133)" />
    <circle cx="202.5" cy="69.5" r="22.5" fill="url(#paint8_linear_221_15133)" />
    <path
        d="M100 36.5C100 43.4036 94.4036 49 87.5 49C80.5964 49 70 39.9036 70 33C70 26.0964 80.5964 24 87.5 24C94.4036 24 100 29.5964 100 36.5Z"
        fill="#4162A7" />
    <path
        d="M144.376 129.455C141.452 135.709 133.842 138.329 127.381 135.307C120.919 132.284 114.854 119.406 117.778 113.153C120.703 106.899 131.509 109.639 137.971 112.661C144.433 115.683 147.301 123.202 144.376 129.455Z"
        fill="#4162A7" />
    <circle cx="111" cy="40" r="4" fill="#3656A2" />
    <circle cx="148" cy="140" r="2" fill="#0C0B26" />
    <circle cx="205" cy="195" r="2" fill="#804118" />
    <circle cx="285" cy="127" r="2" fill="black" />
    <defs>
        <linearGradient id="paint0_linear_221_15133" x1="164.5" y1="93" x2="300.5" y2="261"
            gradientUnits="userSpaceOnUse">
            <stop stop-color="#11173E" />
            <stop offset="1" stop-color="#01051D" />
        </linearGradient>
        <linearGradient id="paint1_linear_221_15133" x1="244.125" y1="-13" x2="266.5" y2="17.5"
            gradientUnits="userSpaceOnUse">
            <stop stop-color="#861A39" />
            <stop offset="1" stop-color="#844268" />
        </linearGradient>
        <linearGradient id="paint2_linear_221_15133" x1="132.5" y1="91" x2="195.789" y2="215.184"
            gradientUnits="userSpaceOnUse">
            <stop stop-color="#008BFF" />
            <stop offset="1" stop-color="#000C16" />
        </linearGradient>
        <linearGradient id="paint3_linear_221_15133" x1="212.5" y1="169" x2="238" y2="213"
            gradientUnits="userSpaceOnUse">
            <stop stop-color="#C27D19" />
            <stop offset="1" stop-color="#6C2E1A" />
        </linearGradient>
        <linearGradient id="paint4_linear_221_15133" x1="292.5" y1="101" x2="318" y2="145"
            gradientUnits="userSpaceOnUse">
            <stop stop-color="#048C80" />
            <stop offset="1" stop-color="#68CCAC" />
        </linearGradient>
        <linearGradient id="paint5_linear_221_15133" x1="88.5" y1="4" x2="151.789" y2="128.184"
            gradientUnits="userSpaceOnUse">
            <stop stop-color="#6890B6" />
            <stop offset="1" stop-color="#000C16" />
        </linearGradient>
        <linearGradient id="paint6_linear_221_15133" x1="9" y1="112" x2="48" y2="158" gradientUnits="userSpaceOnUse">
            <stop stop-color="#FF0000" />
            <stop offset="1" stop-color="#FFD700" />
        </linearGradient>
        <linearGradient id="paint7_linear_221_15133" x1="46.125" y1="183" x2="90" y2="234.75"
            gradientUnits="userSpaceOnUse">
            <stop stop-color="#5A8EB7" />
            <stop offset="1" stop-color="#002952" />
        </linearGradient>
        <linearGradient id="paint8_linear_221_15133" x1="190.125" y1="47" x2="234" y2="98.75"
            gradientUnits="userSpaceOnUse">
            <stop stop-color="#6E5EB8" />
            <stop offset="1" stop-color="#6651BF" />
        </linearGradient>
    </defs>
</svg>