<svg width="198" height="234" viewBox="0 0 198 234" fill="none" xmlns="http://www.w3.org/2000/svg">
    <circle opacity="0.2" cx="58" cy="44" r="41.5" fill="url(#paint0_linear_0_1)" stroke="white" stroke-width="5" />
    <circle opacity="0.2" cx="58" cy="44" r="34" stroke="white" stroke-width="6" />
    <circle opacity="0.2" cx="58" cy="44" r="24" stroke="white" stroke-width="6" />
    <circle cx="58" cy="44" r="15" fill="url(#paint1_linear_0_1)" />
    <circle cx="58" cy="44" r="9.5" stroke="white" />
    <path
        d="M55.748 48V45.283H55.11V44.469H55.748V43.677H55.11V42.863H55.748V40.146H57.475L58.333 42.863H59.334V40.146H60.555V42.863H61.182V43.677H60.555V44.469H61.182V45.283H60.555V48H58.817L57.937 45.283H56.969V48H55.748ZM56.969 44.469H57.695L57.453 43.677H56.947L56.969 44.469ZM59.367 46.284H59.422L59.378 45.283H59.081L59.367 46.284ZM56.925 42.863H57.233L56.914 41.807H56.87L56.925 42.863ZM58.85 44.469H59.356L59.334 43.677H58.597L58.85 44.469Z"
        fill="white" />
    <circle opacity="0.2" cx="110" cy="112" r="26" fill="url(#paint2_linear_0_1)" stroke="white" stroke-width="4" />
    <circle opacity="0.2" cx="110" cy="112" r="20" stroke="white" stroke-width="4" />
    <circle cx="110.5" cy="112.5" r="15.5" fill="url(#paint3_linear_0_1)" />
    <circle cx="111" cy="112" r="8.5" stroke="white" />
    <path
        d="M108.748 116V113.283H108.11V112.469H108.748V111.677H108.11V110.863H108.748V108.146H110.475L111.333 110.863H112.334V108.146H113.555V110.863H114.182V111.677H113.555V112.469H114.182V113.283H113.555V116H111.817L110.937 113.283H109.969V116H108.748ZM109.969 112.469H110.695L110.453 111.677H109.947L109.969 112.469ZM112.367 114.284H112.422L112.378 113.283H112.081L112.367 114.284ZM109.925 110.863H110.233L109.914 109.807H109.87L109.925 110.863ZM111.85 112.469H112.356L112.334 111.677H111.597L111.85 112.469Z"
        fill="white" />
    <circle opacity="0.2" cx="47.5" cy="186.5" r="43.5" fill="url(#paint4_linear_0_1)" stroke="white"
        stroke-width="8" />
    <circle opacity="0.2" cx="47.5" cy="186.5" r="31" stroke="white" stroke-width="9" />
    <circle cx="47.5" cy="186.5" r="22.5" fill="url(#paint5_linear_0_1)" />
    <circle cx="48" cy="186" r="12.5" stroke="white" />
    <path
        d="M44.088 192V188.048H43.16V186.864H44.088V185.712H43.16V184.528H44.088V180.576H46.6L47.848 184.528H49.304V180.576H51.08V184.528H51.992V185.712H51.08V186.864H51.992V188.048H51.08V192H48.552L47.272 188.048H45.864V192H44.088ZM45.864 186.864H46.92L46.568 185.712H45.832L45.864 186.864ZM49.352 189.504H49.432L49.368 188.048H48.936L49.352 189.504ZM45.8 184.528H46.248L45.784 182.992H45.72L45.8 184.528ZM48.6 186.864H49.336L49.304 185.712H48.232L48.6 186.864Z"
        fill="white" />
    <circle opacity="0.2" cx="164" cy="35" r="31.5" fill="url(#paint6_linear_0_1)" stroke="white" stroke-width="5" />
    <circle opacity="0.2" cx="164" cy="35" r="24" stroke="white" stroke-width="6" />
    <circle cx="164.5" cy="35.5" r="18.5" fill="url(#paint7_linear_0_1)" />
    <circle cx="164" cy="35" r="9.5" stroke="white" />
    <path
        d="M161.748 39V36.283H161.11V35.469H161.748V34.677H161.11V33.863H161.748V31.146H163.475L164.333 33.863H165.334V31.146H166.555V33.863H167.182V34.677H166.555V35.469H167.182V36.283H166.555V39H164.817L163.937 36.283H162.969V39H161.748ZM162.969 35.469H163.695L163.453 34.677H162.947L162.969 35.469ZM165.367 37.284H165.422L165.378 36.283H165.081L165.367 37.284ZM162.925 33.863H163.233L162.914 32.807H162.87L162.925 33.863ZM164.85 35.469H165.356L165.334 34.677H164.597L164.85 35.469Z"
        fill="white" />
    <circle opacity="0.2" cx="172" cy="167" r="19.5" fill="url(#paint8_linear_0_1)" stroke="white" stroke-width="3" />
    <circle opacity="0.2" cx="172" cy="167" r="15.5" stroke="white" stroke-width="3" />
    <circle cx="172.5" cy="167.5" r="10.5" fill="url(#paint9_linear_0_1)" />
    <circle cx="172.5" cy="167.5" r="5" stroke="white" />
    <path
        d="M171.34 169V167.765H171.05V167.395H171.34V167.035H171.05V166.665H171.34V165.43H172.125L172.515 166.665H172.97V165.43H173.525V166.665H173.81V167.035H173.525V167.395H173.81V167.765H173.525V169H172.735L172.335 167.765H171.895V169H171.34ZM171.895 167.395H172.225L172.115 167.035H171.885L171.895 167.395ZM172.985 168.22H173.01L172.99 167.765H172.855L172.985 168.22ZM171.875 166.665H172.015L171.87 166.185H171.85L171.875 166.665ZM172.75 167.395H172.98L172.97 167.035H172.635L172.75 167.395Z"
        fill="white" />
    <circle opacity="0.2" cx="119" cy="49" r="6.5" fill="#D9D9D9" stroke="white" stroke-width="3" />
    <circle opacity="0.7" cx="119" cy="49" r="3" fill="white" />
    <circle opacity="0.2" cx="148" cy="82" r="4.5" fill="#D9D9D9" stroke="white" stroke-width="3" />
    <circle opacity="0.7" cx="148" cy="82" r="2" fill="white" />
    <circle opacity="0.2" cx="88" cy="146" r="4.5" fill="#D9D9D9" stroke="white" stroke-width="3" />
    <circle opacity="0.7" cx="88" cy="146" r="2" fill="white" />
    <circle opacity="0.2" cx="130" cy="160" r="4.5" fill="#D9D9D9" stroke="white" stroke-width="3" />
    <circle opacity="0.7" cx="130" cy="160" r="2" fill="white" />
    <circle opacity="0.2" cx="56" cy="106" r="4.5" fill="#D9D9D9" stroke="white" stroke-width="3" />
    <circle opacity="0.7" cx="56" cy="106" r="2" fill="white" />
    <circle opacity="0.2" cx="161.5" cy="130.5" r="4" fill="#D9D9D9" stroke="white" stroke-width="3" />
    <circle opacity="0.7" cx="161.5" cy="130.5" r="2.5" fill="white" />
    <defs>
        <linearGradient id="paint0_linear_0_1" x1="58" y1="0" x2="143.684" y2="168.126" gradientUnits="userSpaceOnUse">
            <stop stop-color="#4C1961" />
            <stop offset="1" stop-color="#000C16" />
        </linearGradient>
        <linearGradient id="paint1_linear_0_1" x1="58" y1="29" x2="87.2105" y2="86.3158" gradientUnits="userSpaceOnUse">
            <stop stop-color="#4C1961" />
            <stop offset="1" stop-color="#000C16" />
        </linearGradient>
        <linearGradient id="paint2_linear_0_1" x1="110" y1="84" x2="164.526" y2="190.989"
            gradientUnits="userSpaceOnUse">
            <stop stop-color="#4C1961" />
            <stop offset="1" stop-color="#000C16" />
        </linearGradient>
        <linearGradient id="paint3_linear_0_1" x1="110.5" y1="97" x2="140.684" y2="156.226"
            gradientUnits="userSpaceOnUse">
            <stop stop-color="#4C1961" />
            <stop offset="1" stop-color="#000C16" />
        </linearGradient>
        <linearGradient id="paint4_linear_0_1" x1="47.5" y1="139" x2="140" y2="320.5" gradientUnits="userSpaceOnUse">
            <stop stop-color="#4C1961" />
            <stop offset="1" stop-color="#000C16" />
        </linearGradient>
        <linearGradient id="paint5_linear_0_1" x1="47.5" y1="164" x2="91.3158" y2="249.974"
            gradientUnits="userSpaceOnUse">
            <stop stop-color="#4C1961" />
            <stop offset="1" stop-color="#000C16" />
        </linearGradient>
        <linearGradient id="paint6_linear_0_1" x1="164" y1="1" x2="230.211" y2="130.916" gradientUnits="userSpaceOnUse">
            <stop stop-color="#4C1961" />
            <stop offset="1" stop-color="#000C16" />
        </linearGradient>
        <linearGradient id="paint7_linear_0_1" x1="164.5" y1="17" x2="200.526" y2="87.6895"
            gradientUnits="userSpaceOnUse">
            <stop stop-color="#4C1961" />
            <stop offset="1" stop-color="#000C16" />
        </linearGradient>
        <linearGradient id="paint8_linear_0_1" x1="172" y1="146" x2="212.895" y2="226.242"
            gradientUnits="userSpaceOnUse">
            <stop stop-color="#4C1961" />
            <stop offset="1" stop-color="#000C16" />
        </linearGradient>
        <linearGradient id="paint9_linear_0_1" x1="172.5" y1="157" x2="192.947" y2="197.121"
            gradientUnits="userSpaceOnUse">
            <stop stop-color="#4C1961" />
            <stop offset="1" stop-color="#000C16" />
        </linearGradient>
    </defs>
</svg>