<svg width="280" height="471" viewBox="0 0 280 471" fill="none" xmlns="http://www.w3.org/2000/svg">
    <g clip-path="url(#clip0_903_3718)">
        <rect width="280" height="471" transform="matrix(-1 0 0 1 280 0)" fill="#0C0024" />
        <path
            d="M-1.99989 471.499C1.50229 459.259 37.8655 387.046 46.0145 377.307C59.348 361.373 74.0633 349.255 94.839 345.506C103.162 344.004 112.709 345.034 120.612 341.909C126.7 339.502 133.712 333.984 137.944 329.08C153.418 311.155 164.148 287.618 183.07 272.776C191.057 266.511 201.009 263.692 209.186 257.844C216.711 252.461 224.03 246.229 230.858 239.991C235.113 236.104 239.839 232.062 243.217 227.413C247.004 222.2 250.297 215.358 254.794 210.826C263.253 202.299 271.945 194.494 280.15 185.657C289.555 175.529 292.533 161.66 302.604 151.925C306.613 148.049 308.78 143.508 313.701 140.578C316.977 138.628 320.555 137.155 322.935 134.045C323.913 132.767 324.102 132.218 325.517 131.575"
            stroke="#161831" stroke-width="23" stroke-linecap="round" />
        <path
            d="M-9.35555 413.656C-5.79728 400.845 15.0629 361.087 23.389 350.907C37.0121 334.251 52.0607 321.596 73.3401 317.721C81.8649 316.168 91.6502 317.271 99.7406 314.018C105.973 311.511 113.144 305.749 117.469 300.625C133.28 281.888 144.217 257.264 163.569 241.766C171.738 235.224 181.929 232.296 190.293 226.191C197.991 220.572 205.475 214.063 212.456 207.547C216.806 203.486 221.639 199.264 225.089 194.403C228.956 188.953 232.314 181.795 236.91 177.059C245.557 168.15 254.444 159.997 262.831 150.762C272.442 140.177 275.46 125.659 285.754 115.488C289.853 111.439 292.062 106.687 297.097 103.631C300.45 101.596 304.113 100.062 306.544 96.8111C307.542 95.4756 307.735 94.9011 309.183 94.2306"
            stroke="#161831" stroke-width="23" stroke-linecap="round" />
        <path
            d="M-27.9267 386.615C-24.3684 373.804 -3.50826 334.046 4.81779 323.866C18.441 307.21 33.4895 294.555 54.7689 290.68C63.2937 289.127 73.0791 290.23 81.1695 286.977C87.4016 284.47 94.5729 278.708 98.8977 273.583C114.709 254.847 125.646 230.223 144.998 214.725C153.167 208.183 163.357 205.255 171.722 199.15C179.42 193.531 186.904 187.022 193.885 180.506C198.235 176.445 203.068 172.223 206.518 167.362C210.385 161.912 213.743 154.754 218.339 150.018C226.986 141.109 235.873 132.956 244.259 123.721C253.871 113.136 256.888 98.6176 267.183 88.4468C271.282 84.3977 273.491 79.6464 278.526 76.5901C281.879 74.5552 285.541 73.0214 287.973 69.7701C288.971 68.4346 289.164 67.8601 290.612 67.1896"
            stroke="#161831" stroke-width="23" stroke-linecap="round" />
        <path
            d="M34 479.499C37.0635 468.648 72.2344 416.504 79.3805 407.875C91.073 393.758 103.982 383.026 122.221 379.721C129.528 378.397 137.912 379.32 144.849 376.556C150.192 374.427 156.343 369.54 160.055 365.197C173.625 349.315 183.024 328.454 199.625 315.31C206.632 309.762 215.368 307.272 222.542 302.094C229.145 297.328 235.566 291.808 241.555 286.283C245.287 282.84 249.434 279.26 252.395 275.14C255.715 270.522 258.6 264.458 262.544 260.443C269.964 252.89 277.588 245.977 284.785 238.148C293.033 229.175 295.636 216.88 304.469 208.257C307.985 204.824 309.884 200.798 314.202 198.205C317.077 196.478 320.217 195.176 322.304 192.42C323.162 191.288 323.327 190.802 324.569 190.232"
            stroke="#161831" stroke-width="23" stroke-linecap="round" />
    </g>
    <defs>
        <clipPath id="clip0_903_3718">
            <rect width="280" height="471" rx="14" fill="white" />
        </clipPath>
    </defs>
</svg>