<svg width="1550" height="735" viewBox="0 0 1550 735" fill="none" xmlns="http://www.w3.org/2000/svg">
    <g clip-path="url(#clip0_167_7137)">
        <rect width="1546" height="735" fill="black" />
        <path opacity="0.5"
            d="M1178.91 5.31614C1016.18 17.6331 715.469 77.3638 814.473 217.751C938.23 393.235 445.717 310.484 445.24 444.65C444.763 578.817 606.252 667.865 148.256 744.344"
            stroke="#4C1961" stroke-width="12.2251" stroke-linecap="round" />
        <path opacity="0.5"
            d="M1048.91 -64.6839C886.179 -52.3669 585.469 7.36376 684.473 147.751C808.23 323.235 315.717 240.484 315.24 374.65C314.763 508.817 476.252 597.865 18.2555 674.344"
            stroke="#4C1961" stroke-width="12.2251" stroke-linecap="round" />
        <path opacity="0.5"
            d="M918.909 -134.684C756.179 -122.367 455.469 -62.6362 554.473 77.751C678.23 253.235 185.717 170.484 185.24 304.65C184.763 438.817 346.252 527.865 -111.744 604.344"
            stroke="#4C1961" stroke-width="12.2251" stroke-linecap="round" />
        <path opacity="0.5"
            d="M788.909 -204.684C626.179 -192.367 325.469 -132.636 424.473 7.75098C548.23 183.235 55.7175 100.484 55.24 234.65C54.7626 368.817 216.252 457.865 -241.744 534.344"
            stroke="#4C1961" stroke-width="12.2251" stroke-linecap="round" />
        <path opacity="0.5"
            d="M658.909 -274.684C496.179 -262.367 195.469 -202.636 294.473 -62.249C418.23 113.235 -74.2825 30.4836 -74.76 164.65C-75.2374 298.817 86.2516 387.865 -371.744 464.344"
            stroke="#4C1961" stroke-width="12.2251" stroke-linecap="round" />
        <path opacity="0.5"
            d="M528.909 -344.684C366.179 -332.367 65.4685 -272.636 164.473 -132.249C288.23 43.235 -204.283 -39.5164 -204.76 94.6504C-205.237 228.817 -43.7484 317.865 -501.744 394.344"
            stroke="#4C1961" stroke-width="12.2251" stroke-linecap="round" />
        <path opacity="0.5"
            d="M1561 19C1398.27 31.3169 865.469 167.364 964.474 307.751C1088.23 483.235 595.718 400.484 595.24 534.651C594.763 668.817 756.252 757.865 298.256 834.344"
            stroke="#4C1961" stroke-width="12.2251" stroke-linecap="round" />
        <path opacity="0.5"
            d="M1711 99C1548.27 111.317 1015.47 247.364 1114.47 387.751C1238.23 563.235 745.717 480.484 745.24 614.651C744.762 748.817 906.251 837.865 448.255 914.344"
            stroke="#4C1961" stroke-width="12.2251" stroke-linecap="round" />
        <path opacity="0.5"
            d="M1861 179C1698.27 191.317 1165.47 327.364 1264.47 467.751C1388.23 643.235 895.717 560.484 895.24 694.651C894.762 828.817 1056.25 917.865 598.255 994.344"
            stroke="#4C1961" stroke-width="12.2251" stroke-linecap="round" />
        <path opacity="0.5"
            d="M2011 259C1848.27 271.317 1315.47 407.364 1414.47 547.751C1538.23 723.235 1045.72 640.484 1045.24 774.651C1044.76 908.817 1206.25 997.865 748.255 1074.34"
            stroke="#4C1961" stroke-width="12.2251" stroke-linecap="round" />
        <path opacity="0.5"
            d="M1372.5 9.50003C1209.77 21.817 786.468 117.364 885.473 257.751C1009.23 433.235 516.717 350.484 516.24 484.651C515.762 618.817 677.251 707.865 219.255 784.344"
            stroke="#4C1961" stroke-width="12.2251" stroke-linecap="round" />
        <path opacity="0.5"
            d="M1242.5 -60.5C1079.77 -48.183 656.468 47.3638 755.473 187.751C879.229 363.235 386.717 280.484 386.24 414.651C385.762 548.817 547.251 637.865 89.2553 714.344"
            stroke="#4C1961" stroke-width="12.2251" stroke-linecap="round" />
        <path opacity="0.5"
            d="M1112.5 -130.5C949.769 -118.183 526.468 -22.6362 625.473 117.751C749.229 293.235 256.717 210.484 256.24 344.651C255.762 478.817 417.251 567.865 -40.7447 644.344"
            stroke="#4C1961" stroke-width="12.2251" stroke-linecap="round" />
        <path opacity="0.5"
            d="M982.5 -200.5C819.769 -188.183 396.468 -92.6362 495.473 47.751C619.229 223.235 126.717 140.484 126.24 274.651C125.762 408.817 287.251 497.865 -170.745 574.344"
            stroke="#4C1961" stroke-width="12.2251" stroke-linecap="round" />
        <path opacity="0.5"
            d="M852.5 -270.5C689.769 -258.183 266.468 -162.636 365.473 -22.249C489.229 153.235 -3.28277 70.4837 -3.76022 204.651C-4.23768 338.817 157.251 427.865 -300.745 504.344"
            stroke="#4C1961" stroke-width="12.2251" stroke-linecap="round" />
        <path opacity="0.5"
            d="M722.5 -340.5C559.769 -328.183 136.468 -232.636 235.473 -92.249C359.229 83.235 -133.283 0.483691 -133.76 134.651C-134.238 268.817 27.2514 357.865 -430.745 434.344"
            stroke="#4C1961" stroke-width="12.2251" stroke-linecap="round" />
        <path opacity="0.5"
            d="M1561 66C1398.27 78.3169 936.469 207.364 1035.47 347.751C1159.23 523.235 666.718 440.484 666.24 574.651C665.763 708.817 827.252 797.865 369.256 874.344"
            stroke="#4C1961" stroke-width="12.2251" stroke-linecap="round" />
        <path opacity="0.5"
            d="M1711 146C1548.27 158.317 1086.47 287.364 1185.47 427.751C1309.23 603.235 816.718 520.484 816.24 654.651C815.763 788.817 977.252 877.865 519.256 954.344"
            stroke="#4C1961" stroke-width="12.2251" stroke-linecap="round" />
        <path opacity="0.5"
            d="M1861 226C1698.27 238.317 1236.47 367.364 1335.47 507.751C1459.23 683.235 966.718 600.484 966.24 734.651C965.763 868.817 1127.25 957.865 669.256 1034.34"
            stroke="#4C1961" stroke-width="12.2251" stroke-linecap="round" />
        <path opacity="0.5"
            d="M2011 306C1848.27 318.317 1386.47 447.364 1485.47 587.751C1609.23 763.235 1116.72 680.484 1116.24 814.651C1115.76 948.817 1277.25 1037.86 819.256 1114.34"
            stroke="#4C1961" stroke-width="12.2251" stroke-linecap="round" />
    </g>
    <defs>
        <clipPath id="clip0_167_7137">
            <rect width="1550" height="735" fill="white" />
        </clipPath>
    </defs>
</svg>