<svg width="1550" height="988" viewBox="0 0 1550 988" fill="none" xmlns="http://www.w3.org/2000/svg">
<rect width="1550" height="988" fill="#000410"/>
<g clip-path="url(#clip0_12166_17705)">
<g filter="url(#filter0_b_12166_17705)">
<path d="M0 114H1550V452.068C1550 452.068 1085.66 529 783 529C480.344 529 0 452.068 0 452.068V114Z" fill="url(#paint0_linear_12166_17705)"/>
</g>
<rect x="-89" y="289.766" width="204" height="111" rx="10" transform="rotate(-23.6289 -89 289.766)" fill="url(#paint1_linear_12166_17705)" fill-opacity="0.5"/>
<rect x="1303" y="246.882" width="106.987" height="111" rx="10" transform="rotate(-23.6289 1303 246.882)" fill="url(#paint2_linear_12166_17705)" fill-opacity="0.5"/>
</g>
<g filter="url(#filter1_b_12166_17705)">
<path d="M1550 659L0 659V451C0 451 483.844 451 786.5 451C1089.16 451 1550 451 1550 451V659Z" fill="url(#paint3_linear_12166_17705)"/>
</g>
<defs>
<filter id="filter0_b_12166_17705" x="-100" y="14" width="1750" height="615" filterUnits="userSpaceOnUse" color-interpolation-filters="sRGB">
<feFlood flood-opacity="0" result="BackgroundImageFix"/>
<feGaussianBlur in="BackgroundImageFix" stdDeviation="50"/>
<feComposite in2="SourceAlpha" operator="in" result="effect1_backgroundBlur_12166_17705"/>
<feBlend mode="normal" in="SourceGraphic" in2="effect1_backgroundBlur_12166_17705" result="shape"/>
</filter>
<filter id="filter1_b_12166_17705" x="-100" y="351" width="1750" height="408" filterUnits="userSpaceOnUse" color-interpolation-filters="sRGB">
<feFlood flood-opacity="0" result="BackgroundImageFix"/>
<feGaussianBlur in="BackgroundImageFix" stdDeviation="50"/>
<feComposite in2="SourceAlpha" operator="in" result="effect1_backgroundBlur_12166_17705"/>
<feBlend mode="normal" in="SourceGraphic" in2="effect1_backgroundBlur_12166_17705" result="shape"/>
</filter>
<linearGradient id="paint0_linear_12166_17705" x1="775" y1="208.717" x2="775" y2="1314.72" gradientUnits="userSpaceOnUse">
<stop stop-color="#000410"/>
<stop offset="1" stop-color="#4C1961"/>
</linearGradient>
<linearGradient id="paint1_linear_12166_17705" x1="-93.1815" y1="371.061" x2="135.045" y2="373.226" gradientUnits="userSpaceOnUse">
<stop stop-color="white" stop-opacity="0.15"/>
<stop offset="1" stop-color="white" stop-opacity="0.1"/>
</linearGradient>
<linearGradient id="paint2_linear_12166_17705" x1="1300.81" y1="328.177" x2="1420.51" y2="328.773" gradientUnits="userSpaceOnUse">
<stop stop-color="white" stop-opacity="0.15"/>
<stop offset="1" stop-color="white" stop-opacity="0.1"/>
</linearGradient>
<linearGradient id="paint3_linear_12166_17705" x1="775" y1="600.724" x2="775" y2="-79.7587" gradientUnits="userSpaceOnUse">
<stop stop-color="#000410"/>
<stop offset="1" stop-color="#4C1961"/>
</linearGradient>
<clipPath id="clip0_12166_17705">
<rect width="1550" height="355" fill="white" transform="translate(0 114)"/>
</clipPath>
</defs>
</svg>
