<svg width="408" height="153" viewBox="0 0 408 153" fill="none" xmlns="http://www.w3.org/2000/svg">
    <path
        d="M99.016 120.096C98.376 120.096 97.784 119.992 97.24 119.784C96.704 119.568 96.236 119.268 95.836 118.884C95.444 118.492 95.136 118.036 94.912 117.516C94.688 116.996 94.576 116.424 94.576 115.8C94.576 115.176 94.688 114.604 94.912 114.084C95.136 113.564 95.448 113.112 95.848 112.728C96.248 112.336 96.716 112.036 97.252 111.828C97.796 111.612 98.388 111.504 99.028 111.504C99.676 111.504 100.272 111.616 100.816 111.84C101.368 112.056 101.836 112.38 102.22 112.812L101.44 113.568C101.12 113.232 100.76 112.984 100.36 112.824C99.96 112.656 99.532 112.572 99.076 112.572C98.604 112.572 98.164 112.652 97.756 112.812C97.356 112.972 97.008 113.196 96.712 113.484C96.416 113.772 96.184 114.116 96.016 114.516C95.856 114.908 95.776 115.336 95.776 115.8C95.776 116.264 95.856 116.696 96.016 117.096C96.184 117.488 96.416 117.828 96.712 118.116C97.008 118.404 97.356 118.628 97.756 118.788C98.164 118.948 98.604 119.028 99.076 119.028C99.532 119.028 99.96 118.948 100.36 118.788C100.76 118.62 101.12 118.364 101.44 118.02L102.22 118.776C101.836 119.208 101.368 119.536 100.816 119.76C100.272 119.984 99.672 120.096 99.016 120.096ZM103.764 120V111.096H104.916V120H103.764ZM107.115 120V113.64H108.267V120H107.115ZM107.691 112.416C107.467 112.416 107.279 112.344 107.127 112.2C106.983 112.056 106.911 111.88 106.911 111.672C106.911 111.456 106.983 111.276 107.127 111.132C107.279 110.988 107.467 110.916 107.691 110.916C107.915 110.916 108.099 110.988 108.243 111.132C108.395 111.268 108.471 111.44 108.471 111.648C108.471 111.864 108.399 112.048 108.255 112.2C108.111 112.344 107.923 112.416 107.691 112.416ZM113.239 120.072C112.591 120.072 112.011 119.932 111.499 119.652C110.995 119.372 110.599 118.988 110.311 118.5C110.023 118.012 109.879 117.452 109.879 116.82C109.879 116.188 110.023 115.628 110.311 115.14C110.599 114.652 110.995 114.272 111.499 114C112.011 113.72 112.591 113.58 113.239 113.58C113.815 113.58 114.327 113.696 114.775 113.928C115.231 114.152 115.583 114.488 115.831 114.936L114.955 115.5C114.747 115.188 114.491 114.96 114.187 114.816C113.891 114.664 113.571 114.588 113.227 114.588C112.811 114.588 112.439 114.68 112.111 114.864C111.783 115.048 111.523 115.308 111.331 115.644C111.139 115.972 111.043 116.364 111.043 116.82C111.043 117.276 111.139 117.672 111.331 118.008C111.523 118.344 111.783 118.604 112.111 118.788C112.439 118.972 112.811 119.064 113.227 119.064C113.571 119.064 113.891 118.992 114.187 118.848C114.491 118.696 114.747 118.464 114.955 118.152L115.831 118.704C115.583 119.144 115.231 119.484 114.775 119.724C114.327 119.956 113.815 120.072 113.239 120.072ZM118.176 118.464L118.2 116.988L121.86 113.64H123.252L120.444 116.4L119.82 116.928L118.176 118.464ZM117.24 120V111.096H118.392V120H117.24ZM122.1 120L119.604 116.904L120.348 115.98L123.516 120H122.1ZM130.042 120.072C129.402 120.072 128.906 119.9 128.554 119.556C128.202 119.212 128.026 118.72 128.026 118.08V112.248H129.178V118.032C129.178 118.376 129.262 118.64 129.43 118.824C129.606 119.008 129.854 119.1 130.174 119.1C130.534 119.1 130.834 119 131.074 118.8L131.434 119.628C131.258 119.78 131.046 119.892 130.798 119.964C130.558 120.036 130.306 120.072 130.042 120.072ZM126.946 114.588V113.64H131.002V114.588H126.946ZM135.339 120.072C134.699 120.072 134.131 119.932 133.635 119.652C133.139 119.372 132.747 118.988 132.459 118.5C132.171 118.004 132.027 117.444 132.027 116.82C132.027 116.188 132.171 115.628 132.459 115.14C132.747 114.652 133.139 114.272 133.635 114C134.131 113.72 134.699 113.58 135.339 113.58C135.971 113.58 136.535 113.72 137.031 114C137.535 114.272 137.927 114.652 138.207 115.14C138.495 115.62 138.639 116.18 138.639 116.82C138.639 117.452 138.495 118.012 138.207 118.5C137.927 118.988 137.535 119.372 137.031 119.652C136.535 119.932 135.971 120.072 135.339 120.072ZM135.339 119.064C135.747 119.064 136.111 118.972 136.431 118.788C136.759 118.604 137.015 118.344 137.199 118.008C137.383 117.664 137.475 117.268 137.475 116.82C137.475 116.364 137.383 115.972 137.199 115.644C137.015 115.308 136.759 115.048 136.431 114.864C136.111 114.68 135.747 114.588 135.339 114.588C134.931 114.588 134.567 114.68 134.247 114.864C133.927 115.048 133.671 115.308 133.479 115.644C133.287 115.972 133.191 116.364 133.191 116.82C133.191 117.268 133.287 117.664 133.479 118.008C133.671 118.344 133.927 118.604 134.247 118.788C134.567 118.972 134.931 119.064 135.339 119.064ZM146.131 120.072C145.587 120.072 145.107 119.972 144.691 119.772C144.283 119.572 143.963 119.268 143.731 118.86C143.507 118.444 143.395 117.924 143.395 117.3V113.64H144.547V117.168C144.547 117.792 144.695 118.26 144.991 118.572C145.295 118.884 145.719 119.04 146.263 119.04C146.663 119.04 147.011 118.96 147.307 118.8C147.603 118.632 147.831 118.392 147.991 118.08C148.151 117.76 148.231 117.376 148.231 116.928V113.64H149.383V120H148.291V118.284L148.471 118.74C148.263 119.164 147.951 119.492 147.535 119.724C147.119 119.956 146.651 120.072 146.131 120.072ZM154.948 120.072C154.42 120.072 153.936 119.952 153.496 119.712C153.064 119.464 152.716 119.1 152.452 118.62C152.196 118.14 152.068 117.54 152.068 116.82C152.068 116.1 152.192 115.5 152.44 115.02C152.696 114.54 153.04 114.18 153.472 113.94C153.912 113.7 154.404 113.58 154.948 113.58C155.572 113.58 156.124 113.716 156.604 113.988C157.084 114.26 157.464 114.64 157.744 115.128C158.024 115.608 158.164 116.172 158.164 116.82C158.164 117.468 158.024 118.036 157.744 118.524C157.464 119.012 157.084 119.392 156.604 119.664C156.124 119.936 155.572 120.072 154.948 120.072ZM151.576 122.328V113.64H152.68V115.356L152.608 116.832L152.728 118.308V122.328H151.576ZM154.852 119.064C155.26 119.064 155.624 118.972 155.944 118.788C156.272 118.604 156.528 118.344 156.712 118.008C156.904 117.664 157 117.268 157 116.82C157 116.364 156.904 115.972 156.712 115.644C156.528 115.308 156.272 115.048 155.944 114.864C155.624 114.68 155.26 114.588 154.852 114.588C154.452 114.588 154.088 114.68 153.76 114.864C153.44 115.048 153.184 115.308 152.992 115.644C152.808 115.972 152.716 116.364 152.716 116.82C152.716 117.268 152.808 117.664 152.992 118.008C153.184 118.344 153.44 118.604 153.76 118.788C154.088 118.972 154.452 119.064 154.852 119.064ZM159.756 120V111.096H160.908V120H159.756ZM165.832 120.072C165.192 120.072 164.624 119.932 164.128 119.652C163.632 119.372 163.24 118.988 162.952 118.5C162.664 118.004 162.52 117.444 162.52 116.82C162.52 116.188 162.664 115.628 162.952 115.14C163.24 114.652 163.632 114.272 164.128 114C164.624 113.72 165.192 113.58 165.832 113.58C166.464 113.58 167.028 113.72 167.524 114C168.028 114.272 168.42 114.652 168.7 115.14C168.988 115.62 169.132 116.18 169.132 116.82C169.132 117.452 168.988 118.012 168.7 118.5C168.42 118.988 168.028 119.372 167.524 119.652C167.028 119.932 166.464 120.072 165.832 120.072ZM165.832 119.064C166.24 119.064 166.604 118.972 166.924 118.788C167.252 118.604 167.508 118.344 167.692 118.008C167.876 117.664 167.968 117.268 167.968 116.82C167.968 116.364 167.876 115.972 167.692 115.644C167.508 115.308 167.252 115.048 166.924 114.864C166.604 114.68 166.24 114.588 165.832 114.588C165.424 114.588 165.06 114.68 164.74 114.864C164.42 115.048 164.164 115.308 163.972 115.644C163.78 115.972 163.684 116.364 163.684 116.82C163.684 117.268 163.78 117.664 163.972 118.008C164.164 118.344 164.42 118.604 164.74 118.788C165.06 118.972 165.424 119.064 165.832 119.064ZM174.614 120V118.656L174.554 118.404V116.112C174.554 115.624 174.41 115.248 174.122 114.984C173.842 114.712 173.418 114.576 172.85 114.576C172.474 114.576 172.106 114.64 171.746 114.768C171.386 114.888 171.082 115.052 170.834 115.26L170.354 114.396C170.682 114.132 171.074 113.932 171.53 113.796C171.994 113.652 172.478 113.58 172.982 113.58C173.854 113.58 174.526 113.792 174.998 114.216C175.47 114.64 175.706 115.288 175.706 116.16V120H174.614ZM172.526 120.072C172.054 120.072 171.638 119.992 171.278 119.832C170.926 119.672 170.654 119.452 170.462 119.172C170.27 118.884 170.174 118.56 170.174 118.2C170.174 117.856 170.254 117.544 170.414 117.264C170.582 116.984 170.85 116.76 171.218 116.592C171.594 116.424 172.098 116.34 172.73 116.34H174.746V117.168H172.778C172.202 117.168 171.814 117.264 171.614 117.456C171.414 117.648 171.314 117.88 171.314 118.152C171.314 118.464 171.438 118.716 171.686 118.908C171.934 119.092 172.278 119.184 172.718 119.184C173.15 119.184 173.526 119.088 173.846 118.896C174.174 118.704 174.41 118.424 174.554 118.056L174.782 118.848C174.63 119.224 174.362 119.524 173.978 119.748C173.594 119.964 173.11 120.072 172.526 120.072ZM180.466 120.072C179.85 120.072 179.298 119.936 178.81 119.664C178.33 119.392 177.95 119.012 177.67 118.524C177.39 118.036 177.25 117.468 177.25 116.82C177.25 116.172 177.39 115.608 177.67 115.128C177.95 114.64 178.33 114.26 178.81 113.988C179.298 113.716 179.85 113.58 180.466 113.58C181.002 113.58 181.486 113.7 181.918 113.94C182.35 114.18 182.694 114.54 182.95 115.02C183.214 115.5 183.346 116.1 183.346 116.82C183.346 117.54 183.218 118.14 182.962 118.62C182.714 119.1 182.374 119.464 181.942 119.712C181.51 119.952 181.018 120.072 180.466 120.072ZM180.562 119.064C180.962 119.064 181.322 118.972 181.642 118.788C181.97 118.604 182.226 118.344 182.41 118.008C182.602 117.664 182.698 117.268 182.698 116.82C182.698 116.364 182.602 115.972 182.41 115.644C182.226 115.308 181.97 115.048 181.642 114.864C181.322 114.68 180.962 114.588 180.562 114.588C180.154 114.588 179.79 114.68 179.47 114.864C179.15 115.048 178.894 115.308 178.702 115.644C178.51 115.972 178.414 116.364 178.414 116.82C178.414 117.268 178.51 117.664 178.702 118.008C178.894 118.344 179.15 118.604 179.47 118.788C179.79 118.972 180.154 119.064 180.562 119.064ZM182.734 120V118.284L182.806 116.808L182.686 115.332V111.096H183.838V120H182.734ZM191.964 120.072C191.324 120.072 190.756 119.932 190.26 119.652C189.764 119.372 189.372 118.988 189.084 118.5C188.796 118.004 188.652 117.444 188.652 116.82C188.652 116.188 188.796 115.628 189.084 115.14C189.372 114.652 189.764 114.272 190.26 114C190.756 113.72 191.324 113.58 191.964 113.58C192.596 113.58 193.16 113.72 193.656 114C194.16 114.272 194.552 114.652 194.832 115.14C195.12 115.62 195.264 116.18 195.264 116.82C195.264 117.452 195.12 118.012 194.832 118.5C194.552 118.988 194.16 119.372 193.656 119.652C193.16 119.932 192.596 120.072 191.964 120.072ZM191.964 119.064C192.372 119.064 192.736 118.972 193.056 118.788C193.384 118.604 193.64 118.344 193.824 118.008C194.008 117.664 194.1 117.268 194.1 116.82C194.1 116.364 194.008 115.972 193.824 115.644C193.64 115.308 193.384 115.048 193.056 114.864C192.736 114.68 192.372 114.588 191.964 114.588C191.556 114.588 191.192 114.68 190.872 114.864C190.552 115.048 190.296 115.308 190.104 115.644C189.912 115.972 189.816 116.364 189.816 116.82C189.816 117.268 189.912 117.664 190.104 118.008C190.296 118.344 190.552 118.604 190.872 118.788C191.192 118.972 191.556 119.064 191.964 119.064ZM196.858 120V113.64H197.962V115.368L197.854 114.936C198.03 114.496 198.326 114.16 198.742 113.928C199.158 113.696 199.67 113.58 200.278 113.58V114.696C200.23 114.688 200.182 114.684 200.134 114.684C200.094 114.684 200.054 114.684 200.014 114.684C199.398 114.684 198.91 114.868 198.55 115.236C198.19 115.604 198.01 116.136 198.01 116.832V120H196.858ZM205.17 120V111.6H208.71C209.606 111.6 210.394 111.776 211.074 112.128C211.762 112.48 212.294 112.972 212.67 113.604C213.054 114.236 213.246 114.968 213.246 115.8C213.246 116.632 213.054 117.364 212.67 117.996C212.294 118.628 211.762 119.12 211.074 119.472C210.394 119.824 209.606 120 208.71 120H205.17ZM206.37 118.956H208.638C209.334 118.956 209.934 118.824 210.438 118.56C210.95 118.296 211.346 117.928 211.626 117.456C211.906 116.976 212.046 116.424 212.046 115.8C212.046 115.168 211.906 114.616 211.626 114.144C211.346 113.672 210.95 113.304 210.438 113.04C209.934 112.776 209.334 112.644 208.638 112.644H206.37V118.956ZM214.916 120V113.64H216.02V115.368L215.912 114.936C216.088 114.496 216.384 114.16 216.8 113.928C217.216 113.696 217.728 113.58 218.336 113.58V114.696C218.288 114.688 218.24 114.684 218.192 114.684C218.152 114.684 218.112 114.684 218.072 114.684C217.456 114.684 216.968 114.868 216.608 115.236C216.248 115.604 216.068 116.136 216.068 116.832V120H214.916ZM223.235 120V118.656L223.175 118.404V116.112C223.175 115.624 223.031 115.248 222.743 114.984C222.463 114.712 222.039 114.576 221.471 114.576C221.095 114.576 220.727 114.64 220.367 114.768C220.007 114.888 219.703 115.052 219.455 115.26L218.975 114.396C219.303 114.132 219.695 113.932 220.151 113.796C220.615 113.652 221.099 113.58 221.603 113.58C222.475 113.58 223.147 113.792 223.619 114.216C224.091 114.64 224.327 115.288 224.327 116.16V120H223.235ZM221.147 120.072C220.675 120.072 220.259 119.992 219.899 119.832C219.547 119.672 219.275 119.452 219.083 119.172C218.891 118.884 218.795 118.56 218.795 118.2C218.795 117.856 218.875 117.544 219.035 117.264C219.203 116.984 219.471 116.76 219.839 116.592C220.215 116.424 220.719 116.34 221.351 116.34H223.367V117.168H221.399C220.823 117.168 220.435 117.264 220.235 117.456C220.035 117.648 219.935 117.88 219.935 118.152C219.935 118.464 220.059 118.716 220.307 118.908C220.555 119.092 220.899 119.184 221.339 119.184C221.771 119.184 222.147 119.088 222.467 118.896C222.795 118.704 223.031 118.424 223.175 118.056L223.403 118.848C223.251 119.224 222.983 119.524 222.599 119.748C222.215 119.964 221.731 120.072 221.147 120.072ZM229.243 122.4C228.659 122.4 228.091 122.316 227.539 122.148C226.995 121.988 226.551 121.756 226.207 121.452L226.759 120.564C227.055 120.82 227.419 121.02 227.851 121.164C228.283 121.316 228.735 121.392 229.207 121.392C229.959 121.392 230.511 121.216 230.863 120.864C231.215 120.512 231.391 119.976 231.391 119.256V117.912L231.511 116.652L231.451 115.38V113.64H232.543V119.136C232.543 120.256 232.263 121.08 231.703 121.608C231.143 122.136 230.323 122.4 229.243 122.4ZM229.099 119.736C228.483 119.736 227.931 119.608 227.443 119.352C226.963 119.088 226.579 118.724 226.291 118.26C226.011 117.796 225.871 117.26 225.871 116.652C225.871 116.036 226.011 115.5 226.291 115.044C226.579 114.58 226.963 114.22 227.443 113.964C227.931 113.708 228.483 113.58 229.099 113.58C229.643 113.58 230.139 113.692 230.587 113.916C231.035 114.132 231.391 114.468 231.655 114.924C231.927 115.38 232.063 115.956 232.063 116.652C232.063 117.34 231.927 117.912 231.655 118.368C231.391 118.824 231.035 119.168 230.587 119.4C230.139 119.624 229.643 119.736 229.099 119.736ZM229.231 118.728C229.655 118.728 230.031 118.64 230.359 118.464C230.687 118.288 230.943 118.044 231.127 117.732C231.319 117.42 231.415 117.06 231.415 116.652C231.415 116.244 231.319 115.884 231.127 115.572C230.943 115.26 230.687 115.02 230.359 114.852C230.031 114.676 229.655 114.588 229.231 114.588C228.807 114.588 228.427 114.676 228.091 114.852C227.763 115.02 227.503 115.26 227.311 115.572C227.127 115.884 227.035 116.244 227.035 116.652C227.035 117.06 227.127 117.42 227.311 117.732C227.503 118.044 227.763 118.288 228.091 118.464C228.427 118.64 228.807 118.728 229.231 118.728ZM241.915 120V118.656L241.855 118.404V116.112C241.855 115.624 241.711 115.248 241.423 114.984C241.143 114.712 240.719 114.576 240.151 114.576C239.775 114.576 239.407 114.64 239.047 114.768C238.687 114.888 238.383 115.052 238.135 115.26L237.655 114.396C237.983 114.132 238.375 113.932 238.831 113.796C239.295 113.652 239.779 113.58 240.283 113.58C241.155 113.58 241.827 113.792 242.299 114.216C242.771 114.64 243.007 115.288 243.007 116.16V120H241.915ZM239.827 120.072C239.355 120.072 238.939 119.992 238.579 119.832C238.227 119.672 237.955 119.452 237.763 119.172C237.571 118.884 237.475 118.56 237.475 118.2C237.475 117.856 237.555 117.544 237.715 117.264C237.883 116.984 238.151 116.76 238.519 116.592C238.895 116.424 239.399 116.34 240.031 116.34H242.047V117.168H240.079C239.503 117.168 239.115 117.264 238.915 117.456C238.715 117.648 238.615 117.88 238.615 118.152C238.615 118.464 238.739 118.716 238.987 118.908C239.235 119.092 239.579 119.184 240.019 119.184C240.451 119.184 240.827 119.088 241.147 118.896C241.475 118.704 241.711 118.424 241.855 118.056L242.083 118.848C241.931 119.224 241.663 119.524 241.279 119.748C240.895 119.964 240.411 120.072 239.827 120.072ZM248.535 113.58C249.055 113.58 249.511 113.68 249.903 113.88C250.303 114.08 250.615 114.384 250.839 114.792C251.063 115.2 251.175 115.716 251.175 116.34V120H250.023V116.472C250.023 115.856 249.871 115.392 249.567 115.08C249.271 114.768 248.851 114.612 248.307 114.612C247.899 114.612 247.543 114.692 247.239 114.852C246.935 115.012 246.699 115.248 246.531 115.56C246.371 115.872 246.291 116.26 246.291 116.724V120H245.139V113.64H246.243V115.356L246.063 114.9C246.271 114.484 246.591 114.16 247.023 113.928C247.455 113.696 247.959 113.58 248.535 113.58ZM255.935 120.072C255.319 120.072 254.767 119.936 254.279 119.664C253.799 119.392 253.419 119.012 253.139 118.524C252.859 118.036 252.719 117.468 252.719 116.82C252.719 116.172 252.859 115.608 253.139 115.128C253.419 114.64 253.799 114.26 254.279 113.988C254.767 113.716 255.319 113.58 255.935 113.58C256.471 113.58 256.955 113.7 257.387 113.94C257.819 114.18 258.163 114.54 258.419 115.02C258.683 115.5 258.815 116.1 258.815 116.82C258.815 117.54 258.687 118.14 258.431 118.62C258.183 119.1 257.843 119.464 257.411 119.712C256.979 119.952 256.487 120.072 255.935 120.072ZM256.031 119.064C256.431 119.064 256.791 118.972 257.111 118.788C257.439 118.604 257.695 118.344 257.879 118.008C258.071 117.664 258.167 117.268 258.167 116.82C258.167 116.364 258.071 115.972 257.879 115.644C257.695 115.308 257.439 115.048 257.111 114.864C256.791 114.68 256.431 114.588 256.031 114.588C255.623 114.588 255.259 114.68 254.939 114.864C254.619 115.048 254.363 115.308 254.171 115.644C253.979 115.972 253.883 116.364 253.883 116.82C253.883 117.268 253.979 117.664 254.171 118.008C254.363 118.344 254.619 118.604 254.939 118.788C255.259 118.972 255.623 119.064 256.031 119.064ZM258.203 120V118.284L258.275 116.808L258.155 115.332V111.096H259.307V120H258.203ZM267.337 120.072C266.721 120.072 266.169 119.936 265.681 119.664C265.201 119.392 264.821 119.012 264.541 118.524C264.261 118.036 264.121 117.468 264.121 116.82C264.121 116.172 264.261 115.608 264.541 115.128C264.821 114.64 265.201 114.26 265.681 113.988C266.169 113.716 266.721 113.58 267.337 113.58C267.873 113.58 268.357 113.7 268.789 113.94C269.221 114.18 269.565 114.54 269.821 115.02C270.085 115.5 270.217 116.1 270.217 116.82C270.217 117.54 270.089 118.14 269.833 118.62C269.585 119.1 269.245 119.464 268.813 119.712C268.381 119.952 267.889 120.072 267.337 120.072ZM267.433 119.064C267.833 119.064 268.193 118.972 268.513 118.788C268.841 118.604 269.097 118.344 269.281 118.008C269.473 117.664 269.569 117.268 269.569 116.82C269.569 116.364 269.473 115.972 269.281 115.644C269.097 115.308 268.841 115.048 268.513 114.864C268.193 114.68 267.833 114.588 267.433 114.588C267.025 114.588 266.661 114.68 266.341 114.864C266.021 115.048 265.765 115.308 265.573 115.644C265.381 115.972 265.285 116.364 265.285 116.82C265.285 117.268 265.381 117.664 265.573 118.008C265.765 118.344 266.021 118.604 266.341 118.788C266.661 118.972 267.025 119.064 267.433 119.064ZM269.605 120V118.284L269.677 116.808L269.557 115.332V111.096H270.709V120H269.605ZM272.889 120V113.64H273.993V115.368L273.885 114.936C274.061 114.496 274.357 114.16 274.773 113.928C275.189 113.696 275.701 113.58 276.309 113.58V114.696C276.261 114.688 276.213 114.684 276.165 114.684C276.125 114.684 276.085 114.684 276.045 114.684C275.429 114.684 274.941 114.868 274.581 115.236C274.221 115.604 274.041 116.136 274.041 116.832V120H272.889ZM280.394 120.072C279.754 120.072 279.186 119.932 278.69 119.652C278.194 119.372 277.802 118.988 277.514 118.5C277.226 118.004 277.082 117.444 277.082 116.82C277.082 116.188 277.226 115.628 277.514 115.14C277.802 114.652 278.194 114.272 278.69 114C279.186 113.72 279.754 113.58 280.394 113.58C281.026 113.58 281.59 113.72 282.086 114C282.59 114.272 282.982 114.652 283.262 115.14C283.55 115.62 283.694 116.18 283.694 116.82C283.694 117.452 283.55 118.012 283.262 118.5C282.982 118.988 282.59 119.372 282.086 119.652C281.59 119.932 281.026 120.072 280.394 120.072ZM280.394 119.064C280.802 119.064 281.166 118.972 281.486 118.788C281.814 118.604 282.07 118.344 282.254 118.008C282.438 117.664 282.53 117.268 282.53 116.82C282.53 116.364 282.438 115.972 282.254 115.644C282.07 115.308 281.814 115.048 281.486 114.864C281.166 114.68 280.802 114.588 280.394 114.588C279.986 114.588 279.622 114.68 279.302 114.864C278.982 115.048 278.726 115.308 278.534 115.644C278.342 115.972 278.246 116.364 278.246 116.82C278.246 117.268 278.342 117.664 278.534 118.008C278.726 118.344 278.982 118.604 279.302 118.788C279.622 118.972 279.986 119.064 280.394 119.064ZM288.659 120.072C288.131 120.072 287.647 119.952 287.207 119.712C286.775 119.464 286.427 119.1 286.163 118.62C285.907 118.14 285.779 117.54 285.779 116.82C285.779 116.1 285.903 115.5 286.151 115.02C286.407 114.54 286.751 114.18 287.183 113.94C287.623 113.7 288.115 113.58 288.659 113.58C289.283 113.58 289.835 113.716 290.315 113.988C290.795 114.26 291.175 114.64 291.455 115.128C291.735 115.608 291.875 116.172 291.875 116.82C291.875 117.468 291.735 118.036 291.455 118.524C291.175 119.012 290.795 119.392 290.315 119.664C289.835 119.936 289.283 120.072 288.659 120.072ZM285.287 122.328V113.64H286.391V115.356L286.319 116.832L286.439 118.308V122.328H285.287ZM288.563 119.064C288.971 119.064 289.335 118.972 289.655 118.788C289.983 118.604 290.239 118.344 290.423 118.008C290.615 117.664 290.711 117.268 290.711 116.82C290.711 116.364 290.615 115.972 290.423 115.644C290.239 115.308 289.983 115.048 289.655 114.864C289.335 114.68 288.971 114.588 288.563 114.588C288.163 114.588 287.799 114.68 287.471 114.864C287.151 115.048 286.895 115.308 286.703 115.644C286.519 115.972 286.427 116.364 286.427 116.82C286.427 117.268 286.519 117.664 286.703 118.008C286.895 118.344 287.151 118.604 287.471 118.788C287.799 118.972 288.163 119.064 288.563 119.064ZM296.858 120V113.076C296.858 112.452 297.038 111.956 297.398 111.588C297.766 111.212 298.286 111.024 298.958 111.024C299.206 111.024 299.442 111.056 299.666 111.12C299.898 111.176 300.094 111.268 300.254 111.396L299.906 112.272C299.786 112.176 299.65 112.104 299.498 112.056C299.346 112 299.186 111.972 299.018 111.972C298.682 111.972 298.426 112.068 298.25 112.26C298.074 112.444 297.986 112.72 297.986 113.088V113.94L298.01 114.468V120H296.858ZM295.778 114.588V113.64H299.834V114.588H295.778ZM300.926 120V113.64H302.078V120H300.926ZM301.502 112.416C301.278 112.416 301.09 112.344 300.938 112.2C300.794 112.056 300.722 111.88 300.722 111.672C300.722 111.456 300.794 111.276 300.938 111.132C301.09 110.988 301.278 110.916 301.502 110.916C301.726 110.916 301.91 110.988 302.054 111.132C302.206 111.268 302.282 111.44 302.282 111.648C302.282 111.864 302.21 112.048 302.066 112.2C301.922 112.344 301.734 112.416 301.502 112.416ZM304.272 120V111.096H305.424V120H304.272ZM310.455 120.072C309.775 120.072 309.175 119.932 308.655 119.652C308.143 119.372 307.743 118.988 307.455 118.5C307.175 118.012 307.035 117.452 307.035 116.82C307.035 116.188 307.171 115.628 307.443 115.14C307.723 114.652 308.103 114.272 308.583 114C309.071 113.72 309.619 113.58 310.227 113.58C310.843 113.58 311.387 113.716 311.859 113.988C312.331 114.26 312.699 114.644 312.963 115.14C313.235 115.628 313.371 116.2 313.371 116.856C313.371 116.904 313.367 116.96 313.359 117.024C313.359 117.088 313.355 117.148 313.347 117.204H307.935V116.376H312.747L312.279 116.664C312.287 116.256 312.203 115.892 312.027 115.572C311.851 115.252 311.607 115.004 311.295 114.828C310.991 114.644 310.635 114.552 310.227 114.552C309.827 114.552 309.471 114.644 309.159 114.828C308.847 115.004 308.603 115.256 308.427 115.584C308.251 115.904 308.163 116.272 308.163 116.688V116.88C308.163 117.304 308.259 117.684 308.451 118.02C308.651 118.348 308.927 118.604 309.279 118.788C309.631 118.972 310.035 119.064 310.491 119.064C310.867 119.064 311.207 119 311.511 118.872C311.823 118.744 312.095 118.552 312.327 118.296L312.963 119.04C312.675 119.376 312.315 119.632 311.883 119.808C311.459 119.984 310.983 120.072 310.455 120.072Z"
        fill="black" />
    <path opacity="0.4"
        d="M227.417 68.854V74.102C227.417 82.4436 222.444 87.4165 214.102 87.4165H194.898C189.054 87.4165 184.838 84.9645 182.867 80.6103L183.119 80.427L194.394 72.8645C196.227 71.627 198.817 71.7645 200.444 73.1853L201.223 73.827C203.01 75.3624 205.898 75.3624 207.685 73.827L217.219 65.6457C219.006 64.1103 221.894 64.1103 223.681 65.6457L227.417 68.854Z"
        fill="#4C1961" />
    <path
        d="M225.056 55.333H218.319C215.408 55.333 213.667 53.5913 213.667 50.6809V43.9434C213.667 43.0268 213.85 42.2476 214.171 41.583C214.148 41.583 214.125 41.583 214.102 41.583H194.898C186.556 41.583 181.583 46.5559 181.583 54.8976V74.1018C181.583 76.5997 182.019 78.7768 182.867 80.6101L183.119 80.4268L194.394 72.8643C196.227 71.6268 198.817 71.7643 200.444 73.1851L201.223 73.8268C203.01 75.3622 205.898 75.3622 207.685 73.8268L217.219 65.6455C219.006 64.1101 221.894 64.1101 223.681 65.6455L227.417 68.8538V54.8976C227.417 54.8747 227.417 54.8518 227.417 54.8288C226.752 55.1497 225.973 55.333 225.056 55.333Z"
        fill="#4C1961" />
    <path
        d="M197.625 60.7872C200.637 60.7872 203.079 58.3453 203.079 55.3331C203.079 52.3208 200.637 49.8789 197.625 49.8789C194.613 49.8789 192.171 52.3208 192.171 55.3331C192.171 58.3453 194.613 60.7872 197.625 60.7872Z"
        fill="white" />
    <path opacity="0.4"
        d="M225.056 39.292H218.319C215.408 39.292 213.667 41.0337 213.667 43.9441V50.6816C213.667 53.592 215.408 55.3337 218.319 55.3337H225.056C227.967 55.3337 229.708 53.592 229.708 50.6816V43.9441C229.708 41.0337 227.967 39.292 225.056 39.292ZM227.21 48.2982C226.981 48.5274 226.638 48.6878 226.271 48.7107H223.04L223.063 51.8962C223.04 52.2857 222.902 52.6066 222.627 52.8816C222.398 53.1107 222.054 53.2712 221.688 53.2712C220.931 53.2712 220.313 52.6524 220.313 51.8962V48.6878L217.104 48.7107C216.348 48.7107 215.729 48.0691 215.729 47.3128C215.729 46.5566 216.348 45.9378 217.104 45.9378L220.313 45.9607V42.7524C220.313 41.9962 220.931 41.3545 221.688 41.3545C222.444 41.3545 223.063 41.9962 223.063 42.7524L223.04 45.9378H226.271C227.027 45.9378 227.646 46.5566 227.646 47.3128C227.623 47.7024 227.463 48.0232 227.21 48.2982Z"
        fill="#4C1961" />
    <rect x="0.5" y="0.5" width="407" height="152" rx="13.5" stroke="#4C1961" stroke-dasharray="10 10" />
</svg>