<svg xmlns="http://www.w3.org/2000/svg" xmlns:xlink="http://www.w3.org/1999/xlink">
  <defs>
    <symbol id="logo-light">
      <g clip-path="url(#clip0_77_554)">
        <path fill-rule="evenodd" clip-rule="evenodd"
          d="M3.28294 0H31.1844C32.9883 0 34.4674 1.473 34.4674 3.26952V21.4893C34.4674 23.2927 32.9883 24.7588 31.1844 24.7588H13.8505L8.9987 29.9488C8.39741 30.3755 7.84449 30.114 7.7892 29.522L7.65097 24.7588H3.28294C1.47905 24.7588 0 23.2927 0 21.4893V3.26952C0 1.473 1.47905 0 3.28294 0ZM4.40259 1.473H30.0648C31.7374 1.473 32.9261 2.83588 32.9261 4.50161V20.1953C32.9261 21.861 31.7374 23.2239 30.0648 23.2239H13.4566L9.19914 27.7737C8.90885 27.9458 8.65313 28.0284 8.68769 27.0165L8.54255 23.2239H4.40259C2.73002 23.2239 1.6311 21.861 1.6311 20.1953V4.50161C1.6311 2.83588 2.73002 1.473 4.40259 1.473Z"
          fill="#4C1961" />
        <path fill-rule="evenodd" clip-rule="evenodd"
          d="M37.2588 14.7092V14.7781V25.0409C37.2588 26.2042 36.4986 27.1541 35.3305 27.1541H32.4346L32.331 29.8041C32.3586 30.5131 32.1789 30.458 31.9785 30.3341L28.9996 27.1541H17.3953H17.3884H17.3746L16.4968 28.2278H16.5176C16.5521 28.2278 16.5798 28.2278 16.6143 28.2278H28.7232L32.1167 31.8553C32.5383 32.1513 32.9184 31.9723 32.9599 31.5593L33.0567 28.2278H36.1115C37.3694 28.2278 38.3992 27.2022 38.3992 25.9495V13.2156C38.3992 13.0642 38.3854 12.9196 38.3577 12.782V12.7682L37.2588 14.7092Z"
          fill="#4C1961" />
        <path fill-rule="evenodd" clip-rule="evenodd"
          d="M6.91235 7.46112H9.28989L14.8052 21.3101H12.4277L6.91235 7.46112Z" fill="#9400D3" />
        <path fill-rule="evenodd" clip-rule="evenodd"
          d="M20.3692 7.46112H17.9986L12.4763 21.3101H14.8539L20.3692 7.46112Z" fill="#9400D3" />
        <path fill-rule="evenodd" clip-rule="evenodd" d="M27.48 7.46112H25.1025L19.5872 21.3101H21.9647L27.48 7.46112Z"
          fill="#4C1961" />
        <path fill-rule="evenodd" clip-rule="evenodd"
          d="M14.0232 7.46112H16.3938L21.9161 21.3101H19.5385L14.0232 7.46112Z" fill="#4C1961" />
      </g>
      <defs>
        <clipPath id="clip0_77_554">
          <rect width="38.4" height="32" fill="white" />
        </clipPath>
      </defs>
    </symbol>



    <symbol id="logo-dark">
      <g clip-path="url(#clip0_70_237)">
        <path fill-rule="evenodd" clip-rule="evenodd"
          d="M4.06093 0H38.5745C40.8059 0 42.6354 1.84125 42.6354 4.0869V26.8617C42.6354 29.1159 40.8059 30.9486 38.5745 30.9486H17.1328L11.1312 37.436C10.3874 37.9694 9.70347 37.6425 9.63508 36.9025L9.46409 30.9486H4.06093C1.82955 30.9486 0 29.1159 0 26.8617V4.0869C0 1.84125 1.82955 0 4.06093 0ZM5.44591 1.84125H37.1895C39.2585 1.84125 40.7289 3.54484 40.7289 5.62701V25.2441C40.7289 27.3263 39.2585 29.0299 37.1895 29.0299H16.6455L11.3791 34.7171C11.0201 34.9322 10.7037 35.0355 10.7465 33.7707L10.567 29.0299H5.44591C3.37698 29.0299 2.01764 27.3263 2.01764 25.2441V5.62701C2.01764 3.54484 3.37698 1.84125 5.44591 1.84125Z"
          fill="#ECD6F5" />
        <path fill-rule="evenodd" clip-rule="evenodd"
          d="M46.0883 18.3866V18.4726V31.3012C46.0883 32.7553 45.1479 33.9426 43.703 33.9426H40.1209L39.9926 37.2552C40.0268 38.1414 39.8045 38.0725 39.5566 37.9177L35.8718 33.9426H21.5175H21.509H21.4919L20.4061 35.2848H20.4318C20.4745 35.2848 20.5087 35.2848 20.5515 35.2848H35.5299L39.7276 39.8191C40.2491 40.1891 40.7193 39.9654 40.7706 39.4492L40.8903 35.2848H44.6691C46.2251 35.2848 47.4989 34.0028 47.4989 32.4369V16.5195C47.4989 16.3302 47.4818 16.1496 47.4476 15.9775V15.9603L46.0883 18.3866Z"
          fill="#ECD6F5" />
        <path fill-rule="evenodd" clip-rule="evenodd"
          d="M8.55054 9.32642H11.4915L18.3139 26.6377H15.3729L8.55054 9.32642Z" fill="#9400D3" />
        <path fill-rule="evenodd" clip-rule="evenodd"
          d="M25.1964 9.32642H22.2639L15.433 26.6377H18.374L25.1964 9.32642Z" fill="#9400D3" />
        <path fill-rule="evenodd" clip-rule="evenodd"
          d="M33.9922 9.32642H31.0512L24.2289 26.6377H27.1698L33.9922 9.32642Z" fill="#ECD6F5" />
        <path fill-rule="evenodd" clip-rule="evenodd"
          d="M17.3464 9.32642H20.2788L27.1097 26.6377H24.1687L17.3464 9.32642Z" fill="#ECD6F5" />
      </g>
      <defs>
        <clipPath id="clip0_70_237">
          <rect width="47.5" height="40" fill="white" />
        </clipPath>
      </defs>
    </symbol>

    <symbol id="hamburger">
      <path d=" M1.65991 13.3334H24.9999M1.65991 1.66669H24.9999H1.65991Z" stroke="#2B0E44" stroke-width="2"
        stroke-linecap="round" stroke-linejoin="round" />
    </symbol>

    <symbol id="plus">
      <path d=" M15.8125 8C15.8125 8.24864 15.7137 8.4871 15.5379 8.66291C15.3621 8.83873 15.1236 8.9375 14.875
      8.9375H8.9375V14.875C8.9375 15.1236 8.83873 15.3621 8.66291 15.5379C8.4871 15.7137 8.24864 15.8125 8
      15.8125C7.75136 15.8125 7.5129 15.7137 7.33709 15.5379C7.16127 15.3621 7.0625 15.1236 7.0625
      14.875V8.9375H1.125C0.87636 8.9375 0.637903 8.83873 0.462087 8.66291C0.286272 8.4871 0.1875 8.24864 0.1875
      8C0.1875 7.75136 0.286272 7.5129 0.462087 7.33709C0.637903 7.16127 0.87636 7.0625 1.125 7.0625H7.0625V1.125C7.0625
      0.87636 7.16127 0.637903 7.33709 0.462087C7.5129 0.286272 7.75136 0.1875 8 0.1875C8.24864 0.1875 8.4871 0.286272
      8.66291 0.462087C8.83873 0.637903 8.9375 0.87636 8.9375 1.125V7.0625H14.875C15.1236 7.0625 15.3621 7.16127 15.5379
      7.33709C15.7137 7.5129 15.8125 7.75136 15.8125 8Z" fill="white" />
    </symbol>

    <symbol id="voice">
      <path
        d="M7.50002 12V6C7.50002 4.80653 7.97413 3.66193 8.81804 2.81802C9.66195 1.97411 10.8065 1.5 12 1.5C13.1935 1.5 14.3381 1.97411 15.182 2.81802C16.0259 3.66193 16.5 4.80653 16.5 6V12C16.5 13.1935 16.0259 14.3381 15.182 15.182C14.3381 16.0259 13.1935 16.5 12 16.5C10.8065 16.5 9.66195 16.0259 8.81804 15.182C7.97413 14.3381 7.50002 13.1935 7.50002 12ZM18.7875 12.0094C18.5913 11.9882 18.3947 12.0453 18.2403 12.1681C18.0858 12.2909 17.9861 12.4697 17.9625 12.6656C17.7978 14.1317 17.0988 15.4858 15.9989 16.469C14.899 17.4523 13.4753 17.9959 12 17.9959C10.5247 17.9959 9.10108 17.4523 8.00118 16.469C6.90128 15.4858 6.20221 14.1317 6.03752 12.6656C6.01399 12.4697 5.91419 12.2909 5.75976 12.1681C5.60533 12.0453 5.40871 11.9882 5.21252 12.0094C5.11419 12.0187 5.01871 12.0476 4.9317 12.0943C4.8447 12.1411 4.76793 12.2048 4.7059 12.2816C4.64388 12.3585 4.59786 12.447 4.57055 12.5419C4.54325 12.6369 4.5352 12.7363 4.54689 12.8344C4.73871 14.536 5.50922 16.1202 6.72945 17.3216C7.94968 18.5231 9.54558 19.269 11.25 19.4344V21.75C11.25 21.9489 11.329 22.1397 11.4697 22.2803C11.6103 22.421 11.8011 22.5 12 22.5C12.1989 22.5 12.3897 22.421 12.5303 22.2803C12.671 22.1397 12.75 21.9489 12.75 21.75V19.4344C14.4545 19.269 16.0504 18.5231 17.2706 17.3216C18.4908 16.1202 19.2613 14.536 19.4531 12.8344C19.4648 12.7363 19.4568 12.6369 19.4295 12.5419C19.4022 12.447 19.3562 12.3585 19.2941 12.2816C19.2321 12.2048 19.1553 12.1411 19.0683 12.0943C18.9813 12.0476 18.8859 12.0187 18.7875 12.0094Z"
        fill="#CA3214" />
    </symbol>

    <symbol id="wallet">
      <path
        d="M20.35 6.75H5.34998C5.15106 6.75 4.9603 6.67098 4.81965 6.53033C4.67899 6.38968 4.59998 6.19891 4.59998 6C4.59998 5.80109 4.67899 5.61032 4.81965 5.46967C4.9603 5.32902 5.15106 5.25 5.34998 5.25H18.1C18.2989 5.25 18.4897 5.17098 18.6303 5.03033C18.771 4.88968 18.85 4.69891 18.85 4.5C18.85 4.30109 18.771 4.11032 18.6303 3.96967C18.4897 3.82902 18.2989 3.75 18.1 3.75H5.34998C4.754 3.75247 4.18314 3.99031 3.76171 4.41174C3.34029 4.83316 3.10244 5.40402 3.09998 6V18C3.10244 18.596 3.34029 19.1668 3.76171 19.5883C4.18314 20.0097 4.754 20.2475 5.34998 20.25H20.35C20.7478 20.25 21.1293 20.092 21.4106 19.8107C21.6919 19.5294 21.85 19.1478 21.85 18.75V8.25C21.85 7.85218 21.6919 7.47064 21.4106 7.18934C21.1293 6.90804 20.7478 6.75 20.35 6.75ZM16.975 14.625C16.7525 14.625 16.535 14.559 16.35 14.4354C16.165 14.3118 16.0208 14.1361 15.9356 13.9305C15.8505 13.725 15.8282 13.4988 15.8716 13.2805C15.915 13.0623 16.0221 12.8618 16.1795 12.7045C16.3368 12.5472 16.5373 12.44 16.7555 12.3966C16.9737 12.3532 17.1999 12.3755 17.4055 12.4606C17.6111 12.5458 17.7868 12.69 17.9104 12.875C18.034 13.06 18.1 13.2775 18.1 13.5C18.1 13.7984 17.9814 14.0845 17.7705 14.2955C17.5595 14.5065 17.2733 14.625 16.975 14.625Z"
        fill="#3451B2" />
    </symbol>

    <symbol id="chat">
      <path
        d="M21.9094 17.7937C22.4855 16.7185 22.7906 15.519 22.7983 14.2992C22.806 13.0794 22.516 11.8761 21.9536 10.7937C21.3911 9.71125 20.5731 8.78235 19.5705 8.08751C18.5679 7.39268 17.411 6.95288 16.2 6.80624C15.8013 5.87627 15.2185 5.0366 14.4868 4.33777C13.755 3.63895 12.8894 3.09541 11.9421 2.73989C10.9948 2.38437 9.98531 2.22421 8.97446 2.26906C7.96362 2.31391 6.9723 2.56283 6.06018 3.00085C5.14806 3.43887 4.33401 4.05692 3.66702 4.81781C3.00003 5.57869 2.49391 6.46667 2.1791 7.4283C1.8643 8.38992 1.74733 9.4053 1.83525 10.4133C1.92316 11.4213 2.21413 12.4011 2.69064 13.2937L2.10939 15.3187C2.04203 15.544 2.03686 15.7833 2.09443 16.0112C2.152 16.2392 2.27018 16.4473 2.43643 16.6136C2.60268 16.7798 2.81081 16.898 3.03877 16.9556C3.26673 17.0131 3.50601 17.008 3.73127 16.9406L5.75627 16.3594C6.57869 16.7977 7.47495 17.0806 8.40002 17.1937C8.80863 18.1514 9.41216 19.0134 10.1722 19.725C10.9322 20.4367 11.832 20.9822 12.8144 21.3271C13.7969 21.6719 14.8403 21.8084 15.8783 21.7278C16.9164 21.6473 17.9263 21.3515 18.8438 20.8594L20.8688 21.4406C21.094 21.508 21.3333 21.5131 21.5613 21.4556C21.7892 21.398 21.9974 21.2798 22.1636 21.1136C22.3299 20.9473 22.448 20.7392 22.5056 20.5112C22.5632 20.2833 22.558 20.044 22.4906 19.8187L21.9094 17.7937ZM20.4656 17.3156C20.4111 17.4009 20.3753 17.4969 20.3608 17.5971C20.3462 17.6974 20.3532 17.7995 20.3813 17.8969L20.9625 19.9125L18.9563 19.3312C18.8575 19.3024 18.7537 19.295 18.6518 19.3095C18.55 19.3241 18.4524 19.3603 18.3656 19.4156C17.6784 19.8211 16.9173 20.0859 16.1268 20.1946C15.3362 20.3033 14.532 20.2537 13.7608 20.0487C12.9896 19.8436 12.2668 19.4873 11.6346 19.0004C11.0024 18.5135 10.4733 17.9058 10.0781 17.2125C11.9214 17.016 13.6272 16.1455 14.8678 14.7682C16.1085 13.3908 16.7966 11.6037 16.8 9.74999C16.7975 9.30046 16.7567 8.85197 16.6781 8.40936C17.9939 8.71987 19.1662 9.4656 20.0051 10.5257C20.8439 11.5858 21.3003 12.8981 21.3 14.25C21.2988 15.3278 21.0108 16.3858 20.4656 17.3156V17.3156Z"
        fill="#886349" />
    </symbol>

    <symbol id="bills">
      <path
        d="M21.3813 16.0031C21.3127 15.9237 21.2277 15.86 21.1323 15.8163C21.0369 15.7726 20.9331 15.75 20.8282 15.75H19.9V6C19.8976 5.20511 19.5807 4.44349 19.0186 3.88141C18.4566 3.31934 17.6949 3.00247 16.9 3H4.15004C3.35515 3.00247 2.59352 3.31934 2.03145 3.88141C1.46938 4.44349 1.15251 5.20511 1.15004 6C1.14766 6.73832 1.42193 7.45075 1.91879 7.99688C1.98318 8.07051 2.06152 8.13066 2.14928 8.17385C2.23704 8.21704 2.33249 8.24242 2.43011 8.24852C2.52774 8.25462 2.6256 8.24132 2.71806 8.20939C2.81052 8.17747 2.89573 8.12754 2.96879 8.0625C3.04272 7.99729 3.10307 7.91814 3.14638 7.82959C3.1897 7.74103 3.21513 7.64481 3.22122 7.54642C3.22732 7.44803 3.21396 7.3494 3.1819 7.25618C3.14985 7.16295 3.09973 7.07696 3.03441 7.00312C2.87179 6.82219 2.75562 6.60441 2.69591 6.36857C2.63621 6.13273 2.63476 5.88591 2.6917 5.64939C2.74863 5.41286 2.86224 5.19374 3.02273 5.01091C3.18322 4.82807 3.38577 4.68702 3.61292 4.5999C3.84006 4.51279 4.08499 4.48223 4.32658 4.51086C4.56817 4.5395 4.79917 4.62646 4.99966 4.76426C5.20015 4.90205 5.36412 5.08654 5.47742 5.30183C5.59073 5.51711 5.64997 5.75672 5.65004 6V18C5.65251 18.7949 5.96938 19.5565 6.53145 20.1186C7.09352 20.6807 7.85515 20.9975 8.65004 21H19.15C19.9449 20.9975 20.7066 20.6807 21.2686 20.1186C21.8307 19.5565 22.1476 18.7949 22.15 18C22.1524 17.2617 21.8782 16.5492 21.3813 16.0031V16.0031ZM10.15 9H16.15C16.349 9 16.5397 9.07902 16.6804 9.21967C16.821 9.36032 16.9 9.55109 16.9 9.75C16.9 9.94891 16.821 10.1397 16.6804 10.2803C16.5397 10.421 16.349 10.5 16.15 10.5H10.15C9.95113 10.5 9.76036 10.421 9.61971 10.2803C9.47906 10.1397 9.40004 9.94891 9.40004 9.75C9.40004 9.55109 9.47906 9.36032 9.61971 9.21967C9.76036 9.07902 9.95113 9 10.15 9V9ZM9.40004 12.75C9.40004 12.5511 9.47906 12.3603 9.61971 12.2197C9.76036 12.079 9.95113 12 10.15 12H16.15C16.349 12 16.5397 12.079 16.6804 12.2197C16.821 12.3603 16.9 12.5511 16.9 12.75C16.9 12.9489 16.821 13.1397 16.6804 13.2803C16.5397 13.421 16.349 13.5 16.15 13.5H10.15C9.95113 13.5 9.76036 13.421 9.61971 13.2803C9.47906 13.1397 9.40004 12.9489 9.40004 12.75ZM19.15 19.5H11.2469C11.5098 19.0437 11.6488 18.5266 11.65 18C11.6518 17.747 11.6203 17.4948 11.5563 17.25H20.4532C20.582 17.4788 20.6489 17.7372 20.6474 17.9998C20.6458 18.2623 20.5757 18.5199 20.4441 18.7471C20.3126 18.9743 20.124 19.1633 19.897 19.2953C19.6701 19.4274 19.4126 19.4979 19.15 19.5V19.5Z"
        fill="#946800" />
    </symbol>

    <symbol id="ivr">
      <path
        d="M22.2125 16.4156C22.0467 17.6816 21.4267 18.8443 20.4679 19.6876C19.5092 20.5308 18.2768 20.9972 17 21C9.55625 21 3.5 14.9438 3.5 7.50001C3.50281 6.22319 3.96919 4.99083 4.81243 4.03206C5.65566 3.07329 6.81837 2.45336 8.08437 2.28751C8.40711 2.25172 8.73284 2.31967 9.01435 2.4815C9.29586 2.64332 9.51851 2.89061 9.65 3.18751L11.5344 7.58438C11.6321 7.81261 11.6713 8.06163 11.6484 8.30885C11.6255 8.55607 11.5412 8.79364 11.4031 9.00001L9.84687 11.3813C10.5516 12.8114 11.7127 13.966 13.1469 14.6625L15.5 13.0969C15.7061 12.9579 15.9443 12.8738 16.192 12.8525C16.4397 12.8312 16.6888 12.8733 16.9156 12.975L21.3125 14.85C21.6094 14.9815 21.8567 15.2041 22.0185 15.4857C22.1803 15.7672 22.2483 16.0929 22.2125 16.4156V16.4156ZM15.2562 4.47188C16.3979 4.78377 17.4384 5.38794 18.2752 6.22477C19.1121 7.06159 19.7162 8.10215 20.0281 9.24376C20.0695 9.40404 20.1627 9.54612 20.2933 9.64787C20.4239 9.74962 20.5845 9.80531 20.75 9.80626C20.8166 9.80613 20.8829 9.79667 20.9469 9.77813C21.0422 9.75319 21.1316 9.70946 21.2098 9.64953C21.2881 9.58959 21.3535 9.51465 21.4024 9.42908C21.4513 9.34352 21.4827 9.24905 21.4946 9.15123C21.5065 9.05341 21.4988 8.95419 21.4719 8.85938C21.0969 7.46128 20.3607 6.18644 19.3371 5.16289C18.3136 4.13934 17.0387 3.40311 15.6406 3.02813C15.5428 2.99249 15.4386 2.97761 15.3347 2.98444C15.2308 2.99127 15.1295 3.01965 15.0372 3.06779C14.9448 3.11593 14.8635 3.18277 14.7985 3.26404C14.7334 3.34532 14.6859 3.43925 14.6591 3.53987C14.6324 3.64049 14.6268 3.74558 14.6429 3.84846C14.6589 3.95133 14.6962 4.04974 14.7524 4.13741C14.8086 4.22508 14.8824 4.3001 14.9691 4.35769C15.0559 4.41527 15.1536 4.45416 15.2562 4.47188V4.47188ZM14.4781 7.36876C15.1127 7.54246 15.6911 7.87847 16.1563 8.3437C16.6215 8.80892 16.9575 9.3873 17.1312 10.0219C17.1712 10.183 17.264 10.326 17.3949 10.428C17.5258 10.53 17.6872 10.5851 17.8531 10.5844C17.9167 10.585 17.98 10.5755 18.0406 10.5563C18.1368 10.5323 18.2272 10.4894 18.3065 10.4299C18.3857 10.3704 18.4523 10.2956 18.5021 10.2099C18.5519 10.1242 18.5841 10.0294 18.5966 9.93109C18.6091 9.83277 18.6018 9.73294 18.575 9.63751C18.3382 8.74642 17.8702 7.93374 17.2182 7.28179C16.5663 6.62983 15.7536 6.16177 14.8625 5.92501C14.7647 5.88937 14.6605 5.87449 14.5566 5.88131C14.4527 5.88814 14.3514 5.91653 14.259 5.96467C14.1667 6.01281 14.0854 6.07964 14.0203 6.16092C13.9553 6.24219 13.9078 6.33613 13.881 6.43675C13.8542 6.53736 13.8487 6.64246 13.8647 6.74533C13.8808 6.84821 13.9181 6.94662 13.9743 7.03429C14.0304 7.12196 14.1042 7.19698 14.191 7.25456C14.2777 7.31214 14.3755 7.35104 14.4781 7.36876V7.36876Z"
        fill="#0078A1" />
    </symbol>


    <symbol id="two-way">
      <path
        d="M20.6343 17.0344L17.6343 20.0344C17.4903 20.172 17.2991 20.2492 17.0999 20.25C17.0004 20.2496 16.9018 20.2305 16.8093 20.1937C16.6728 20.1364 16.5563 20.0399 16.4746 19.9164C16.3928 19.793 16.3495 19.6481 16.3499 19.5V17.25H5.09992C4.90101 17.25 4.71024 17.171 4.56959 17.0303C4.42894 16.8897 4.34992 16.6989 4.34992 16.5C4.34992 16.3011 4.42894 16.1103 4.56959 15.9697C4.71024 15.829 4.90101 15.75 5.09992 15.75H16.3499V13.5C16.3495 13.3519 16.3928 13.207 16.4746 13.0836C16.5563 12.9601 16.6728 12.8636 16.8093 12.8062C16.9478 12.7522 17.0988 12.7385 17.2448 12.7667C17.3908 12.7949 17.5259 12.8639 17.6343 12.9656L20.6343 15.9656C20.7751 16.1078 20.8541 16.2999 20.8541 16.5C20.8541 16.7001 20.7751 16.8922 20.6343 17.0344V17.0344ZM7.56555 11.0344C7.70951 11.172 7.90077 11.2492 8.09992 11.25C8.19946 11.2496 8.29804 11.2305 8.39055 11.1937C8.52705 11.1364 8.64351 11.0399 8.72526 10.9164C8.80701 10.793 8.85039 10.6481 8.84992 10.5V8.24999H20.0999C20.2988 8.24999 20.4896 8.17098 20.6303 8.03032C20.7709 7.88967 20.8499 7.69891 20.8499 7.49999C20.8499 7.30108 20.7709 7.11032 20.6303 6.96966C20.4896 6.82901 20.2988 6.74999 20.0999 6.74999H8.84992V4.49999C8.85039 4.35193 8.80701 4.20703 8.72526 4.08358C8.64351 3.96012 8.52705 3.86362 8.39055 3.80624C8.25201 3.75221 8.10101 3.7385 7.95502 3.76671C7.80902 3.79491 7.67399 3.86387 7.56555 3.96562L4.56555 6.96562C4.42471 7.10781 4.3457 7.29986 4.3457 7.49999C4.3457 7.70013 4.42471 7.89217 4.56555 8.03437L7.56555 11.0344Z"
        fill="#CD1D8D" />
    </symbol>


    <symbol id="email">
      <path
        d="M21.2 4.5H3.19995C3.00104 4.5 2.81027 4.57902 2.66962 4.71967C2.52897 4.86032 2.44995 5.05109 2.44995 5.25V18C2.44995 18.3978 2.60799 18.7794 2.88929 19.0607C3.1706 19.342 3.55213 19.5 3.94995 19.5H20.45C20.8478 19.5 21.2293 19.342 21.5106 19.0607C21.7919 18.7794 21.95 18.3978 21.95 18V5.25C21.95 5.05109 21.8709 4.86032 21.7303 4.71967C21.5896 4.57902 21.3989 4.5 21.2 4.5ZM9.45308 12L3.94995 17.0438V6.95625L9.45308 12ZM10.5593 13.0219L11.6937 14.0531C11.832 14.1796 12.0126 14.2498 12.2 14.2498C12.3873 14.2498 12.5679 14.1796 12.7062 14.0531L13.8406 13.0219L19.2687 18H5.1312L10.5593 13.0219ZM14.9468 12L20.45 6.95625V17.0438L14.9468 12Z"
        fill="#297C3B" />
    </symbol>


    <symbol id="selector">
      <path fill-rule="evenodd" clip-rule="evenodd"
        d="M10 3C10.2652 3 10.5196 3.10536 10.7071 3.29289L13.7071 6.29289C14.0976 6.68342 14.0976 7.31658 13.7071 7.70711C13.3166 8.09763 12.6834 8.09763 12.2929 7.70711L10 5.41421L7.70711 7.70711C7.31658 8.09763 6.68342 8.09763 6.29289 7.70711C5.90237 7.31658 5.90237 6.68342 6.29289 6.29289L9.29289 3.29289C9.48043 3.10536 9.73478 3 10 3ZM6.29289 12.2929C6.68342 11.9024 7.31658 11.9024 7.70711 12.2929L10 14.5858L12.2929 12.2929C12.6834 11.9024 13.3166 11.9024 13.7071 12.2929C14.0976 12.6834 14.0976 13.3166 13.7071 13.7071L10.7071 16.7071C10.3166 17.0976 9.68342 17.0976 9.29289 16.7071L6.29289 13.7071C5.90237 13.3166 5.90237 12.6834 6.29289 12.2929Z"
        fill="#C8C7CB" />
    </symbol>

    <symbol id="select-chevron" width="18" height="10" viewBox="0 0 18 10" fill="none"
      xmlns="http://www.w3.org/2000/svg">
      <path d="M1 1L9 9L17 1" stroke="#fff" stroke-width="2" stroke-linecap="round" stroke-linejoin="round" />
    </symbol>


    <symbol id="select-check" viewBox="0 0 14 10" fill="none" xmlns="http://www.w3.org/2000/symbol">
      <path d="M1.66663 5L5.66663 9L12.3333 1" stroke="#373737" stroke-width="1.5" stroke-linecap="round"
        stroke-linejoin="round" />
    </symbol>

    <symbol id="warning">
      <path
        d="M14.7937 11.75L9.29995 2.24999C9.16843 2.02151 8.97901 1.83173 8.75078 1.69977C8.52255 1.5678 8.26358 1.49832 7.99995 1.49832C7.73632 1.49832 7.47734 1.5678 7.24911 1.69977C7.02089 1.83173 6.83147 2.02151 6.69995 2.24999L1.2062 11.75C1.07274 11.9773 1.00182 12.2359 1.00063 12.4995C0.999435 12.7631 1.06802 13.0223 1.19942 13.2508C1.33082 13.4794 1.52035 13.669 1.74876 13.8006C1.97718 13.9322 2.23635 14.001 2.49995 14H13.4999C13.7635 14.001 14.0227 13.9322 14.2511 13.8006C14.4795 13.669 14.6691 13.4794 14.8005 13.2508C14.9319 13.0223 15.0005 12.7631 14.9993 12.4995C14.9981 12.2359 14.9272 11.9773 14.7937 11.75ZM7.49995 6.49999C7.49995 6.36738 7.55263 6.2402 7.6464 6.14644C7.74016 6.05267 7.86734 5.99999 7.99995 5.99999C8.13256 5.99999 8.25973 6.05267 8.3535 6.14644C8.44727 6.2402 8.49995 6.36738 8.49995 6.49999V8.99999C8.49995 9.1326 8.44727 9.25978 8.3535 9.35354C8.25973 9.44731 8.13256 9.49999 7.99995 9.49999C7.86734 9.49999 7.74016 9.44731 7.6464 9.35354C7.55263 9.25978 7.49995 9.1326 7.49995 8.99999V6.49999ZM7.99995 12C7.85161 12 7.70661 11.956 7.58327 11.8736C7.45993 11.7912 7.3638 11.674 7.30704 11.537C7.25027 11.4 7.23542 11.2492 7.26436 11.1037C7.2933 10.9582 7.36473 10.8245 7.46962 10.7197C7.57451 10.6148 7.70814 10.5433 7.85363 10.5144C7.99912 10.4855 8.14992 10.5003 8.28696 10.5571C8.42401 10.6138 8.54114 10.71 8.62355 10.8333C8.70596 10.9566 8.74995 11.1017 8.74995 11.25C8.74995 11.4489 8.67093 11.6397 8.53028 11.7803C8.38963 11.921 8.19886 12 7.99995 12Z"
        fill="#CD2B31" />
    </symbol>

    <symbol id="check">
      <path
        d="M9.74997 18C9.55119 17.9973 9.36059 17.9204 9.2156 17.7844L3.9656 12.5344C3.846 12.3887 3.78488 12.2037 3.79413 12.0154C3.80338 11.8271 3.88233 11.649 4.01563 11.5157C4.14893 11.3824 4.32705 11.3034 4.51534 11.2942C4.70363 11.2849 4.88862 11.346 5.03435 11.4656L9.74997 16.1906L19.7156 6.21563C19.8613 6.09603 20.0463 6.03491 20.2346 6.04416C20.4229 6.05341 20.601 6.13236 20.7343 6.26566C20.8676 6.39896 20.9466 6.57708 20.9558 6.76537C20.9651 6.95366 20.9039 7.13865 20.7843 7.28438L10.2843 17.7844C10.1394 17.9204 9.94876 17.9973 9.74997 18V18Z"
        fill="#8E4EC6" />
    </symbol>


    <symbol id="sidebar-messages">
      <path
        d="M16.875 3.125H3.125C2.79348 3.125 2.47554 3.2567 2.24112 3.49112C2.0067 3.72554 1.875 4.04348 1.875 4.375V14.375C1.875 14.7065 2.0067 15.0245 2.24112 15.2589C2.47554 15.4933 2.79348 15.625 3.125 15.625H7.77344L8.92969 17.5547C9.03942 17.741 9.19588 17.8954 9.3836 18.0027C9.57132 18.11 9.78379 18.1664 10 18.1664C10.2162 18.1664 10.4287 18.11 10.6164 18.0027C10.8041 17.8954 10.9606 17.741 11.0703 17.5547L12.2266 15.625H16.875C17.2065 15.625 17.5245 15.4933 17.7589 15.2589C17.9933 15.0245 18.125 14.7065 18.125 14.375V4.375C18.125 4.04348 17.9933 3.72554 17.7589 3.49112C17.5245 3.2567 17.2065 3.125 16.875 3.125ZM6.25 10.3125C6.06458 10.3125 5.88332 10.2575 5.72915 10.1545C5.57498 10.0515 5.45482 9.90507 5.38386 9.73377C5.31291 9.56246 5.29434 9.37396 5.33051 9.1921C5.36669 9.01025 5.45598 8.8432 5.58709 8.71209C5.7182 8.58098 5.88525 8.49169 6.0671 8.45551C6.24896 8.41934 6.43746 8.43791 6.60877 8.50886C6.78007 8.57982 6.92649 8.69998 7.0295 8.85415C7.13252 9.00832 7.1875 9.18958 7.1875 9.375C7.1875 9.62364 7.08873 9.8621 6.91291 10.0379C6.7371 10.2137 6.49864 10.3125 6.25 10.3125ZM10 10.3125C9.81458 10.3125 9.63332 10.2575 9.47915 10.1545C9.32498 10.0515 9.20482 9.90507 9.13386 9.73377C9.06291 9.56246 9.04434 9.37396 9.08051 9.1921C9.11669 9.01025 9.20598 8.8432 9.33709 8.71209C9.4682 8.58098 9.63525 8.49169 9.8171 8.45551C9.99896 8.41934 10.1875 8.43791 10.3588 8.50886C10.5301 8.57982 10.6765 8.69998 10.7795 8.85415C10.8825 9.00832 10.9375 9.18958 10.9375 9.375C10.9375 9.62364 10.8387 9.8621 10.6629 10.0379C10.4871 10.2137 10.2486 10.3125 10 10.3125ZM13.75 10.3125C13.5646 10.3125 13.3833 10.2575 13.2292 10.1545C13.075 10.0515 12.9548 9.90507 12.8839 9.73377C12.8129 9.56246 12.7943 9.37396 12.8305 9.1921C12.8667 9.01025 12.956 8.8432 13.0871 8.71209C13.2182 8.58098 13.3852 8.49169 13.5671 8.45551C13.749 8.41934 13.9375 8.43791 14.1088 8.50886C14.2801 8.57982 14.4265 8.69998 14.5295 8.85415C14.6325 9.00832 14.6875 9.18958 14.6875 9.375C14.6875 9.62364 14.5887 9.8621 14.4129 10.0379C14.2371 10.2137 13.9986 10.3125 13.75 10.3125Z"
        fill="white" />
    </symbol>

    <symbol id="sidebar-home">
      <path
        d="M17.5 9.02347V16.25C17.4995 16.4756 17.4383 16.6969 17.3228 16.8907C17.2073 17.0845 17.0419 17.2437 16.8438 17.3516C16.6621 17.4518 16.4575 17.5029 16.25 17.5H12.5C12.3343 17.5 12.1753 17.4342 12.0581 17.317C11.9409 17.1998 11.875 17.0408 11.875 16.875V13.125C11.875 12.9593 11.8092 12.8003 11.692 12.6831C11.5747 12.5659 11.4158 12.5 11.25 12.5H8.75002C8.58426 12.5 8.42528 12.5659 8.30807 12.6831C8.19086 12.8003 8.12502 12.9593 8.12502 13.125V16.875C8.12502 17.0408 8.05917 17.1998 7.94196 17.317C7.82475 17.4342 7.66578 17.5 7.50002 17.5H3.75002C3.57269 17.5007 3.39728 17.4634 3.23557 17.3906C3.07387 17.3179 2.92962 17.2113 2.81252 17.0782C2.60931 16.8381 2.49849 16.5333 2.50002 16.2188V9.02347C2.50007 8.85003 2.53622 8.6785 2.60616 8.51979C2.6761 8.36108 2.7783 8.21866 2.90627 8.10159L9.15627 2.42191C9.3867 2.21109 9.6877 2.09418 10 2.09418C10.3123 2.09418 10.6133 2.21109 10.8438 2.42191L17.0938 8.10159C17.2217 8.21866 17.3239 8.36108 17.3939 8.51979C17.4638 8.6785 17.5 8.85003 17.5 9.02347Z"
        fill="white" />
    </symbol>

    <symbol id="sidebar-developers">
      <path
        d="M5.39847 7.35157L2.22659 10L5.39847 12.6484C5.46207 12.6999 5.51481 12.7635 5.55362 12.8355C5.59243 12.9075 5.61654 12.9865 5.62453 13.068C5.63253 13.1494 5.62426 13.2316 5.6002 13.3098C5.57615 13.388 5.53678 13.4606 5.4844 13.5234C5.4251 13.5943 5.351 13.6513 5.26732 13.6904C5.18364 13.7295 5.09241 13.7499 5.00003 13.75C4.85357 13.7507 4.71191 13.6979 4.60159 13.6016L0.85159 10.4766C0.781232 10.4187 0.724568 10.3459 0.685665 10.2635C0.646763 10.1811 0.626587 10.0911 0.626587 10C0.626587 9.90889 0.646763 9.8189 0.685665 9.7365C0.724568 9.65411 0.781232 9.58135 0.85159 9.52345L4.60159 6.39845C4.66239 6.33497 4.73589 6.28503 4.8173 6.25188C4.89871 6.21874 4.9862 6.20314 5.07404 6.20611C5.16189 6.20907 5.24813 6.23053 5.32712 6.26909C5.40611 6.30765 5.47608 6.36243 5.53246 6.42986C5.58884 6.4973 5.63036 6.57587 5.65431 6.66044C5.67826 6.74501 5.68411 6.83368 5.67146 6.92066C5.65882 7.00765 5.62797 7.09099 5.58093 7.16524C5.53389 7.23949 5.47171 7.30298 5.39847 7.35157ZM19.1485 9.52345L15.3985 6.39845C15.2703 6.31342 15.1153 6.27864 14.963 6.30077C14.8108 6.32289 14.6721 6.40037 14.5735 6.51838C14.4748 6.63638 14.4231 6.78662 14.4283 6.94035C14.4335 7.09407 14.4952 7.24049 14.6016 7.35157L17.7735 10L14.6016 12.6484C14.5044 12.7309 14.4347 12.8411 14.4019 12.9643C14.3692 13.0875 14.3748 13.2178 14.4182 13.3376C14.4615 13.4575 14.5405 13.5612 14.6445 13.6349C14.7485 13.7087 14.8726 13.7488 15 13.75C15.1465 13.7507 15.2881 13.6979 15.3985 13.6016L19.1485 10.4766C19.2188 10.4187 19.2755 10.3459 19.3144 10.2635C19.3533 10.1811 19.3735 10.0911 19.3735 10C19.3735 9.90889 19.3533 9.8189 19.3144 9.7365C19.2755 9.65411 19.2188 9.58135 19.1485 9.52345ZM12.711 2.53907C12.6341 2.5106 12.5523 2.49774 12.4704 2.50123C12.3885 2.50472 12.3081 2.5245 12.2339 2.55942C12.1597 2.59433 12.0932 2.64367 12.0383 2.70456C11.9834 2.76546 11.9412 2.83668 11.9141 2.91407L6.91409 16.6641C6.88562 16.741 6.87276 16.8228 6.87625 16.9047C6.87974 16.9866 6.89952 17.067 6.93443 17.1412C6.96935 17.2154 7.01869 17.2818 7.07958 17.3367C7.14048 17.3917 7.2117 17.4339 7.28909 17.4609C7.35686 17.4852 7.42808 17.4984 7.50003 17.5C7.62866 17.5007 7.75429 17.4611 7.85934 17.3869C7.9644 17.3126 8.04363 17.2074 8.08597 17.0859L13.086 3.33595C13.1144 3.25906 13.1273 3.17727 13.1238 3.09535C13.1203 3.01343 13.1005 2.93303 13.0656 2.85885C13.0307 2.78466 12.9814 2.71817 12.9205 2.66327C12.8596 2.60836 12.7884 2.56614 12.711 2.53907Z"
        fill="white" />
    </symbol>

    <symbol id="sidebar-analytics">
      <path
        d="M17.8125 15.625H17.1875V3.125C17.1875 2.95924 17.1217 2.80027 17.0044 2.68306C16.8872 2.56585 16.7283 2.5 16.5625 2.5H12.1875C12.0217 2.5 11.8628 2.56585 11.7456 2.68306C11.6283 2.80027 11.5625 2.95924 11.5625 3.125V6.25H7.8125C7.64674 6.25 7.48777 6.31585 7.37056 6.43306C7.25335 6.55027 7.1875 6.70924 7.1875 6.875V10H3.4375C3.27174 10 3.11277 10.0658 2.99556 10.1831C2.87835 10.3003 2.8125 10.4592 2.8125 10.625V15.625H2.1875C2.02174 15.625 1.86277 15.6908 1.74556 15.8081C1.62835 15.9253 1.5625 16.0842 1.5625 16.25C1.5625 16.4158 1.62835 16.5747 1.74556 16.6919C1.86277 16.8092 2.02174 16.875 2.1875 16.875H17.8125C17.9783 16.875 18.1372 16.8092 18.2544 16.6919C18.3717 16.5747 18.4375 16.4158 18.4375 16.25C18.4375 16.0842 18.3717 15.9253 18.2544 15.8081C18.1372 15.6908 17.9783 15.625 17.8125 15.625ZM8.4375 7.5H11.5625V15.625H8.4375V7.5ZM4.0625 11.25H7.1875V15.625H4.0625V11.25Z"
        fill="white" />
    </symbol>

    <symbol id="sidebar-wallet">
      <path
        d="M16.875 5.625H4.375C4.20924 5.625 4.05027 5.55915 3.93306 5.44194C3.81585 5.32473 3.75 5.16576 3.75 5C3.75 4.83424 3.81585 4.67527 3.93306 4.55806C4.05027 4.44085 4.20924 4.375 4.375 4.375H15C15.1658 4.375 15.3247 4.30915 15.4419 4.19194C15.5592 4.07473 15.625 3.91576 15.625 3.75C15.625 3.58424 15.5592 3.42527 15.4419 3.30806C15.3247 3.19085 15.1658 3.125 15 3.125H4.375C3.87835 3.12706 3.40263 3.32526 3.05145 3.67645C2.70026 4.02763 2.50206 4.50335 2.5 5V15C2.50206 15.4966 2.70026 15.9724 3.05145 16.3236C3.40263 16.6747 3.87835 16.8729 4.375 16.875H16.875C17.2065 16.875 17.5245 16.7433 17.7589 16.5089C17.9933 16.2745 18.125 15.9565 18.125 15.625V6.875C18.125 6.54348 17.9933 6.22554 17.7589 5.99112C17.5245 5.7567 17.2065 5.625 16.875 5.625ZM14.0625 12.1875C13.8771 12.1875 13.6958 12.1325 13.5417 12.0295C13.3875 11.9265 13.2673 11.7801 13.1964 11.6088C13.1254 11.4375 13.1068 11.249 13.143 11.0671C13.1792 10.8852 13.2685 10.7182 13.3996 10.5871C13.5307 10.456 13.6977 10.3667 13.8796 10.3305C14.0615 10.2943 14.25 10.3129 14.4213 10.3839C14.5926 10.4548 14.739 10.575 14.842 10.7292C14.945 10.8833 15 11.0646 15 11.25C15 11.4986 14.9012 11.7371 14.7254 11.9129C14.5496 12.0887 14.3111 12.1875 14.0625 12.1875Z"
        fill="white" />
    </symbol>

    <symbol id="sidebar-settings">
      <path
        d="M18.5547 8.14844C18.5353 8.06107 18.4974 7.97889 18.4434 7.90745C18.3895 7.83602 18.3209 7.777 18.2422 7.73438L16.3828 6.70313C16.2832 6.50101 16.171 6.30532 16.0469 6.11719L16.086 3.99219C16.0867 3.90306 16.069 3.81474 16.0341 3.73274C15.9991 3.65075 15.9476 3.57684 15.8828 3.51563C14.957 2.67622 13.8621 2.04487 12.6719 1.66406C12.5864 1.63741 12.4963 1.6292 12.4074 1.63997C12.3185 1.65075 12.2329 1.68026 12.1563 1.72656L10.336 2.82031C10.1094 2.8125 9.89064 2.8125 9.66408 2.82031L7.84377 1.72656C7.76714 1.68026 7.68155 1.65075 7.59266 1.63997C7.50378 1.6292 7.41362 1.63741 7.32814 1.66406C6.13632 2.04516 5.04098 2.67945 4.11721 3.52344C4.05185 3.58254 3.9999 3.65496 3.96487 3.73581C3.92983 3.81666 3.91251 3.90408 3.91408 3.99219L3.95314 6.11719C3.82814 6.30469 3.71877 6.5 3.60939 6.70313L1.75002 7.73438C1.67246 7.77744 1.60509 7.83672 1.55251 7.90817C1.49993 7.97963 1.46338 8.06158 1.44533 8.14844C1.17968 9.36852 1.17968 10.6315 1.44533 11.8516C1.46474 11.9389 1.50268 12.0211 1.55659 12.0925C1.61051 12.164 1.67913 12.223 1.75783 12.2656L3.61721 13.2969C3.71688 13.499 3.82908 13.6947 3.95314 13.8828L3.91408 16.0078C3.91337 16.0969 3.93104 16.1853 3.96599 16.2673C4.00093 16.3493 4.05241 16.4232 4.11721 16.4844C5.04302 17.3238 6.13789 17.9551 7.32814 18.3359C7.41362 18.3626 7.50378 18.3708 7.59266 18.36C7.68155 18.3493 7.76714 18.3197 7.84377 18.2734L9.66408 17.1797H10.336L12.1641 18.2734C12.2591 18.3359 12.3707 18.3686 12.4844 18.3672C12.5479 18.3644 12.6109 18.3539 12.6719 18.3359C13.8637 17.9548 14.9591 17.3206 15.8828 16.4766C15.9482 16.4175 16.0001 16.345 16.0352 16.2642C16.0702 16.1833 16.0875 16.0959 16.086 16.0078L16.0469 13.8828C16.1719 13.6953 16.2813 13.5 16.3906 13.2969L18.25 12.2656C18.3276 12.2226 18.3949 12.1633 18.4475 12.0918C18.5001 12.0204 18.5367 11.9384 18.5547 11.8516C18.8204 10.6315 18.8204 9.36852 18.5547 8.14844ZM10 13.4375C9.32015 13.4375 8.65554 13.2359 8.09025 12.8582C7.52495 12.4805 7.08436 11.9436 6.82418 11.3155C6.56401 10.6874 6.49593 9.99619 6.62857 9.32938C6.76121 8.66257 7.0886 8.05006 7.56934 7.56932C8.05008 7.08858 8.66259 6.76119 9.3294 6.62855C9.99621 6.49591 10.6874 6.56399 11.3155 6.82417C11.9436 7.08434 12.4805 7.52493 12.8582 8.09023C13.2359 8.65552 13.4375 9.32013 13.4375 10C13.4375 10.9117 13.0754 11.786 12.4307 12.4307C11.786 13.0753 10.9117 13.4375 10 13.4375Z"
        fill="white" />
    </symbol>

    <symbol id="sidebar-others">
      <path
        d="M12.1875 10C12.1875 10.4326 12.0592 10.8556 11.8188 11.2153C11.5785 11.575 11.2368 11.8554 10.8371 12.021C10.4374 12.1866 9.99757 12.2299 9.57324 12.1455C9.14891 12.0611 8.75913 11.8527 8.45321 11.5468C8.14728 11.2409 7.93894 10.8511 7.85453 10.4268C7.77013 10.0024 7.81345 9.56259 7.97901 9.16288C8.14458 8.76317 8.42496 8.42153 8.78469 8.18116C9.14442 7.94079 9.56735 7.8125 10 7.8125C10.5795 7.81456 11.1347 8.04569 11.5445 8.45548C11.9543 8.86527 12.1854 9.42047 12.1875 10ZM3.75 7.8125C3.31735 7.8125 2.89442 7.94079 2.53469 8.18116C2.17496 8.42153 1.89458 8.76317 1.72901 9.16288C1.56345 9.56259 1.52013 10.0024 1.60453 10.4268C1.68894 10.8511 1.89728 11.2409 2.2032 11.5468C2.50913 11.8527 2.89891 12.0611 3.32324 12.1455C3.74757 12.2299 4.18741 12.1866 4.58712 12.021C4.98683 11.8554 5.32848 11.575 5.56884 11.2153C5.80921 10.8556 5.9375 10.4326 5.9375 10C5.93544 9.42047 5.70431 8.86527 5.29452 8.45548C4.88473 8.04569 4.32953 7.81456 3.75 7.8125ZM16.25 7.8125C15.8174 7.8125 15.3944 7.94079 15.0347 8.18116C14.675 8.42153 14.3946 8.76317 14.229 9.16288C14.0634 9.56259 14.0201 10.0024 14.1045 10.4268C14.1889 10.8511 14.3973 11.2409 14.7032 11.5468C15.0091 11.8527 15.3989 12.0611 15.8232 12.1455C16.2476 12.2299 16.6874 12.1866 17.0871 12.021C17.4868 11.8554 17.8285 11.575 18.0688 11.2153C18.3092 10.8556 18.4375 10.4326 18.4375 10C18.4354 9.42047 18.2043 8.86527 17.7945 8.45548C17.3847 8.04569 16.8295 7.81456 16.25 7.8125Z"
        fill="white" />
    </symbol>

    <symbol id="right-caret">
      <path
        d="M11.3563 8.35623L6.35625 13.3562C6.26027 13.448 6.13277 13.4994 6 13.5C5.93364 13.4997 5.86793 13.487 5.80625 13.4625C5.71525 13.4242 5.63761 13.3599 5.58311 13.2776C5.52861 13.1953 5.49969 13.0987 5.5 13V2.99998C5.49969 2.90126 5.52861 2.80467 5.58311 2.72236C5.63761 2.64006 5.71525 2.57573 5.80625 2.53748C5.89861 2.50145 5.99927 2.49231 6.09661 2.51112C6.19394 2.52992 6.28396 2.5759 6.35625 2.64373L11.3563 7.64373C11.4501 7.73852 11.5028 7.86655 11.5028 7.99998C11.5028 8.1334 11.4501 8.26143 11.3563 8.35623Z"
        fill="white" />
    </symbol>

    <symbol id="bottom-caret">
      <path
        d="M9.55475 14.1953L3.30475 7.94532C3.19007 7.82534 3.12576 7.66597 3.12506 7.5C3.12542 7.41705 3.14132 7.33491 3.17194 7.25782C3.21975 7.14406 3.30016 7.04701 3.40305 6.97889C3.50593 6.91076 3.62667 6.87462 3.75006 6.875L16.2501 6.875C16.3735 6.87462 16.4942 6.91076 16.5971 6.97889C16.7 7.04701 16.7804 7.14406 16.8282 7.25782C16.8732 7.37326 16.8846 7.49909 16.8611 7.62076C16.8376 7.74242 16.7802 7.85495 16.6954 7.94532L10.4454 14.1953C10.3269 14.3127 10.1668 14.3785 10.0001 14.3785C9.83328 14.3785 9.67324 14.3127 9.55475 14.1953Z"
        fill="#908E96" />
    </symbol>

    <symbol id="facebook-socials">

      <g clip-path="url(#clip0_204_860)">
        <path
          d="M2.97778 24V12.7385H0V8.68382H2.97778V5.2206C2.97778 2.49917 4.73676 0 8.78983 0C10.4309 0 11.6443 0.15732 11.6443 0.15732L11.5487 3.9437C11.5487 3.9437 10.3112 3.93166 8.96071 3.93166C7.49911 3.93166 7.26494 4.60522 7.26494 5.72316V8.68382H11.6649L11.4734 12.7385H7.26494V24H2.97778Z"
          fill="#3563A1" />
      </g>
      <defs>
        <clipPath id="clip0_204_860">
          <rect width="11.6649" height="24" fill="white" />
        </clipPath>
      </defs>



    </symbol>

    <symbol id="google-socials">
      <path
        d="M21.8055 10.0415H21V10H12V14H17.6515C16.827 16.3285 14.6115 18 12 18C8.6865 18 6 15.3135 6 12C6 8.6865 8.6865 6 12 6C13.5295 6 14.921 6.577 15.9805 7.5195L18.809 4.691C17.023 3.0265 14.634 2 12 2C6.4775 2 2 6.4775 2 12C2 17.5225 6.4775 22 12 22C17.5225 22 22 17.5225 22 12C22 11.3295 21.931 10.675 21.8055 10.0415Z"
        fill="#FFC107" />
      <path
        d="M3.15283 7.3455L6.43833 9.755C7.32733 7.554 9.48033 6 11.9998 6C13.5293 6 14.9208 6.577 15.9803 7.5195L18.8088 4.691C17.0228 3.0265 14.6338 2 11.9998 2C8.15883 2 4.82783 4.1685 3.15283 7.3455Z"
        fill="#FF3D00" />
      <path
        d="M12.0002 22C14.5832 22 16.9302 21.0115 18.7047 19.404L15.6097 16.785C14.5719 17.5742 13.3039 18.0011 12.0002 18C9.39916 18 7.19066 16.3415 6.35866 14.027L3.09766 16.5395C4.75266 19.778 8.11366 22 12.0002 22Z"
        fill="#4CAF50" />
      <path
        d="M21.8055 10.0415H21V10H12V14H17.6515C17.2571 15.1082 16.5467 16.0766 15.608 16.7855L15.6095 16.7845L18.7045 19.4035C18.4855 19.6025 22 17 22 12C22 11.3295 21.931 10.675 21.8055 10.0415Z"
        fill="#1976D2" />
    </symbol>

    <symbol id="envelope">
      <path
        d="M27.1875 4.6875H2.8125C2.29395 4.6875 1.875 5.10645 1.875 5.625V24.375C1.875 24.8936 2.29395 25.3125 2.8125 25.3125H27.1875C27.7061 25.3125 28.125 24.8936 28.125 24.375V5.625C28.125 5.10645 27.7061 4.6875 27.1875 4.6875ZM26.0156 7.93359V23.2031H3.98438V7.93359L3.17578 7.30371L4.32715 5.82422L5.58105 6.7998H24.4219L25.6758 5.82422L26.8271 7.30371L26.0156 7.93359V7.93359ZM24.4219 6.79688L15 14.1211L5.57812 6.79688L4.32422 5.82129L3.17285 7.30078L3.98145 7.93066L13.9893 15.7119C14.2771 15.9355 14.6311 16.0569 14.9956 16.0569C15.3601 16.0569 15.7141 15.9355 16.002 15.7119L26.0156 7.93359L26.8242 7.30371L25.6729 5.82422L24.4219 6.79688Z"
        fill="black" />
    </symbol>

    <symbol id="password-lock">
      <path
        d="M27.1875 4.6875H2.8125C2.29395 4.6875 1.875 5.10645 1.875 5.625V24.375C1.875 24.8936 2.29395 25.3125 2.8125 25.3125H27.1875C27.7061 25.3125 28.125 24.8936 28.125 24.375V5.625C28.125 5.10645 27.7061 4.6875 27.1875 4.6875ZM26.0156 7.93359V23.2031H3.98438V7.93359L3.17578 7.30371L4.32715 5.82422L5.58105 6.7998H24.4219L25.6758 5.82422L26.8271 7.30371L26.0156 7.93359V7.93359ZM24.4219 6.79688L15 14.1211L5.57812 6.79688L4.32422 5.82129L3.17285 7.30078L3.98145 7.93066L13.9893 15.7119C14.2771 15.9355 14.6311 16.0569 14.9956 16.0569C15.3601 16.0569 15.7141 15.9355 16.002 15.7119L26.0156 7.93359L26.8242 7.30371L25.6729 5.82422L24.4219 6.79688Z"
        fill="black" />

    </symbol>

    <symbol id="alert-warning">
      <path
        d="M14.7936 11.75L9.29983 2.25C9.1683 2.02152 8.97889 1.83174 8.75066 1.69977C8.52243 1.56781 8.26346 1.49833 7.99983 1.49833C7.7362 1.49833 7.47722 1.56781 7.24899 1.69977C7.02077 1.83174 6.83135 2.02152 6.69983 2.25L1.20608 11.75C1.07262 11.9773 1.00169 12.2359 1.0005 12.4995C0.999313 12.7631 1.0679 13.0223 1.1993 13.2508C1.3307 13.4794 1.52023 13.669 1.74864 13.8006C1.97706 13.9322 2.23623 14.001 2.49983 14H13.4998C13.7634 14.001 14.0226 13.9322 14.251 13.8006C14.4794 13.669 14.669 13.4794 14.8004 13.2508C14.9318 13.0223 15.0003 12.7631 14.9992 12.4995C14.998 12.2359 14.927 11.9773 14.7936 11.75ZM7.49983 6.5C7.49983 6.36739 7.55251 6.24021 7.64627 6.14644C7.74004 6.05268 7.86722 6 7.99983 6C8.13243 6 8.25961 6.05268 8.35338 6.14644C8.44715 6.24021 8.49983 6.36739 8.49983 6.5V9C8.49983 9.13261 8.44715 9.25978 8.35338 9.35355C8.25961 9.44732 8.13243 9.5 7.99983 9.5C7.86722 9.5 7.74004 9.44732 7.64627 9.35355C7.55251 9.25978 7.49983 9.13261 7.49983 9V6.5ZM7.99983 12C7.85149 12 7.70649 11.956 7.58315 11.8736C7.45981 11.7912 7.36368 11.6741 7.30692 11.537C7.25015 11.4 7.2353 11.2492 7.26424 11.1037C7.29318 10.9582 7.36461 10.8246 7.4695 10.7197C7.57439 10.6148 7.70802 10.5433 7.85351 10.5144C7.99899 10.4855 8.14979 10.5003 8.28684 10.5571C8.42388 10.6139 8.54102 10.71 8.62343 10.8333C8.70584 10.9567 8.74983 11.1017 8.74983 11.25C8.74983 11.4489 8.67081 11.6397 8.53016 11.7803C8.3895 11.921 8.19874 12 7.99983 12Z"
        fill="#E5484D" />
    </symbol>

    <symbol id="alert-info">
      <path
        d="M8 1.5C6.71442 1.5 5.45772 1.88122 4.3888 2.59545C3.31988 3.30968 2.48676 4.32484 1.99479 5.51256C1.50282 6.70028 1.37409 8.00721 1.6249 9.26809C1.8757 10.529 2.49477 11.6872 3.40381 12.5962C4.31285 13.5052 5.47104 14.1243 6.73192 14.3751C7.99279 14.6259 9.29973 14.4972 10.4874 14.0052C11.6752 13.5132 12.6903 12.6801 13.4046 11.6112C14.1188 10.5423 14.5 9.28558 14.5 8C14.4983 6.2766 13.813 4.62426 12.5944 3.40563C11.3757 2.18701 9.7234 1.50165 8 1.5ZM7.875 4.5C8.02334 4.5 8.16834 4.54399 8.29168 4.6264C8.41502 4.70881 8.51115 4.82594 8.56791 4.96299C8.62468 5.10003 8.63953 5.25083 8.61059 5.39632C8.58165 5.5418 8.51022 5.67544 8.40533 5.78033C8.30044 5.88522 8.16681 5.95665 8.02132 5.98559C7.87583 6.01453 7.72503 5.99968 7.58799 5.94291C7.45095 5.88614 7.33381 5.79001 7.2514 5.66668C7.16899 5.54334 7.125 5.39834 7.125 5.25C7.125 5.05109 7.20402 4.86032 7.34467 4.71967C7.48532 4.57902 7.67609 4.5 7.875 4.5ZM8.5 11.5H8C7.86739 11.5 7.74022 11.4473 7.64645 11.3536C7.55268 11.2598 7.5 11.1326 7.5 11V8C7.36739 8 7.24022 7.94732 7.14645 7.85355C7.05268 7.75979 7 7.63261 7 7.5C7 7.36739 7.05268 7.24021 7.14645 7.14645C7.24022 7.05268 7.36739 7 7.5 7H8C8.13261 7 8.25979 7.05268 8.35356 7.14645C8.44732 7.24021 8.5 7.36739 8.5 7.5V10.5C8.63261 10.5 8.75979 10.5527 8.85356 10.6464C8.94732 10.7402 9 10.8674 9 11C9 11.1326 8.94732 11.2598 8.85356 11.3536C8.75979 11.4473 8.63261 11.5 8.5 11.5Z"
        fill="#6E56CF" />
    </symbol>

    <symbol id="excel">
      <path
        d="M18.75 2.25H6.75C6.35218 2.25 5.97064 2.40804 5.68934 2.68934C5.40804 2.97064 5.25 3.35218 5.25 3.75V6H3.75C3.35218 6 2.97064 6.15804 2.68934 6.43934C2.40804 6.72064 2.25 7.10218 2.25 7.5V16.5C2.25 16.8978 2.40804 17.2794 2.68934 17.5607C2.97064 17.842 3.35218 18 3.75 18H5.25V20.25C5.25 20.6478 5.40804 21.0294 5.68934 21.3107C5.97064 21.592 6.35218 21.75 6.75 21.75H18.75C19.1478 21.75 19.5294 21.592 19.8107 21.3107C20.092 21.0294 20.25 20.6478 20.25 20.25V3.75C20.25 3.35218 20.092 2.97064 19.8107 2.68934C19.5294 2.40804 19.1478 2.25 18.75 2.25ZM6.4875 14.85C6.32837 14.7307 6.22317 14.553 6.19504 14.3561C6.16691 14.1592 6.21815 13.9591 6.3375 13.8L7.6875 12L6.3375 10.2C6.27841 10.1212 6.23541 10.0315 6.21096 9.93614C6.18652 9.84073 6.18111 9.74144 6.19504 9.64393C6.20897 9.54643 6.24196 9.45263 6.29214 9.36788C6.34232 9.28313 6.40871 9.20909 6.4875 9.15C6.56629 9.09091 6.65595 9.04791 6.75136 9.02346C6.84677 8.99902 6.94606 8.99361 7.04357 9.00754C7.14107 9.02147 7.23487 9.05446 7.31962 9.10464C7.40437 9.15482 7.47841 9.22121 7.5375 9.3L8.625 10.7531L9.7125 9.3C9.83185 9.14087 10.0095 9.03567 10.2064 9.00754C10.4033 8.97941 10.6034 9.03065 10.7625 9.15C10.9216 9.26935 11.0268 9.44702 11.055 9.64393C11.0831 9.84085 11.0318 10.0409 10.9125 10.2L9.5625 12L10.9125 13.8C11.0318 13.9591 11.0831 14.1592 11.055 14.3561C11.0268 14.553 10.9216 14.7307 10.7625 14.85C10.6337 14.9493 10.4751 15.0021 10.3125 15C10.1961 15 10.0812 14.9729 9.97709 14.9208C9.87295 14.8687 9.78236 14.7931 9.7125 14.7L8.625 13.2469L7.5375 14.7C7.46764 14.7931 7.37705 14.8687 7.27291 14.9208C7.16877 14.9729 7.05393 15 6.9375 15C6.77489 15.0021 6.61632 14.9493 6.4875 14.85ZM12 20.25H6.75V18H12V20.25ZM12 6H6.75V3.75H12V6ZM18.75 20.25H13.5V18C13.8978 18 14.2794 17.842 14.5607 17.5607C14.842 17.2794 15 16.8978 15 16.5V15.75H18.75V20.25ZM18.75 14.25H15V9.75H18.75V14.25ZM18.75 8.25H15V7.5C15 7.10218 14.842 6.72064 14.5607 6.43934C14.2794 6.15804 13.8978 6 13.5 6V3.75H18.75V8.25Z"
        fill="#18794E" />
    </symbol>

    <symbol id="pdf">
      <path
        d="M6 15H4.5C4.30109 15 4.11032 15.079 3.96967 15.2197C3.82902 15.3603 3.75 15.5511 3.75 15.75V20.25C3.75 20.4489 3.82902 20.6397 3.96967 20.7803C4.11032 20.921 4.30109 21 4.5 21C4.69891 21 4.88968 20.921 5.03033 20.7803C5.17098 20.6397 5.25 20.4489 5.25 20.25V19.5H6C6.59674 19.5 7.16903 19.263 7.59099 18.841C8.01295 18.419 8.25 17.8467 8.25 17.25C8.25 16.6533 8.01295 16.081 7.59099 15.659C7.16903 15.2371 6.59674 15 6 15ZM6 18H5.25V16.5H6C6.19891 16.5 6.38968 16.579 6.53033 16.7197C6.67098 16.8603 6.75 17.0511 6.75 17.25C6.75 17.4489 6.67098 17.6397 6.53033 17.7803C6.38968 17.921 6.19891 18 6 18ZM18.375 16.5V17.625H19.875C20.0739 17.625 20.2647 17.704 20.4053 17.8447C20.546 17.9853 20.625 18.1761 20.625 18.375C20.625 18.5739 20.546 18.7647 20.4053 18.9053C20.2647 19.046 20.0739 19.125 19.875 19.125H18.375V20.25C18.375 20.4489 18.296 20.6397 18.1553 20.7803C18.0147 20.921 17.8239 21 17.625 21C17.4261 21 17.2353 20.921 17.0947 20.7803C16.954 20.6397 16.875 20.4489 16.875 20.25V15.75C16.875 15.5511 16.954 15.3603 17.0947 15.2197C17.2353 15.079 17.4261 15 17.625 15H20.25C20.4489 15 20.6397 15.079 20.7803 15.2197C20.921 15.3603 21 15.5511 21 15.75C21 15.9489 20.921 16.1397 20.7803 16.2803C20.6397 16.421 20.4489 16.5 20.25 16.5H18.375ZM12 15H10.6875C10.4886 15 10.2978 15.079 10.1572 15.2197C10.0165 15.3603 9.9375 15.5511 9.9375 15.75V20.25C9.9375 20.4489 10.0165 20.6397 10.1572 20.7803C10.2978 20.921 10.4886 21 10.6875 21H12C12.7956 21 13.5587 20.6839 14.1213 20.1213C14.6839 19.5587 15 18.7957 15 18C15 17.2044 14.6839 16.4413 14.1213 15.8787C13.5587 15.3161 12.7956 15 12 15ZM12 19.5H11.4375V16.5H12C12.3978 16.5 12.7794 16.658 13.0607 16.9394C13.342 17.2207 13.5 17.6022 13.5 18C13.5 18.3978 13.342 18.7794 13.0607 19.0607C12.7794 19.342 12.3978 19.5 12 19.5ZM4.5 12.75H19.5C19.6989 12.75 19.8897 12.671 20.0303 12.5303C20.171 12.3897 20.25 12.1989 20.25 12V8.25001C20.2511 8.05048 20.1737 7.85851 20.0344 7.71564L14.7844 2.46564C14.6415 2.32635 14.4495 2.24889 14.25 2.25001H5.25C4.85218 2.25001 4.47064 2.40805 4.18934 2.68935C3.90804 2.97066 3.75 3.35219 3.75 3.75001V12C3.75 12.1989 3.82902 12.3897 3.96967 12.5303C4.11032 12.671 4.30109 12.75 4.5 12.75ZM14.25 4.12501L18.375 8.25001H14.25V4.12501Z"
        fill="#CD2B31" />
    </symbol>

    <symbol id="table-arrow">
      <path
        d="M4.86177 4.19526C4.60142 4.45561 4.60142 4.87772 4.86177 5.13807C5.12212 5.39842 5.54423 5.39842 5.80457 5.13807L4.86177 4.19526ZM8.47124 2.4714C8.73159 2.21105 8.73159 1.78894 8.47124 1.52859C8.21089 1.26825 7.78878 1.26825 7.52843 1.52859L8.47124 2.4714ZM8.47124 1.52859C8.21089 1.26825 7.78878 1.26825 7.52843 1.52859C7.26808 1.78894 7.26808 2.21105 7.52843 2.4714L8.47124 1.52859ZM10.1951 5.13807C10.4554 5.39842 10.8776 5.39842 11.1379 5.13807C11.3983 4.87772 11.3983 4.45561 11.1379 4.19526L10.1951 5.13807ZM7.33317 14C7.33317 14.3682 7.63165 14.6667 7.99984 14.6667C8.36803 14.6667 8.6665 14.3682 8.6665 14H7.33317ZM5.80457 5.13807L8.47124 2.4714L7.52843 1.52859L4.86177 4.19526L5.80457 5.13807ZM7.52843 1.52859L4.86177 4.19526L5.80457 5.13807L8.47124 2.4714L7.52843 1.52859ZM7.52843 2.4714L10.1951 5.13807L11.1379 4.19526L8.47124 1.52859L7.52843 2.4714ZM11.1379 4.19526L8.47124 1.52859L7.52843 2.4714L10.1951 5.13807L11.1379 4.19526ZM7.33317 2L7.33317 14H8.6665L8.6665 2H7.33317Z"
        fill="#402557" fill-opacity="0.7" />
    </symbol>

    <symbol id="contacts">
      <path
        d="M12.5 8.75C12.5 9.12084 12.39 9.48335 12.184 9.79169C11.978 10.1 11.6851 10.3404 11.3425 10.4823C10.9999 10.6242 10.6229 10.6613 10.2592 10.589C9.89549 10.5166 9.5614 10.338 9.29917 10.0758C9.03695 9.8136 8.85837 9.47951 8.78603 9.11579C8.71368 8.75208 8.75081 8.37508 8.89273 8.03247C9.03464 7.68986 9.27496 7.39702 9.58331 7.19099C9.89165 6.98497 10.2542 6.875 10.625 6.875C11.1216 6.87706 11.5974 7.07526 11.9486 7.42645C12.2997 7.77763 12.4979 8.25335 12.5 8.75V8.75ZM17.5 3.125V16.875C17.5 17.2065 17.3683 17.5245 17.1339 17.7589C16.8995 17.9933 16.5815 18.125 16.25 18.125H5C4.66848 18.125 4.35054 17.9933 4.11612 17.7589C3.8817 17.5245 3.75 17.2065 3.75 16.875V15.3125H2.5C2.33424 15.3125 2.17527 15.2467 2.05806 15.1294C1.94085 15.0122 1.875 14.8533 1.875 14.6875C1.875 14.5217 1.94085 14.3628 2.05806 14.2456C2.17527 14.1283 2.33424 14.0625 2.5 14.0625H3.75V12.1875H2.5C2.33424 12.1875 2.17527 12.1217 2.05806 12.0044C1.94085 11.8872 1.875 11.7283 1.875 11.5625C1.875 11.3967 1.94085 11.2378 2.05806 11.1206C2.17527 11.0033 2.33424 10.9375 2.5 10.9375H3.75V9.0625H2.5C2.33424 9.0625 2.17527 8.99665 2.05806 8.87944C1.94085 8.76223 1.875 8.60326 1.875 8.4375C1.875 8.27174 1.94085 8.11277 2.05806 7.99556C2.17527 7.87835 2.33424 7.8125 2.5 7.8125H3.75V5.9375H2.5C2.33424 5.9375 2.17527 5.87165 2.05806 5.75444C1.94085 5.63723 1.875 5.47826 1.875 5.3125C1.875 5.14674 1.94085 4.98777 2.05806 4.87056C2.17527 4.75335 2.33424 4.6875 2.5 4.6875H3.75V3.125C3.75 2.79348 3.8817 2.47554 4.11612 2.24112C4.35054 2.0067 4.66848 1.875 5 1.875H16.25C16.5815 1.875 16.8995 2.0067 17.1339 2.24112C17.3683 2.47554 17.5 2.79348 17.5 3.125ZM14.875 12.75C14.3219 12.0075 13.5838 11.423 12.7344 11.0547C13.1991 10.6295 13.5245 10.0738 13.6679 9.46045C13.8113 8.84709 13.766 8.20471 13.538 7.61755C13.3099 7.03039 12.9097 6.52586 12.3899 6.17011C11.8701 5.81436 11.2549 5.62401 10.625 5.62401C9.9951 5.62401 9.37991 5.81436 8.86009 6.17011C8.34027 6.52586 7.94009 7.03039 7.71202 7.61755C7.48396 8.20471 7.43866 8.84709 7.58206 9.46045C7.72546 10.0738 8.05088 10.6295 8.51562 11.0547C7.66618 11.423 6.92811 12.0075 6.375 12.75C6.27554 12.8826 6.23284 13.0493 6.25628 13.2134C6.27972 13.3775 6.36739 13.5255 6.5 13.625C6.60735 13.7077 6.73949 13.7518 6.875 13.75C6.97203 13.75 7.06772 13.7274 7.15451 13.684C7.24129 13.6406 7.31678 13.5776 7.375 13.5C7.75341 12.9955 8.24409 12.5859 8.80819 12.3039C9.3723 12.0218 9.99432 11.875 10.625 11.875C11.2557 11.875 11.8777 12.0218 12.4418 12.3039C13.0059 12.5859 13.4966 12.9955 13.875 13.5C13.9757 13.6309 14.1236 13.7172 14.2871 13.7406C14.4505 13.7639 14.6167 13.7225 14.75 13.625C14.8157 13.5758 14.871 13.5141 14.9128 13.4434C14.9546 13.3728 14.9821 13.2946 14.9937 13.2134C15.0053 13.1321 15.0008 13.0494 14.9804 12.9699C14.9601 12.8904 14.9242 12.8157 14.875 12.75V12.75Z"
        fill="white" />
    </symbol>

    <symbol id="sender-icon">
      <path
        d="M16.8996 3.58478L13.0105 17.382C12.9456 17.6157 12.8104 17.8237 12.6231 17.9777C12.4359 18.1317 12.2058 18.2244 11.964 18.243H11.8601C11.6364 18.2425 11.4175 18.1788 11.2284 18.0593C11.0393 17.9399 10.8878 17.7694 10.7914 17.5676L8.14174 11.9715C8.11573 11.9153 8.10748 11.8525 8.11809 11.7915C8.1287 11.7305 8.15766 11.6742 8.20112 11.6301L12.0085 7.82267C12.0681 7.76867 12.1162 7.70311 12.1497 7.62999C12.1832 7.55686 12.2015 7.4777 12.2034 7.39729C12.2054 7.31688 12.191 7.23691 12.1612 7.16222C12.1313 7.08754 12.0866 7.0197 12.0297 6.96283C11.9728 6.90595 11.905 6.86123 11.8303 6.83137C11.7556 6.8015 11.6757 6.78712 11.5953 6.7891C11.5148 6.79108 11.4357 6.80938 11.3626 6.84288C11.2894 6.87639 11.2239 6.9244 11.1699 6.984L7.36245 10.7988C7.31834 10.8423 7.26203 10.8713 7.20102 10.8819C7.14002 10.8925 7.07723 10.8842 7.02104 10.8582L1.45464 8.22345C1.23677 8.12055 1.05386 7.95603 0.928542 7.75024C0.803222 7.54445 0.740994 7.30643 0.749558 7.06564C0.762695 6.81772 0.85369 6.58025 1.00959 6.38704C1.1655 6.19382 1.37837 6.0547 1.61792 5.98947L15.4449 2.09298C15.6867 2.02392 15.9442 2.03342 16.1803 2.12012C16.4164 2.20682 16.6189 2.36624 16.7585 2.57541C16.8523 2.72404 16.9133 2.89091 16.9376 3.06493C16.9619 3.23895 16.9489 3.41615 16.8996 3.58478V3.58478Z"
        fill="white" />
    </symbol>
    <symbol id="sandbox-icon">
      <path
        d="M17.9687 5.53126H17.9609C17.8488 5.34108 17.6902 5.18249 17.5 5.07032L10.625 1.18751C10.4373 1.08354 10.2263 1.02899 10.0117 1.02899C9.79715 1.02899 9.58612 1.08354 9.39843 1.18751L2.52343 5.05469C2.32931 5.16437 2.1676 5.32338 2.05468 5.51563C2.05468 5.51666 2.05448 5.51767 2.05409 5.51862C2.05369 5.51957 2.05312 5.52043 2.05239 5.52116C2.05167 5.52188 2.05081 5.52246 2.04986 5.52285C2.04891 5.52324 2.04789 5.52344 2.04687 5.52344V5.53907C1.93749 5.72337 1.88074 5.93414 1.88281 6.14844V13.8516C1.8832 14.0743 1.94272 14.2929 2.05527 14.485C2.16783 14.6772 2.32938 14.836 2.52343 14.9453L9.39843 18.8125C9.57152 18.9069 9.76395 18.9604 9.96093 18.9688H10.0703C10.2646 18.9592 10.4543 18.9058 10.625 18.8125L17.5 14.9453C17.6921 14.8344 17.8516 14.675 17.9627 14.4831C18.0737 14.2911 18.1324 14.0733 18.1328 13.8516V6.14844C18.134 5.93179 18.0773 5.71875 17.9687 5.53126V5.53126ZM10.0078 2.28126L16.2422 5.78126L13.8437 7.14063L7.54687 3.66407L10.0078 2.28126ZM10.0781 9.28126L3.78906 5.78126L6.26562 4.39063L12.5703 7.86719L10.0781 9.28126ZM10.6406 17.3672L10.7031 10.3672L13.2109 8.93751V11.9141C13.2109 12.0798 13.2768 12.2388 13.394 12.356C13.5112 12.4732 13.6702 12.5391 13.8359 12.5391C14.0017 12.5391 14.1607 12.4732 14.2779 12.356C14.3951 12.2388 14.4609 12.0798 14.4609 11.9141V8.22657L16.8828 6.85157V13.8516L10.6406 17.3672Z"
        fill="white" />
    </symbol>

    <symbol id="notification" width="24" height="24" viewBox="0 0 24 24" fill="none" xmlns="http://www.w3.org/2000/svg">
      <path
        d="M20.7002 16.4906C20.147 15.5344 19.4814 13.7156 19.4814 10.5V9.83438C19.4814 5.68125 16.1533 2.27813 12.0564 2.25H12.0002C11.0165 2.25123 10.0427 2.4462 9.13435 2.82378C8.22601 3.20135 7.40094 3.75414 6.70624 4.45058C6.01154 5.14702 5.46082 5.97347 5.08552 6.88275C4.71022 7.79202 4.51769 8.76632 4.51892 9.75V10.5C4.51892 13.7156 3.8533 15.5344 3.30017 16.4906C3.1664 16.7185 3.0952 16.9777 3.09377 17.2419C3.09235 17.5061 3.16075 17.7661 3.29205 17.9954C3.42335 18.2247 3.6129 18.4152 3.84151 18.5477C4.07012 18.6803 4.32968 18.75 4.59392 18.75H8.25017C8.25017 19.7446 8.64526 20.6984 9.34852 21.4016C10.0518 22.1049 11.0056 22.5 12.0002 22.5C12.9947 22.5 13.9486 22.1049 14.6518 21.4016C15.3551 20.6984 15.7502 19.7446 15.7502 18.75H19.4064C19.6706 18.7517 19.9305 18.6831 20.1595 18.5513C20.3884 18.4196 20.5783 18.2293 20.7095 18C20.8397 17.7694 20.9073 17.5088 20.9056 17.2441C20.904 16.9793 20.8332 16.7196 20.7002 16.4906ZM12.0002 21C11.4042 20.9975 10.8333 20.7597 10.4119 20.3383C9.99048 19.9168 9.75264 19.346 9.75017 18.75H14.2502C14.2477 19.346 14.0099 19.9168 13.5884 20.3383C13.167 20.7597 12.5961 20.9975 12.0002 21Z"
        fill="#793AAF" />
    </symbol>

  </defs>
</svg>