<svg width="473" height="90" viewBox="0 0 473 90" fill="none" xmlns="http://www.w3.org/2000/svg">
<g filter="url(#filter0_b_1515_5893)">
<rect width="151" height="40" rx="6" fill="#F5F3FF" fill-opacity="0.4"/>
</g>
<path d="M31.4002 17H30.3052L27.4602 24H28.3752L29.1402 22.09H32.5352L33.3052 24H34.2502L31.4002 17ZM30.8402 17.87L32.2002 21.255H29.4752L30.8402 17.87ZM35.4188 17V24H38.0888C40.3488 24 41.7988 22.63 41.7988 20.5C41.7988 18.37 40.3488 17 38.0888 17H35.4188ZM38.0888 17.835C39.9238 17.835 40.8738 18.905 40.8738 20.5C40.8738 22.085 39.9238 23.165 38.0888 23.165H36.2988V17.835H38.0888ZM45.9123 20.98H43.1023V21.72H45.9123V20.98ZM47.2605 18.56C47.5955 18.11 48.0105 17.71 48.7905 17.71C49.6755 17.71 50.1855 18.305 50.1855 19.085C50.1855 19.66 49.9055 20.13 49.4855 20.57L46.8655 23.335V24H51.2905V23.195H48.1205L50.1305 21.06C50.5805 20.585 51.0705 19.96 51.0705 19.09C51.0705 17.835 50.2405 16.9 48.8105 16.9C47.6005 16.9 46.9805 17.58 46.6505 18.065L47.2605 18.56ZM54.3033 16.9C53.2633 16.9 52.5283 17.355 52.1283 17.96L52.7383 18.475C53.0383 18.055 53.5583 17.69 54.2483 17.69C55.0933 17.69 55.7483 18.145 55.7483 18.88C55.7483 19.68 55.0883 20.08 54.2533 20.08H53.3533V20.855H54.2533C55.1633 20.855 55.9033 21.295 55.9033 22.08C55.9033 22.915 55.1933 23.31 54.3483 23.31C53.6733 23.31 53.0383 23.04 52.6033 22.59L52.0633 23.16C52.5733 23.75 53.3733 24.1 54.3683 24.1C55.6083 24.1 56.7883 23.455 56.7883 22.115C56.7883 21.3 56.2933 20.745 55.5683 20.465C56.2083 20.185 56.6283 19.65 56.6283 18.84C56.6283 17.685 55.6933 16.9 54.3033 16.9ZM58.364 18.56C58.699 18.11 59.114 17.71 59.894 17.71C60.779 17.71 61.289 18.305 61.289 19.085C61.289 19.66 61.009 20.13 60.589 20.57L57.969 23.335V24H62.394V23.195H59.224L61.234 21.06C61.684 20.585 62.174 19.96 62.174 19.09C62.174 17.835 61.344 16.9 59.914 16.9C58.704 16.9 58.084 17.58 57.754 18.065L58.364 18.56ZM64.7168 17H63.8368V24H64.7168V17ZM67.4779 24H68.5129L70.5779 20.79C70.9279 20.245 71.1279 19.755 71.1279 19.19C71.1279 17.885 70.0579 16.9 68.6279 16.9C67.1929 16.9 66.1329 17.885 66.1329 19.19C66.1329 20.5 67.1829 21.48 68.4829 21.48C68.8279 21.48 69.0879 21.41 69.2829 21.32L67.4779 24ZM68.6279 20.695C67.6979 20.695 67.0079 20.07 67.0079 19.19C67.0079 18.315 67.6979 17.685 68.6279 17.685C69.5579 17.685 70.2529 18.31 70.2529 19.19C70.2529 20.07 69.5579 20.695 68.6279 20.695ZM75.7853 19.82H74.9403V21.755H72.7203L75.2803 17.01H74.3203L71.7053 21.905V22.555H74.9403V24H75.7853V22.555H76.9503V21.755H75.7853V19.82ZM78.237 18.56C78.572 18.11 78.987 17.71 79.767 17.71C80.652 17.71 81.162 18.305 81.162 19.085C81.162 19.66 80.882 20.13 80.462 20.57L77.842 23.335V24H82.267V23.195H79.097L81.107 21.06C81.557 20.585 82.047 19.96 82.047 19.09C82.047 17.835 81.217 16.9 79.787 16.9C78.577 16.9 77.957 17.58 77.627 18.065L78.237 18.56Z" fill="white"/>
<rect x="97" y="10" width="43" height="20" rx="3" fill="#4C1961"/>
<path d="M107.792 24V21.687H107.09V21.111H107.792V20.373H107.09V19.797H107.792V17.574H108.728L109.583 19.797H110.645V17.574H111.356V19.797H112.058V20.373H111.356V21.111H112.058V21.687H111.356V24H110.411L109.556 21.687H108.494V24H107.792ZM108.494 21.111H109.34L109.07 20.373H108.476L108.494 21.111ZM110.645 22.731H110.681L110.654 21.687H110.276L110.645 22.731ZM108.476 19.797H108.854L108.476 18.681H108.44L108.476 19.797ZM110.06 21.111H110.663L110.645 20.373H109.79L110.06 21.111ZM116.583 17.7H113.055L112.996 21.066H114.445C115.57 21.066 115.89 21.5745 115.89 22.119C115.89 22.659 115.507 23.181 114.693 23.181C114.13 23.181 113.527 22.911 113.154 22.47L112.506 23.1045C113.046 23.7705 113.784 24.1125 114.697 24.1125C115.876 24.1125 116.907 23.397 116.907 22.0335C116.907 21.048 116.223 20.1435 114.747 20.1435H113.919L113.95 18.6225H116.583V17.7ZM120.597 17.592C119.13 17.592 117.942 18.8115 117.942 20.85C117.942 22.884 119.13 24.108 120.597 24.108C122.059 24.108 123.256 22.884 123.256 20.85C123.256 18.8115 122.059 17.592 120.597 17.592ZM120.597 18.528C121.506 18.528 122.235 19.329 122.235 20.85C122.235 22.371 121.506 23.172 120.597 23.172C119.697 23.172 118.963 22.371 118.963 20.85C118.963 19.329 119.697 18.528 120.597 18.528ZM127.004 17.592C125.537 17.592 124.349 18.8115 124.349 20.85C124.349 22.884 125.537 24.108 127.004 24.108C128.467 24.108 129.664 22.884 129.664 20.85C129.664 18.8115 128.467 17.592 127.004 17.592ZM127.004 18.528C127.913 18.528 128.642 19.329 128.642 20.85C128.642 22.371 127.913 23.172 127.004 23.172C126.104 23.172 125.371 22.371 125.371 20.85C125.371 19.329 126.104 18.528 127.004 18.528Z" fill="white"/>
<circle cx="17" cy="20" r="5" fill="white"/>
<circle cx="17" cy="20" r="3.5" fill="#4C1961"/>
<g filter="url(#filter1_b_1515_5893)">
<rect y="50" width="151" height="40" rx="6" fill="#F5F3FF" fill-opacity="0.4"/>
</g>
<path d="M31.4002 67H30.3052L27.4602 74H28.3752L29.1402 72.09H32.5352L33.3052 74H34.2502L31.4002 67ZM30.8402 67.87L32.2002 71.255H29.4752L30.8402 67.87ZM35.4188 67V74H38.0888C40.3488 74 41.7988 72.63 41.7988 70.5C41.7988 68.37 40.3488 67 38.0888 67H35.4188ZM38.0888 67.835C39.9238 67.835 40.8738 68.905 40.8738 70.5C40.8738 72.085 39.9238 73.165 38.0888 73.165H36.2988V67.835H38.0888ZM45.9123 70.98H43.1023V71.72H45.9123V70.98ZM47.2605 68.56C47.5955 68.11 48.0105 67.71 48.7905 67.71C49.6755 67.71 50.1855 68.305 50.1855 69.085C50.1855 69.66 49.9055 70.13 49.4855 70.57L46.8655 73.335V74H51.2905V73.195H48.1205L50.1305 71.06C50.5805 70.585 51.0705 69.96 51.0705 69.09C51.0705 67.835 50.2405 66.9 48.8105 66.9C47.6005 66.9 46.9805 67.58 46.6505 68.065L47.2605 68.56ZM54.3033 66.9C53.2633 66.9 52.5283 67.355 52.1283 67.96L52.7383 68.475C53.0383 68.055 53.5583 67.69 54.2483 67.69C55.0933 67.69 55.7483 68.145 55.7483 68.88C55.7483 69.68 55.0883 70.08 54.2533 70.08H53.3533V70.855H54.2533C55.1633 70.855 55.9033 71.295 55.9033 72.08C55.9033 72.915 55.1933 73.31 54.3483 73.31C53.6733 73.31 53.0383 73.04 52.6033 72.59L52.0633 73.16C52.5733 73.75 53.3733 74.1 54.3683 74.1C55.6083 74.1 56.7883 73.455 56.7883 72.115C56.7883 71.3 56.2933 70.745 55.5683 70.465C56.2083 70.185 56.6283 69.65 56.6283 68.84C56.6283 67.685 55.6933 66.9 54.3033 66.9ZM58.364 68.56C58.699 68.11 59.114 67.71 59.894 67.71C60.779 67.71 61.289 68.305 61.289 69.085C61.289 69.66 61.009 70.13 60.589 70.57L57.969 73.335V74H62.394V73.195H59.224L61.234 71.06C61.684 70.585 62.174 69.96 62.174 69.09C62.174 67.835 61.344 66.9 59.914 66.9C58.704 66.9 58.084 67.58 57.754 68.065L58.364 68.56ZM64.7168 67H63.8368V74H64.7168V67ZM67.4779 74H68.5129L70.5779 70.79C70.9279 70.245 71.1279 69.755 71.1279 69.19C71.1279 67.885 70.0579 66.9 68.6279 66.9C67.1929 66.9 66.1329 67.885 66.1329 69.19C66.1329 70.5 67.1829 71.48 68.4829 71.48C68.8279 71.48 69.0879 71.41 69.2829 71.32L67.4779 74ZM68.6279 70.695C67.6979 70.695 67.0079 70.07 67.0079 69.19C67.0079 68.315 67.6979 67.685 68.6279 67.685C69.5579 67.685 70.2529 68.31 70.2529 69.19C70.2529 70.07 69.5579 70.695 68.6279 70.695ZM75.7853 69.82H74.9403V71.755H72.7203L75.2803 67.01H74.3203L71.7053 71.905V72.555H74.9403V74H75.7853V72.555H76.9503V71.755H75.7853V69.82ZM78.237 68.56C78.572 68.11 78.987 67.71 79.767 67.71C80.652 67.71 81.162 68.305 81.162 69.085C81.162 69.66 80.882 70.13 80.462 70.57L77.842 73.335V74H82.267V73.195H79.097L81.107 71.06C81.557 70.585 82.047 69.96 82.047 69.09C82.047 67.835 81.217 66.9 79.787 66.9C78.577 66.9 77.957 67.58 77.627 68.065L78.237 68.56Z" fill="white"/>
<rect x="97" y="60" width="43" height="20" rx="3" fill="#4C1961"/>
<path d="M107.792 74V71.687H107.09V71.111H107.792V70.373H107.09V69.797H107.792V67.574H108.728L109.583 69.797H110.645V67.574H111.356V69.797H112.058V70.373H111.356V71.111H112.058V71.687H111.356V74H110.411L109.556 71.687H108.494V74H107.792ZM108.494 71.111H109.34L109.07 70.373H108.476L108.494 71.111ZM110.645 72.731H110.681L110.654 71.687H110.276L110.645 72.731ZM108.476 69.797H108.854L108.476 68.681H108.44L108.476 69.797ZM110.06 71.111H110.663L110.645 70.373H109.79L110.06 71.111ZM116.583 67.7H113.055L112.996 71.066H114.445C115.57 71.066 115.89 71.5745 115.89 72.119C115.89 72.659 115.507 73.181 114.693 73.181C114.13 73.181 113.527 72.911 113.154 72.47L112.506 73.1045C113.046 73.7705 113.784 74.1125 114.697 74.1125C115.876 74.1125 116.907 73.397 116.907 72.0335C116.907 71.048 116.223 70.1435 114.747 70.1435H113.919L113.95 68.6225H116.583V67.7ZM120.597 67.592C119.13 67.592 117.942 68.8115 117.942 70.85C117.942 72.884 119.13 74.108 120.597 74.108C122.059 74.108 123.256 72.884 123.256 70.85C123.256 68.8115 122.059 67.592 120.597 67.592ZM120.597 68.528C121.506 68.528 122.235 69.329 122.235 70.85C122.235 72.371 121.506 73.172 120.597 73.172C119.697 73.172 118.963 72.371 118.963 70.85C118.963 69.329 119.697 68.528 120.597 68.528ZM127.004 67.592C125.537 67.592 124.349 68.8115 124.349 70.85C124.349 72.884 125.537 74.108 127.004 74.108C128.467 74.108 129.664 72.884 129.664 70.85C129.664 68.8115 128.467 67.592 127.004 67.592ZM127.004 68.528C127.913 68.528 128.642 69.329 128.642 70.85C128.642 72.371 127.913 73.172 127.004 73.172C126.104 73.172 125.371 72.371 125.371 70.85C125.371 69.329 126.104 68.528 127.004 68.528Z" fill="white"/>
<circle cx="17" cy="70" r="5" fill="white"/>
<circle cx="17" cy="70" r="3.5" fill="#4C1961"/>
<g filter="url(#filter2_b_1515_5893)">
<rect x="161" width="151" height="40" rx="6" fill="#F5F3FF" fill-opacity="0.4"/>
</g>
<path d="M192.4 17H191.305L188.46 24H189.375L190.14 22.09H193.535L194.305 24H195.25L192.4 17ZM191.84 17.87L193.2 21.255H190.475L191.84 17.87ZM196.419 17V24H199.089C201.349 24 202.799 22.63 202.799 20.5C202.799 18.37 201.349 17 199.089 17H196.419ZM199.089 17.835C200.924 17.835 201.874 18.905 201.874 20.5C201.874 22.085 200.924 23.165 199.089 23.165H197.299V17.835H199.089ZM206.912 20.98H204.102V21.72H206.912V20.98ZM208.26 18.56C208.595 18.11 209.01 17.71 209.79 17.71C210.675 17.71 211.185 18.305 211.185 19.085C211.185 19.66 210.905 20.13 210.485 20.57L207.865 23.335V24H212.29V23.195H209.12L211.13 21.06C211.58 20.585 212.07 19.96 212.07 19.09C212.07 17.835 211.24 16.9 209.81 16.9C208.6 16.9 207.98 17.58 207.65 18.065L208.26 18.56ZM215.303 16.9C214.263 16.9 213.528 17.355 213.128 17.96L213.738 18.475C214.038 18.055 214.558 17.69 215.248 17.69C216.093 17.69 216.748 18.145 216.748 18.88C216.748 19.68 216.088 20.08 215.253 20.08H214.353V20.855H215.253C216.163 20.855 216.903 21.295 216.903 22.08C216.903 22.915 216.193 23.31 215.348 23.31C214.673 23.31 214.038 23.04 213.603 22.59L213.063 23.16C213.573 23.75 214.373 24.1 215.368 24.1C216.608 24.1 217.788 23.455 217.788 22.115C217.788 21.3 217.293 20.745 216.568 20.465C217.208 20.185 217.628 19.65 217.628 18.84C217.628 17.685 216.693 16.9 215.303 16.9ZM219.364 18.56C219.699 18.11 220.114 17.71 220.894 17.71C221.779 17.71 222.289 18.305 222.289 19.085C222.289 19.66 222.009 20.13 221.589 20.57L218.969 23.335V24H223.394V23.195H220.224L222.234 21.06C222.684 20.585 223.174 19.96 223.174 19.09C223.174 17.835 222.344 16.9 220.914 16.9C219.704 16.9 219.084 17.58 218.754 18.065L219.364 18.56ZM225.717 17H224.837V24H225.717V17ZM228.478 24H229.513L231.578 20.79C231.928 20.245 232.128 19.755 232.128 19.19C232.128 17.885 231.058 16.9 229.628 16.9C228.193 16.9 227.133 17.885 227.133 19.19C227.133 20.5 228.183 21.48 229.483 21.48C229.828 21.48 230.088 21.41 230.283 21.32L228.478 24ZM229.628 20.695C228.698 20.695 228.008 20.07 228.008 19.19C228.008 18.315 228.698 17.685 229.628 17.685C230.558 17.685 231.253 18.31 231.253 19.19C231.253 20.07 230.558 20.695 229.628 20.695ZM236.785 19.82H235.94V21.755H233.72L236.28 17.01H235.32L232.705 21.905V22.555H235.94V24H236.785V22.555H237.95V21.755H236.785V19.82ZM239.237 18.56C239.572 18.11 239.987 17.71 240.767 17.71C241.652 17.71 242.162 18.305 242.162 19.085C242.162 19.66 241.882 20.13 241.462 20.57L238.842 23.335V24H243.267V23.195H240.097L242.107 21.06C242.557 20.585 243.047 19.96 243.047 19.09C243.047 17.835 242.217 16.9 240.787 16.9C239.577 16.9 238.957 17.58 238.627 18.065L239.237 18.56Z" fill="white"/>
<rect x="258" y="10" width="43" height="20" rx="3" fill="#4C1961"/>
<path d="M268.792 24V21.687H268.09V21.111H268.792V20.373H268.09V19.797H268.792V17.574H269.728L270.583 19.797H271.645V17.574H272.356V19.797H273.058V20.373H272.356V21.111H273.058V21.687H272.356V24H271.411L270.556 21.687H269.494V24H268.792ZM269.494 21.111H270.34L270.07 20.373H269.476L269.494 21.111ZM271.645 22.731H271.681L271.654 21.687H271.276L271.645 22.731ZM269.476 19.797H269.854L269.476 18.681H269.44L269.476 19.797ZM271.06 21.111H271.663L271.645 20.373H270.79L271.06 21.111ZM277.583 17.7H274.055L273.996 21.066H275.445C276.57 21.066 276.89 21.5745 276.89 22.119C276.89 22.659 276.507 23.181 275.693 23.181C275.13 23.181 274.527 22.911 274.154 22.47L273.506 23.1045C274.046 23.7705 274.784 24.1125 275.697 24.1125C276.876 24.1125 277.907 23.397 277.907 22.0335C277.907 21.048 277.223 20.1435 275.747 20.1435H274.919L274.95 18.6225H277.583V17.7ZM281.597 17.592C280.13 17.592 278.942 18.8115 278.942 20.85C278.942 22.884 280.13 24.108 281.597 24.108C283.059 24.108 284.256 22.884 284.256 20.85C284.256 18.8115 283.059 17.592 281.597 17.592ZM281.597 18.528C282.506 18.528 283.235 19.329 283.235 20.85C283.235 22.371 282.506 23.172 281.597 23.172C280.697 23.172 279.963 22.371 279.963 20.85C279.963 19.329 280.697 18.528 281.597 18.528ZM288.004 17.592C286.537 17.592 285.349 18.8115 285.349 20.85C285.349 22.884 286.537 24.108 288.004 24.108C289.467 24.108 290.664 22.884 290.664 20.85C290.664 18.8115 289.467 17.592 288.004 17.592ZM288.004 18.528C288.913 18.528 289.642 19.329 289.642 20.85C289.642 22.371 288.913 23.172 288.004 23.172C287.104 23.172 286.371 22.371 286.371 20.85C286.371 19.329 287.104 18.528 288.004 18.528Z" fill="white"/>
<circle cx="178" cy="20" r="5" fill="white"/>
<circle cx="178" cy="20" r="3.5" fill="#4C1961"/>
<g filter="url(#filter3_b_1515_5893)">
<rect x="160" y="50" width="151" height="40" rx="6" fill="#F5F3FF" fill-opacity="0.4"/>
</g>
<path d="M191.4 67H190.305L187.46 74H188.375L189.14 72.09H192.535L193.305 74H194.25L191.4 67ZM190.84 67.87L192.2 71.255H189.475L190.84 67.87ZM195.419 67V74H198.089C200.349 74 201.799 72.63 201.799 70.5C201.799 68.37 200.349 67 198.089 67H195.419ZM198.089 67.835C199.924 67.835 200.874 68.905 200.874 70.5C200.874 72.085 199.924 73.165 198.089 73.165H196.299V67.835H198.089ZM205.912 70.98H203.102V71.72H205.912V70.98ZM207.26 68.56C207.595 68.11 208.01 67.71 208.79 67.71C209.675 67.71 210.185 68.305 210.185 69.085C210.185 69.66 209.905 70.13 209.485 70.57L206.865 73.335V74H211.29V73.195H208.12L210.13 71.06C210.58 70.585 211.07 69.96 211.07 69.09C211.07 67.835 210.24 66.9 208.81 66.9C207.6 66.9 206.98 67.58 206.65 68.065L207.26 68.56ZM214.303 66.9C213.263 66.9 212.528 67.355 212.128 67.96L212.738 68.475C213.038 68.055 213.558 67.69 214.248 67.69C215.093 67.69 215.748 68.145 215.748 68.88C215.748 69.68 215.088 70.08 214.253 70.08H213.353V70.855H214.253C215.163 70.855 215.903 71.295 215.903 72.08C215.903 72.915 215.193 73.31 214.348 73.31C213.673 73.31 213.038 73.04 212.603 72.59L212.063 73.16C212.573 73.75 213.373 74.1 214.368 74.1C215.608 74.1 216.788 73.455 216.788 72.115C216.788 71.3 216.293 70.745 215.568 70.465C216.208 70.185 216.628 69.65 216.628 68.84C216.628 67.685 215.693 66.9 214.303 66.9ZM218.364 68.56C218.699 68.11 219.114 67.71 219.894 67.71C220.779 67.71 221.289 68.305 221.289 69.085C221.289 69.66 221.009 70.13 220.589 70.57L217.969 73.335V74H222.394V73.195H219.224L221.234 71.06C221.684 70.585 222.174 69.96 222.174 69.09C222.174 67.835 221.344 66.9 219.914 66.9C218.704 66.9 218.084 67.58 217.754 68.065L218.364 68.56ZM224.717 67H223.837V74H224.717V67ZM227.478 74H228.513L230.578 70.79C230.928 70.245 231.128 69.755 231.128 69.19C231.128 67.885 230.058 66.9 228.628 66.9C227.193 66.9 226.133 67.885 226.133 69.19C226.133 70.5 227.183 71.48 228.483 71.48C228.828 71.48 229.088 71.41 229.283 71.32L227.478 74ZM228.628 70.695C227.698 70.695 227.008 70.07 227.008 69.19C227.008 68.315 227.698 67.685 228.628 67.685C229.558 67.685 230.253 68.31 230.253 69.19C230.253 70.07 229.558 70.695 228.628 70.695ZM235.785 69.82H234.94V71.755H232.72L235.28 67.01H234.32L231.705 71.905V72.555H234.94V74H235.785V72.555H236.95V71.755H235.785V69.82ZM238.237 68.56C238.572 68.11 238.987 67.71 239.767 67.71C240.652 67.71 241.162 68.305 241.162 69.085C241.162 69.66 240.882 70.13 240.462 70.57L237.842 73.335V74H242.267V73.195H239.097L241.107 71.06C241.557 70.585 242.047 69.96 242.047 69.09C242.047 67.835 241.217 66.9 239.787 66.9C238.577 66.9 237.957 67.58 237.627 68.065L238.237 68.56Z" fill="white"/>
<rect x="257" y="60" width="43" height="20" rx="3" fill="#4C1961"/>
<path d="M267.792 74V71.687H267.09V71.111H267.792V70.373H267.09V69.797H267.792V67.574H268.728L269.583 69.797H270.645V67.574H271.356V69.797H272.058V70.373H271.356V71.111H272.058V71.687H271.356V74H270.411L269.556 71.687H268.494V74H267.792ZM268.494 71.111H269.34L269.07 70.373H268.476L268.494 71.111ZM270.645 72.731H270.681L270.654 71.687H270.276L270.645 72.731ZM268.476 69.797H268.854L268.476 68.681H268.44L268.476 69.797ZM270.06 71.111H270.663L270.645 70.373H269.79L270.06 71.111ZM276.583 67.7H273.055L272.996 71.066H274.445C275.57 71.066 275.89 71.5745 275.89 72.119C275.89 72.659 275.507 73.181 274.693 73.181C274.13 73.181 273.527 72.911 273.154 72.47L272.506 73.1045C273.046 73.7705 273.784 74.1125 274.697 74.1125C275.876 74.1125 276.907 73.397 276.907 72.0335C276.907 71.048 276.223 70.1435 274.747 70.1435H273.919L273.95 68.6225H276.583V67.7ZM280.597 67.592C279.13 67.592 277.942 68.8115 277.942 70.85C277.942 72.884 279.13 74.108 280.597 74.108C282.059 74.108 283.256 72.884 283.256 70.85C283.256 68.8115 282.059 67.592 280.597 67.592ZM280.597 68.528C281.506 68.528 282.235 69.329 282.235 70.85C282.235 72.371 281.506 73.172 280.597 73.172C279.697 73.172 278.963 72.371 278.963 70.85C278.963 69.329 279.697 68.528 280.597 68.528ZM287.004 67.592C285.537 67.592 284.349 68.8115 284.349 70.85C284.349 72.884 285.537 74.108 287.004 74.108C288.467 74.108 289.664 72.884 289.664 70.85C289.664 68.8115 288.467 67.592 287.004 67.592ZM287.004 68.528C287.913 68.528 288.642 69.329 288.642 70.85C288.642 72.371 287.913 73.172 287.004 73.172C286.104 73.172 285.371 72.371 285.371 70.85C285.371 69.329 286.104 68.528 287.004 68.528Z" fill="white"/>
<circle cx="177" cy="70" r="5" fill="white"/>
<circle cx="177" cy="70" r="3.5" fill="#4C1961"/>
<g filter="url(#filter4_b_1515_5893)">
<rect x="322" width="151" height="40" rx="6" fill="#F5F3FF" fill-opacity="0.4"/>
</g>
<path d="M353.4 17H352.305L349.46 24H350.375L351.14 22.09H354.535L355.305 24H356.25L353.4 17ZM352.84 17.87L354.2 21.255H351.475L352.84 17.87ZM357.419 17V24H360.089C362.349 24 363.799 22.63 363.799 20.5C363.799 18.37 362.349 17 360.089 17H357.419ZM360.089 17.835C361.924 17.835 362.874 18.905 362.874 20.5C362.874 22.085 361.924 23.165 360.089 23.165H358.299V17.835H360.089ZM367.912 20.98H365.102V21.72H367.912V20.98ZM369.26 18.56C369.595 18.11 370.01 17.71 370.79 17.71C371.675 17.71 372.185 18.305 372.185 19.085C372.185 19.66 371.905 20.13 371.485 20.57L368.865 23.335V24H373.29V23.195H370.12L372.13 21.06C372.58 20.585 373.07 19.96 373.07 19.09C373.07 17.835 372.24 16.9 370.81 16.9C369.6 16.9 368.98 17.58 368.65 18.065L369.26 18.56ZM376.303 16.9C375.263 16.9 374.528 17.355 374.128 17.96L374.738 18.475C375.038 18.055 375.558 17.69 376.248 17.69C377.093 17.69 377.748 18.145 377.748 18.88C377.748 19.68 377.088 20.08 376.253 20.08H375.353V20.855H376.253C377.163 20.855 377.903 21.295 377.903 22.08C377.903 22.915 377.193 23.31 376.348 23.31C375.673 23.31 375.038 23.04 374.603 22.59L374.063 23.16C374.573 23.75 375.373 24.1 376.368 24.1C377.608 24.1 378.788 23.455 378.788 22.115C378.788 21.3 378.293 20.745 377.568 20.465C378.208 20.185 378.628 19.65 378.628 18.84C378.628 17.685 377.693 16.9 376.303 16.9ZM380.364 18.56C380.699 18.11 381.114 17.71 381.894 17.71C382.779 17.71 383.289 18.305 383.289 19.085C383.289 19.66 383.009 20.13 382.589 20.57L379.969 23.335V24H384.394V23.195H381.224L383.234 21.06C383.684 20.585 384.174 19.96 384.174 19.09C384.174 17.835 383.344 16.9 381.914 16.9C380.704 16.9 380.084 17.58 379.754 18.065L380.364 18.56ZM386.717 17H385.837V24H386.717V17ZM389.478 24H390.513L392.578 20.79C392.928 20.245 393.128 19.755 393.128 19.19C393.128 17.885 392.058 16.9 390.628 16.9C389.193 16.9 388.133 17.885 388.133 19.19C388.133 20.5 389.183 21.48 390.483 21.48C390.828 21.48 391.088 21.41 391.283 21.32L389.478 24ZM390.628 20.695C389.698 20.695 389.008 20.07 389.008 19.19C389.008 18.315 389.698 17.685 390.628 17.685C391.558 17.685 392.253 18.31 392.253 19.19C392.253 20.07 391.558 20.695 390.628 20.695ZM397.785 19.82H396.94V21.755H394.72L397.28 17.01H396.32L393.705 21.905V22.555H396.94V24H397.785V22.555H398.95V21.755H397.785V19.82ZM400.237 18.56C400.572 18.11 400.987 17.71 401.767 17.71C402.652 17.71 403.162 18.305 403.162 19.085C403.162 19.66 402.882 20.13 402.462 20.57L399.842 23.335V24H404.267V23.195H401.097L403.107 21.06C403.557 20.585 404.047 19.96 404.047 19.09C404.047 17.835 403.217 16.9 401.787 16.9C400.577 16.9 399.957 17.58 399.627 18.065L400.237 18.56Z" fill="white"/>
<rect x="419" y="10" width="43" height="20" rx="3" fill="#4C1961"/>
<path d="M429.792 24V21.687H429.09V21.111H429.792V20.373H429.09V19.797H429.792V17.574H430.728L431.583 19.797H432.645V17.574H433.356V19.797H434.058V20.373H433.356V21.111H434.058V21.687H433.356V24H432.411L431.556 21.687H430.494V24H429.792ZM430.494 21.111H431.34L431.07 20.373H430.476L430.494 21.111ZM432.645 22.731H432.681L432.654 21.687H432.276L432.645 22.731ZM430.476 19.797H430.854L430.476 18.681H430.44L430.476 19.797ZM432.06 21.111H432.663L432.645 20.373H431.79L432.06 21.111ZM438.583 17.7H435.055L434.996 21.066H436.445C437.57 21.066 437.89 21.5745 437.89 22.119C437.89 22.659 437.507 23.181 436.693 23.181C436.13 23.181 435.527 22.911 435.154 22.47L434.506 23.1045C435.046 23.7705 435.784 24.1125 436.697 24.1125C437.876 24.1125 438.907 23.397 438.907 22.0335C438.907 21.048 438.223 20.1435 436.747 20.1435H435.919L435.95 18.6225H438.583V17.7ZM442.597 17.592C441.13 17.592 439.942 18.8115 439.942 20.85C439.942 22.884 441.13 24.108 442.597 24.108C444.059 24.108 445.256 22.884 445.256 20.85C445.256 18.8115 444.059 17.592 442.597 17.592ZM442.597 18.528C443.506 18.528 444.235 19.329 444.235 20.85C444.235 22.371 443.506 23.172 442.597 23.172C441.697 23.172 440.963 22.371 440.963 20.85C440.963 19.329 441.697 18.528 442.597 18.528ZM449.004 17.592C447.537 17.592 446.349 18.8115 446.349 20.85C446.349 22.884 447.537 24.108 449.004 24.108C450.467 24.108 451.664 22.884 451.664 20.85C451.664 18.8115 450.467 17.592 449.004 17.592ZM449.004 18.528C449.913 18.528 450.642 19.329 450.642 20.85C450.642 22.371 449.913 23.172 449.004 23.172C448.104 23.172 447.371 22.371 447.371 20.85C447.371 19.329 448.104 18.528 449.004 18.528Z" fill="white"/>
<circle cx="339" cy="20" r="5" fill="white"/>
<circle cx="339" cy="20" r="3.5" fill="#4C1961"/>
<defs>
<filter id="filter0_b_1515_5893" x="-134" y="-134" width="419" height="308" filterUnits="userSpaceOnUse" color-interpolation-filters="sRGB">
<feFlood flood-opacity="0" result="BackgroundImageFix"/>
<feGaussianBlur in="BackgroundImageFix" stdDeviation="67"/>
<feComposite in2="SourceAlpha" operator="in" result="effect1_backgroundBlur_1515_5893"/>
<feBlend mode="normal" in="SourceGraphic" in2="effect1_backgroundBlur_1515_5893" result="shape"/>
</filter>
<filter id="filter1_b_1515_5893" x="-134" y="-84" width="419" height="308" filterUnits="userSpaceOnUse" color-interpolation-filters="sRGB">
<feFlood flood-opacity="0" result="BackgroundImageFix"/>
<feGaussianBlur in="BackgroundImageFix" stdDeviation="67"/>
<feComposite in2="SourceAlpha" operator="in" result="effect1_backgroundBlur_1515_5893"/>
<feBlend mode="normal" in="SourceGraphic" in2="effect1_backgroundBlur_1515_5893" result="shape"/>
</filter>
<filter id="filter2_b_1515_5893" x="27" y="-134" width="419" height="308" filterUnits="userSpaceOnUse" color-interpolation-filters="sRGB">
<feFlood flood-opacity="0" result="BackgroundImageFix"/>
<feGaussianBlur in="BackgroundImageFix" stdDeviation="67"/>
<feComposite in2="SourceAlpha" operator="in" result="effect1_backgroundBlur_1515_5893"/>
<feBlend mode="normal" in="SourceGraphic" in2="effect1_backgroundBlur_1515_5893" result="shape"/>
</filter>
<filter id="filter3_b_1515_5893" x="26" y="-84" width="419" height="308" filterUnits="userSpaceOnUse" color-interpolation-filters="sRGB">
<feFlood flood-opacity="0" result="BackgroundImageFix"/>
<feGaussianBlur in="BackgroundImageFix" stdDeviation="67"/>
<feComposite in2="SourceAlpha" operator="in" result="effect1_backgroundBlur_1515_5893"/>
<feBlend mode="normal" in="SourceGraphic" in2="effect1_backgroundBlur_1515_5893" result="shape"/>
</filter>
<filter id="filter4_b_1515_5893" x="188" y="-134" width="419" height="308" filterUnits="userSpaceOnUse" color-interpolation-filters="sRGB">
<feFlood flood-opacity="0" result="BackgroundImageFix"/>
<feGaussianBlur in="BackgroundImageFix" stdDeviation="67"/>
<feComposite in2="SourceAlpha" operator="in" result="effect1_backgroundBlur_1515_5893"/>
<feBlend mode="normal" in="SourceGraphic" in2="effect1_backgroundBlur_1515_5893" result="shape"/>
</filter>
</defs>
</svg>
