<svg width="27" height="24" viewBox="0 0 27 24" fill="none" xmlns="http://www.w3.org/2000/svg">
<rect x="0.25" y="0.25" width="26.2453" height="23.5" rx="4.75" stroke="white" stroke-width="0.5" stroke-dasharray="9 9"/>
<path d="M13.28 6C14.9724 6 16.5048 6.67154 17.6138 7.75737C18.723 8.8432 19.409 10.3432 19.409 11.9999C19.409 13.6567 18.723 15.1568 17.6138 16.2425C16.5046 17.3283 14.9724 17.9999 13.28 17.9999C11.5876 17.9999 10.0552 17.3283 8.94607 16.2425C7.83687 15.1567 7.15088 13.6567 7.15088 11.9999C7.15088 10.3432 7.83687 8.84308 8.94607 7.75737C10.0553 6.67154 11.5876 6 13.28 6ZM17.343 8.02254C16.3032 7.00469 14.8666 6.375 13.28 6.375C11.6932 6.375 10.2565 7.00457 9.21692 8.02254C8.17716 9.0404 7.53392 10.4468 7.53392 12C7.53392 13.5533 8.17704 14.9597 9.21692 15.9774C10.2567 16.9953 11.6933 17.6249 13.28 17.6249C14.8667 17.6249 16.3034 16.9954 17.343 15.9774C18.3828 14.9595 19.026 13.5532 19.026 12C19.026 10.4466 18.3829 9.04026 17.343 8.02254Z" fill="white"/>
<path d="M16.1066 9.49978C16.1813 9.42656 16.1813 9.30781 16.1066 9.2346C16.0318 9.16139 15.9105 9.16138 15.8357 9.2346L13.2801 11.7364L10.7244 9.2346C10.6496 9.16138 10.5283 9.16138 10.4536 9.2346C10.3788 9.30781 10.3788 9.42656 10.4536 9.49978L13.0092 12.0015L10.4536 14.5033C10.3788 14.5765 10.3788 14.6953 10.4536 14.7685C10.5283 14.8417 10.6497 14.8417 10.7244 14.7685L13.2801 12.2667L15.8357 14.7685C15.9105 14.8417 16.0318 14.8417 16.1066 14.7685C16.1813 14.6953 16.1813 14.5765 16.1066 14.5033L13.5509 12.0015L16.1066 9.49978Z" fill="white"/>
</svg>
