<svg width="179" height="88" viewBox="0 0 179 88" fill="none" xmlns="http://www.w3.org/2000/svg">
<g filter="url(#filter0_ii_8516_36113)">
<circle cx="89.3999" cy="15" r="15" fill="url(#paint0_linear_8516_36113)"/>
<path d="M95.6333 6.10156L96.8791 5.4146L98.2868 7.03683L97.88 8.58548L95.6333 6.10156Z" fill="white" fill-opacity="0.5"/>
</g>
<path d="M84.97 18.6016V12.2016L85.67 12.9016H83.57V11.6016H86.59V18.6016H84.97ZM87.726 17.1316V16.0416L91.026 11.6016H92.726L89.496 16.0416L88.706 15.8116H94.216V17.1316H87.726ZM91.496 18.6016V17.1316L91.546 15.8116V14.5016H93.076V18.6016H91.496Z" fill="white"/>
<g filter="url(#filter1_ii_8516_36113)">
<circle cx="15" cy="15" r="15" fill="url(#paint1_linear_8516_36113)"/>
<path d="M21.2334 6.09375L22.4792 5.40679L23.8869 7.02902L23.4801 8.57766L21.2334 6.09375Z" fill="white" fill-opacity="0.5"/>
</g>
<path d="M11.2601 19.3231C10.7734 19.3231 10.2901 19.2598 9.8101 19.1331C9.3301 18.9998 8.92343 18.8131 8.5901 18.5731L9.2201 17.3331C9.48676 17.5265 9.79676 17.6798 10.1501 17.7931C10.5034 17.9065 10.8601 17.9631 11.2201 17.9631C11.6268 17.9631 11.9468 17.8831 12.1801 17.7231C12.4134 17.5631 12.5301 17.3431 12.5301 17.0631C12.5301 16.7965 12.4268 16.5865 12.2201 16.4331C12.0134 16.2798 11.6801 16.2031 11.2201 16.2031H10.4801V15.1331L12.4301 12.9231L12.6101 13.5031H8.9401V12.2031H13.8401V13.2531L11.9001 15.4631L11.0801 14.9931H11.5501C12.4101 14.9931 13.0601 15.1865 13.5001 15.5731C13.9401 15.9598 14.1601 16.4565 14.1601 17.0631C14.1601 17.4565 14.0568 17.8265 13.8501 18.1731C13.6434 18.5131 13.3268 18.7898 12.9001 19.0031C12.4734 19.2165 11.9268 19.3231 11.2601 19.3231ZM17.1292 19.3231C16.6426 19.3231 16.1592 19.2598 15.6792 19.1331C15.1992 18.9998 14.7926 18.8131 14.4592 18.5731L15.0892 17.3331C15.3559 17.5265 15.6659 17.6798 16.0192 17.7931C16.3726 17.9065 16.7292 17.9631 17.0892 17.9631C17.4959 17.9631 17.8159 17.8831 18.0492 17.7231C18.2826 17.5631 18.3992 17.3431 18.3992 17.0631C18.3992 16.7965 18.2959 16.5865 18.0892 16.4331C17.8826 16.2798 17.5492 16.2031 17.0892 16.2031H16.3492V15.1331L18.2992 12.9231L18.4792 13.5031H14.8092V12.2031H19.7092V13.2531L17.7692 15.4631L16.9492 14.9931H17.4192C18.2792 14.9931 18.9292 15.1865 19.3692 15.5731C19.8092 15.9598 20.0292 16.4565 20.0292 17.0631C20.0292 17.4565 19.9259 17.8265 19.7192 18.1731C19.5126 18.5131 19.1959 18.7898 18.7692 19.0031C18.3426 19.2165 17.7959 19.3231 17.1292 19.3231Z" fill="white"/>
<g filter="url(#filter2_ii_8516_36113)">
<circle cx="126.6" cy="15" r="15" fill="url(#paint2_linear_8516_36113)"/>
<path d="M132.833 6.09375L134.079 5.40679L135.487 7.02902L135.08 8.57766L132.833 6.09375Z" fill="white" fill-opacity="0.5"/>
</g>
<path d="M122.96 18.7216C122.474 18.7216 121.99 18.6582 121.51 18.5316C121.03 18.3982 120.624 18.2116 120.29 17.9716L120.92 16.7316C121.187 16.9249 121.497 17.0782 121.85 17.1916C122.204 17.3049 122.56 17.3616 122.92 17.3616C123.327 17.3616 123.647 17.2816 123.88 17.1216C124.114 16.9616 124.23 16.7416 124.23 16.4616C124.23 16.1949 124.127 15.9849 123.92 15.8316C123.714 15.6782 123.38 15.6016 122.92 15.6016H122.18V14.5316L124.13 12.3216L124.31 12.9016H120.64V11.6016H125.54V12.6516L123.6 14.8616L122.78 14.3916H123.25C124.11 14.3916 124.76 14.5849 125.2 14.9716C125.64 15.3582 125.86 15.8549 125.86 16.4616C125.86 16.8549 125.757 17.2249 125.55 17.5716C125.344 17.9116 125.027 18.1882 124.6 18.4016C124.174 18.6149 123.627 18.7216 122.96 18.7216ZM129.068 11.4816C129.715 11.4816 130.272 11.6149 130.738 11.8816C131.205 12.1482 131.565 12.5382 131.818 13.0516C132.072 13.5582 132.198 14.1916 132.198 14.9516C132.198 15.7582 132.045 16.4416 131.738 17.0016C131.438 17.5616 131.022 17.9882 130.488 18.2816C129.955 18.5749 129.335 18.7216 128.628 18.7216C128.262 18.7216 127.908 18.6816 127.568 18.6016C127.228 18.5216 126.935 18.4016 126.688 18.2416L127.288 17.0516C127.482 17.1849 127.688 17.2782 127.908 17.3316C128.128 17.3782 128.358 17.4016 128.598 17.4016C129.198 17.4016 129.675 17.2182 130.028 16.8516C130.388 16.4849 130.568 15.9416 130.568 15.2216C130.568 15.1016 130.565 14.9682 130.558 14.8216C130.552 14.6749 130.535 14.5282 130.508 14.3816L130.948 14.8016C130.835 15.0616 130.675 15.2816 130.468 15.4616C130.262 15.6349 130.022 15.7682 129.748 15.8616C129.475 15.9482 129.168 15.9916 128.828 15.9916C128.382 15.9916 127.975 15.9016 127.608 15.7216C127.248 15.5416 126.958 15.2882 126.738 14.9616C126.525 14.6349 126.418 14.2516 126.418 13.8116C126.418 13.3316 126.535 12.9182 126.768 12.5716C127.008 12.2249 127.328 11.9582 127.728 11.7716C128.135 11.5782 128.582 11.4816 129.068 11.4816ZM129.168 12.6916C128.935 12.6916 128.732 12.7349 128.558 12.8216C128.385 12.9016 128.248 13.0216 128.148 13.1816C128.048 13.3349 127.998 13.5182 127.998 13.7316C127.998 14.0516 128.105 14.3082 128.318 14.5016C128.538 14.6882 128.828 14.7816 129.188 14.7816C129.422 14.7816 129.628 14.7382 129.808 14.6516C129.995 14.5582 130.138 14.4316 130.238 14.2716C130.338 14.1116 130.388 13.9316 130.388 13.7316C130.388 13.5316 130.338 13.3549 130.238 13.2016C130.145 13.0416 130.008 12.9182 129.828 12.8316C129.648 12.7382 129.428 12.6916 129.168 12.6916Z" fill="white"/>
<g filter="url(#filter3_ii_8516_36113)">
<circle cx="52.2002" cy="15" r="15" fill="url(#paint3_linear_8516_36113)"/>
<path d="M58.4336 6.09375L59.6794 5.40679L61.0871 7.02902L60.6803 8.57766L58.4336 6.09375Z" fill="white" fill-opacity="0.5"/>
</g>
<path d="M46.6303 18.6016V17.5516L49.3303 15.0016C49.5436 14.8082 49.7003 14.6349 49.8003 14.4816C49.9003 14.3282 49.967 14.1882 50.0003 14.0616C50.0403 13.9349 50.0603 13.8182 50.0603 13.7116C50.0603 13.4316 49.9636 13.2182 49.7703 13.0716C49.5836 12.9182 49.307 12.8416 48.9403 12.8416C48.647 12.8416 48.3736 12.8982 48.1203 13.0116C47.8736 13.1249 47.6636 13.3016 47.4903 13.5416L46.3103 12.7816C46.577 12.3816 46.9503 12.0649 47.4303 11.8316C47.9103 11.5982 48.4636 11.4816 49.0903 11.4816C49.6103 11.4816 50.0636 11.5682 50.4503 11.7416C50.8436 11.9082 51.147 12.1449 51.3603 12.4516C51.5803 12.7582 51.6903 13.1249 51.6903 13.5516C51.6903 13.7782 51.6603 14.0049 51.6003 14.2316C51.547 14.4516 51.4336 14.6849 51.2603 14.9316C51.0936 15.1782 50.847 15.4549 50.5203 15.7616L48.2803 17.8716L47.9703 17.2816H51.9203V18.6016H46.6303ZM52.4013 17.1316V16.0416L55.7013 11.6016H57.4013L54.1713 16.0416L53.3813 15.8116H58.8913V17.1316H52.4013ZM56.1713 18.6016V17.1316L56.2213 15.8116V14.5016H57.7513V18.6016H56.1713Z" fill="white"/>
<g filter="url(#filter4_ii_8516_36113)">
<circle cx="163.8" cy="15" r="15" fill="url(#paint4_linear_8516_36113)"/>
<path d="M170.033 6.09375L171.279 5.40679L172.687 7.02902L172.28 8.57766L170.033 6.09375Z" fill="white" fill-opacity="0.5"/>
</g>
<path d="M156.71 17.1316V16.0416L160.01 11.6016H161.71L158.48 16.0416L157.69 15.8116H163.2V17.1316H156.71ZM160.48 18.6016V17.1316L160.53 15.8116V14.5016H162.06V18.6016H160.48ZM166.682 18.7216C166.095 18.7216 165.582 18.6349 165.142 18.4616C164.702 18.2816 164.359 18.0316 164.112 17.7116C163.865 17.3849 163.742 17.0049 163.742 16.5716C163.742 16.1382 163.862 15.7716 164.102 15.4716C164.349 15.1649 164.692 14.9349 165.132 14.7816C165.572 14.6216 166.089 14.5416 166.682 14.5416C167.282 14.5416 167.802 14.6216 168.242 14.7816C168.689 14.9349 169.032 15.1649 169.272 15.4716C169.519 15.7716 169.642 16.1382 169.642 16.5716C169.642 17.0049 169.519 17.3849 169.272 17.7116C169.025 18.0316 168.679 18.2816 168.232 18.4616C167.792 18.6349 167.275 18.7216 166.682 18.7216ZM166.682 17.5316C167.089 17.5316 167.409 17.4416 167.642 17.2616C167.882 17.0816 168.002 16.8349 168.002 16.5216C168.002 16.2082 167.882 15.9649 167.642 15.7916C167.409 15.6116 167.089 15.5216 166.682 15.5216C166.282 15.5216 165.965 15.6116 165.732 15.7916C165.499 15.9649 165.382 16.2082 165.382 16.5216C165.382 16.8349 165.499 17.0816 165.732 17.2616C165.965 17.4416 166.282 17.5316 166.682 17.5316ZM166.682 15.3616C166.142 15.3616 165.669 15.2882 165.262 15.1416C164.862 14.9949 164.549 14.7816 164.322 14.5016C164.102 14.2149 163.992 13.8749 163.992 13.4816C163.992 13.0682 164.105 12.7149 164.332 12.4216C164.559 12.1216 164.875 11.8916 165.282 11.7316C165.689 11.5649 166.155 11.4816 166.682 11.4816C167.222 11.4816 167.692 11.5649 168.092 11.7316C168.499 11.8916 168.815 12.1216 169.042 12.4216C169.275 12.7149 169.392 13.0682 169.392 13.4816C169.392 13.8749 169.279 14.2149 169.052 14.5016C168.832 14.7816 168.519 14.9949 168.112 15.1416C167.705 15.2882 167.229 15.3616 166.682 15.3616ZM166.682 14.4116C167.022 14.4116 167.289 14.3349 167.482 14.1816C167.682 14.0282 167.782 13.8182 167.782 13.5516C167.782 13.2716 167.679 13.0549 167.472 12.9016C167.272 12.7482 167.009 12.6716 166.682 12.6716C166.362 12.6716 166.102 12.7482 165.902 12.9016C165.702 13.0549 165.602 13.2716 165.602 13.5516C165.602 13.8182 165.699 14.0282 165.892 14.1816C166.085 14.3349 166.349 14.4116 166.682 14.4116Z" fill="white"/>
<g filter="url(#filter5_ii_8516_36113)">
<circle cx="89.3999" cy="73" r="15" fill="url(#paint5_linear_8516_36113)"/>
<path d="M95.6333 64.1016L96.8791 63.4146L98.2868 65.0368L97.88 66.5855L95.6333 64.1016Z" fill="white" fill-opacity="0.5"/>
</g>
<path d="M84.97 76.6016V70.2016L85.67 70.9016H83.57V69.6016H86.59V76.6016H84.97ZM87.726 75.1316V74.0416L91.026 69.6016H92.726L89.496 74.0416L88.706 73.8116H94.216V75.1316H87.726ZM91.496 76.6016V75.1316L91.546 73.8116V72.5016H93.076V76.6016H91.496Z" fill="white"/>
<g filter="url(#filter6_ii_8516_36113)">
<circle cx="15" cy="73" r="15" fill="url(#paint6_linear_8516_36113)"/>
<path d="M21.2334 64.0938L22.4792 63.4068L23.8869 65.029L23.4801 66.5777L21.2334 64.0938Z" fill="white" fill-opacity="0.5"/>
</g>
<path d="M11.2601 77.3231C10.7734 77.3231 10.2901 77.2598 9.8101 77.1331C9.3301 76.9998 8.92343 76.8131 8.5901 76.5731L9.2201 75.3331C9.48676 75.5265 9.79676 75.6798 10.1501 75.7931C10.5034 75.9065 10.8601 75.9631 11.2201 75.9631C11.6268 75.9631 11.9468 75.8831 12.1801 75.7231C12.4134 75.5631 12.5301 75.3431 12.5301 75.0631C12.5301 74.7965 12.4268 74.5865 12.2201 74.4331C12.0134 74.2798 11.6801 74.2031 11.2201 74.2031H10.4801V73.1331L12.4301 70.9231L12.6101 71.5031H8.9401V70.2031H13.8401V71.2531L11.9001 73.4631L11.0801 72.9931H11.5501C12.4101 72.9931 13.0601 73.1865 13.5001 73.5731C13.9401 73.9598 14.1601 74.4565 14.1601 75.0631C14.1601 75.4565 14.0568 75.8265 13.8501 76.1731C13.6434 76.5131 13.3268 76.7898 12.9001 77.0031C12.4734 77.2165 11.9268 77.3231 11.2601 77.3231ZM17.1292 77.3231C16.6426 77.3231 16.1592 77.2598 15.6792 77.1331C15.1992 76.9998 14.7926 76.8131 14.4592 76.5731L15.0892 75.3331C15.3559 75.5265 15.6659 75.6798 16.0192 75.7931C16.3726 75.9065 16.7292 75.9631 17.0892 75.9631C17.4959 75.9631 17.8159 75.8831 18.0492 75.7231C18.2826 75.5631 18.3992 75.3431 18.3992 75.0631C18.3992 74.7965 18.2959 74.5865 18.0892 74.4331C17.8826 74.2798 17.5492 74.2031 17.0892 74.2031H16.3492V73.1331L18.2992 70.9231L18.4792 71.5031H14.8092V70.2031H19.7092V71.2531L17.7692 73.4631L16.9492 72.9931H17.4192C18.2792 72.9931 18.9292 73.1865 19.3692 73.5731C19.8092 73.9598 20.0292 74.4565 20.0292 75.0631C20.0292 75.4565 19.9259 75.8265 19.7192 76.1731C19.5126 76.5131 19.1959 76.7898 18.7692 77.0031C18.3426 77.2165 17.7959 77.3231 17.1292 77.3231Z" fill="white"/>
<g filter="url(#filter7_ii_8516_36113)">
<circle cx="126.6" cy="73" r="15" fill="url(#paint7_linear_8516_36113)"/>
<path d="M132.833 64.0938L134.079 63.4068L135.487 65.029L135.08 66.5777L132.833 64.0938Z" fill="white" fill-opacity="0.5"/>
</g>
<path d="M122.96 76.7216C122.474 76.7216 121.99 76.6582 121.51 76.5316C121.03 76.3982 120.624 76.2116 120.29 75.9716L120.92 74.7316C121.187 74.9249 121.497 75.0782 121.85 75.1916C122.204 75.3049 122.56 75.3616 122.92 75.3616C123.327 75.3616 123.647 75.2816 123.88 75.1216C124.114 74.9616 124.23 74.7416 124.23 74.4616C124.23 74.1949 124.127 73.9849 123.92 73.8316C123.714 73.6782 123.38 73.6016 122.92 73.6016H122.18V72.5316L124.13 70.3216L124.31 70.9016H120.64V69.6016H125.54V70.6516L123.6 72.8616L122.78 72.3916H123.25C124.11 72.3916 124.76 72.5849 125.2 72.9716C125.64 73.3582 125.86 73.8549 125.86 74.4616C125.86 74.8549 125.757 75.2249 125.55 75.5716C125.344 75.9116 125.027 76.1882 124.6 76.4016C124.174 76.6149 123.627 76.7216 122.96 76.7216ZM129.068 69.4816C129.715 69.4816 130.272 69.6149 130.738 69.8816C131.205 70.1482 131.565 70.5382 131.818 71.0516C132.072 71.5582 132.198 72.1916 132.198 72.9516C132.198 73.7582 132.045 74.4416 131.738 75.0016C131.438 75.5616 131.022 75.9882 130.488 76.2816C129.955 76.5749 129.335 76.7216 128.628 76.7216C128.262 76.7216 127.908 76.6816 127.568 76.6016C127.228 76.5216 126.935 76.4016 126.688 76.2416L127.288 75.0516C127.482 75.1849 127.688 75.2782 127.908 75.3316C128.128 75.3782 128.358 75.4016 128.598 75.4016C129.198 75.4016 129.675 75.2182 130.028 74.8516C130.388 74.4849 130.568 73.9416 130.568 73.2216C130.568 73.1016 130.565 72.9682 130.558 72.8216C130.552 72.6749 130.535 72.5282 130.508 72.3816L130.948 72.8016C130.835 73.0616 130.675 73.2816 130.468 73.4616C130.262 73.6349 130.022 73.7682 129.748 73.8616C129.475 73.9482 129.168 73.9916 128.828 73.9916C128.382 73.9916 127.975 73.9016 127.608 73.7216C127.248 73.5416 126.958 73.2882 126.738 72.9616C126.525 72.6349 126.418 72.2516 126.418 71.8116C126.418 71.3316 126.535 70.9182 126.768 70.5716C127.008 70.2249 127.328 69.9582 127.728 69.7716C128.135 69.5782 128.582 69.4816 129.068 69.4816ZM129.168 70.6916C128.935 70.6916 128.732 70.7349 128.558 70.8216C128.385 70.9016 128.248 71.0216 128.148 71.1816C128.048 71.3349 127.998 71.5182 127.998 71.7316C127.998 72.0516 128.105 72.3082 128.318 72.5016C128.538 72.6882 128.828 72.7816 129.188 72.7816C129.422 72.7816 129.628 72.7382 129.808 72.6516C129.995 72.5582 130.138 72.4316 130.238 72.2716C130.338 72.1116 130.388 71.9316 130.388 71.7316C130.388 71.5316 130.338 71.3549 130.238 71.2016C130.145 71.0416 130.008 70.9182 129.828 70.8316C129.648 70.7382 129.428 70.6916 129.168 70.6916Z" fill="white"/>
<g filter="url(#filter8_ii_8516_36113)">
<circle cx="52.2002" cy="73" r="15" fill="url(#paint8_linear_8516_36113)"/>
<path d="M58.4336 64.0938L59.6794 63.4068L61.0871 65.029L60.6803 66.5777L58.4336 64.0938Z" fill="white" fill-opacity="0.5"/>
</g>
<path d="M46.6303 76.6016V75.5516L49.3303 73.0016C49.5436 72.8082 49.7003 72.6349 49.8003 72.4816C49.9003 72.3282 49.967 72.1882 50.0003 72.0616C50.0403 71.9349 50.0603 71.8182 50.0603 71.7116C50.0603 71.4316 49.9636 71.2182 49.7703 71.0716C49.5836 70.9182 49.307 70.8416 48.9403 70.8416C48.647 70.8416 48.3736 70.8982 48.1203 71.0116C47.8736 71.1249 47.6636 71.3016 47.4903 71.5416L46.3103 70.7816C46.577 70.3816 46.9503 70.0649 47.4303 69.8316C47.9103 69.5982 48.4636 69.4816 49.0903 69.4816C49.6103 69.4816 50.0636 69.5682 50.4503 69.7416C50.8436 69.9082 51.147 70.1449 51.3603 70.4516C51.5803 70.7582 51.6903 71.1249 51.6903 71.5516C51.6903 71.7782 51.6603 72.0049 51.6003 72.2316C51.547 72.4516 51.4336 72.6849 51.2603 72.9316C51.0936 73.1782 50.847 73.4549 50.5203 73.7616L48.2803 75.8716L47.9703 75.2816H51.9203V76.6016H46.6303ZM52.4013 75.1316V74.0416L55.7013 69.6016H57.4013L54.1713 74.0416L53.3813 73.8116H58.8913V75.1316H52.4013ZM56.1713 76.6016V75.1316L56.2213 73.8116V72.5016H57.7513V76.6016H56.1713Z" fill="white"/>
<g filter="url(#filter9_ii_8516_36113)">
<circle cx="163.8" cy="73" r="15" fill="url(#paint9_linear_8516_36113)"/>
<path d="M170.033 64.0938L171.279 63.4068L172.687 65.029L172.28 66.5777L170.033 64.0938Z" fill="white" fill-opacity="0.5"/>
</g>
<path d="M156.71 75.1316V74.0416L160.01 69.6016H161.71L158.48 74.0416L157.69 73.8116H163.2V75.1316H156.71ZM160.48 76.6016V75.1316L160.53 73.8116V72.5016H162.06V76.6016H160.48ZM166.682 76.7216C166.095 76.7216 165.582 76.6349 165.142 76.4616C164.702 76.2816 164.359 76.0316 164.112 75.7116C163.865 75.3849 163.742 75.0049 163.742 74.5716C163.742 74.1382 163.862 73.7716 164.102 73.4716C164.349 73.1649 164.692 72.9349 165.132 72.7816C165.572 72.6216 166.089 72.5416 166.682 72.5416C167.282 72.5416 167.802 72.6216 168.242 72.7816C168.689 72.9349 169.032 73.1649 169.272 73.4716C169.519 73.7716 169.642 74.1382 169.642 74.5716C169.642 75.0049 169.519 75.3849 169.272 75.7116C169.025 76.0316 168.679 76.2816 168.232 76.4616C167.792 76.6349 167.275 76.7216 166.682 76.7216ZM166.682 75.5316C167.089 75.5316 167.409 75.4416 167.642 75.2616C167.882 75.0816 168.002 74.8349 168.002 74.5216C168.002 74.2082 167.882 73.9649 167.642 73.7916C167.409 73.6116 167.089 73.5216 166.682 73.5216C166.282 73.5216 165.965 73.6116 165.732 73.7916C165.499 73.9649 165.382 74.2082 165.382 74.5216C165.382 74.8349 165.499 75.0816 165.732 75.2616C165.965 75.4416 166.282 75.5316 166.682 75.5316ZM166.682 73.3616C166.142 73.3616 165.669 73.2882 165.262 73.1416C164.862 72.9949 164.549 72.7816 164.322 72.5016C164.102 72.2149 163.992 71.8749 163.992 71.4816C163.992 71.0682 164.105 70.7149 164.332 70.4216C164.559 70.1216 164.875 69.8916 165.282 69.7316C165.689 69.5649 166.155 69.4816 166.682 69.4816C167.222 69.4816 167.692 69.5649 168.092 69.7316C168.499 69.8916 168.815 70.1216 169.042 70.4216C169.275 70.7149 169.392 71.0682 169.392 71.4816C169.392 71.8749 169.279 72.2149 169.052 72.5016C168.832 72.7816 168.519 72.9949 168.112 73.1416C167.705 73.2882 167.229 73.3616 166.682 73.3616ZM166.682 72.4116C167.022 72.4116 167.289 72.3349 167.482 72.1816C167.682 72.0282 167.782 71.8182 167.782 71.5516C167.782 71.2716 167.679 71.0549 167.472 70.9016C167.272 70.7482 167.009 70.6716 166.682 70.6716C166.362 70.6716 166.102 70.7482 165.902 70.9016C165.702 71.0549 165.602 71.2716 165.602 71.5516C165.602 71.8182 165.699 72.0282 165.892 72.1816C166.085 72.3349 166.349 72.4116 166.682 72.4116Z" fill="white"/>
<path d="M7.58667 40.8483C7.1392 40.5369 6.51382 40.6331 6.19017 41.0632C5.86616 41.4929 5.96626 42.094 6.41373 42.4051C7.97238 43.4898 9.24746 45.1815 10.2934 47.4127C10.645 48.1629 11.7513 48.1692 12.1119 47.4227C14.1505 43.2061 17.1066 39.1304 20.6501 36.2147C21.0697 35.8695 21.1189 35.2627 20.7597 34.8595C20.4004 34.4562 19.7691 34.4093 19.3496 34.7546C16.0607 37.4607 13.2771 41.0588 11.1932 44.8727C10.1902 43.1887 9.00367 41.8341 7.58654 40.8479L7.58667 40.8483Z" fill="#01AE53"/>
<path d="M80.5867 40.8483C80.1392 40.5369 79.5138 40.6331 79.1902 41.0632C78.8662 41.4929 78.9663 42.094 79.4137 42.4051C80.9724 43.4898 82.2475 45.1815 83.2934 47.4127C83.645 48.1629 84.7513 48.1692 85.1119 47.4227C87.1505 43.2061 90.1066 39.1304 93.6501 36.2147C94.0697 35.8695 94.1189 35.2627 93.7597 34.8595C93.4004 34.4562 92.7691 34.4093 92.3496 34.7546C89.0607 37.4607 86.2771 41.0588 84.1932 44.8727C83.1902 43.1887 82.0037 41.8341 80.5865 40.8479L80.5867 40.8483Z" fill="#01AE53"/>
<path d="M157.587 43.7312C157.139 43.4197 156.514 43.5159 156.19 43.946C155.866 44.3758 155.966 44.9768 156.414 45.2879C157.972 46.3726 159.247 48.0643 160.293 50.2955C160.645 51.0457 161.751 51.052 162.112 50.3055C164.15 46.0889 167.107 42.0132 170.65 39.0975C171.07 38.7523 171.119 38.1455 170.76 37.7423C170.4 37.339 169.769 37.2921 169.35 37.6374C166.061 40.3435 163.277 43.9416 161.193 47.7555C160.19 46.0715 159.004 44.7169 157.587 43.7308L157.587 43.7312Z" fill="#01AE53"/>
<path d="M53.4348 42.6927L58.5991 37.7293C59.1336 37.2155 59.1336 36.3832 58.5991 35.8697C58.0646 35.3559 57.1986 35.3559 56.6643 35.8697L51.5 40.8329L46.3357 35.8697C45.8012 35.3559 44.9352 35.3559 44.4009 35.8697C43.8664 36.3834 43.8664 37.2157 44.4009 37.7293L49.5649 42.6927L44.4009 47.6559C43.8664 48.1696 43.8664 49.002 44.4009 49.5155C44.9354 50.0292 45.8014 50.0292 46.3357 49.5155L51.5 44.552L56.6643 49.5155C57.1988 50.0292 58.0648 50.0292 58.5991 49.5155C59.1336 49.0018 59.1336 48.1694 58.5991 47.6559L53.4348 42.6927Z" fill="#FF000F"/>
<path d="M127.435 42.6927L132.599 37.7293C133.134 37.2155 133.134 36.3832 132.599 35.8697C132.065 35.3559 131.199 35.3559 130.664 35.8697L125.5 40.8329L120.336 35.8697C119.801 35.3559 118.935 35.3559 118.401 35.8697C117.866 36.3834 117.866 37.2157 118.401 37.7293L123.565 42.6927L118.401 47.6559C117.866 48.1696 117.866 49.002 118.401 49.5155C118.935 50.0292 119.801 50.0292 120.336 49.5155L125.5 44.552L130.664 49.5155C131.199 50.0292 132.065 50.0292 132.599 49.5155C133.134 49.0018 133.134 48.1694 132.599 47.6559L127.435 42.6927Z" fill="#FF000F"/>
<defs>
<filter id="filter0_ii_8516_36113" x="49.3999" y="-25" width="67" height="67" filterUnits="userSpaceOnUse" color-interpolation-filters="sRGB">
<feFlood flood-opacity="0" result="BackgroundImageFix"/>
<feBlend mode="normal" in="SourceGraphic" in2="BackgroundImageFix" result="shape"/>
<feColorMatrix in="SourceAlpha" type="matrix" values="0 0 0 0 0 0 0 0 0 0 0 0 0 0 0 0 0 0 127 0" result="hardAlpha"/>
<feOffset dx="12" dy="12"/>
<feGaussianBlur stdDeviation="6"/>
<feComposite in2="hardAlpha" operator="arithmetic" k2="-1" k3="1"/>
<feColorMatrix type="matrix" values="0 0 0 0 1 0 0 0 0 1 0 0 0 0 1 0 0 0 0.12 0"/>
<feBlend mode="normal" in2="shape" result="effect1_innerShadow_8516_36113"/>
<feColorMatrix in="SourceAlpha" type="matrix" values="0 0 0 0 0 0 0 0 0 0 0 0 0 0 0 0 0 0 127 0" result="hardAlpha"/>
<feOffset dx="-25" dy="-25"/>
<feGaussianBlur stdDeviation="25"/>
<feComposite in2="hardAlpha" operator="arithmetic" k2="-1" k3="1"/>
<feColorMatrix type="matrix" values="0 0 0 0 1 0 0 0 0 1 0 0 0 0 1 0 0 0 0.12 0"/>
<feBlend mode="normal" in2="effect1_innerShadow_8516_36113" result="effect2_innerShadow_8516_36113"/>
</filter>
<filter id="filter1_ii_8516_36113" x="-25" y="-25" width="67" height="67" filterUnits="userSpaceOnUse" color-interpolation-filters="sRGB">
<feFlood flood-opacity="0" result="BackgroundImageFix"/>
<feBlend mode="normal" in="SourceGraphic" in2="BackgroundImageFix" result="shape"/>
<feColorMatrix in="SourceAlpha" type="matrix" values="0 0 0 0 0 0 0 0 0 0 0 0 0 0 0 0 0 0 127 0" result="hardAlpha"/>
<feOffset dx="12" dy="12"/>
<feGaussianBlur stdDeviation="6"/>
<feComposite in2="hardAlpha" operator="arithmetic" k2="-1" k3="1"/>
<feColorMatrix type="matrix" values="0 0 0 0 1 0 0 0 0 1 0 0 0 0 1 0 0 0 0.12 0"/>
<feBlend mode="normal" in2="shape" result="effect1_innerShadow_8516_36113"/>
<feColorMatrix in="SourceAlpha" type="matrix" values="0 0 0 0 0 0 0 0 0 0 0 0 0 0 0 0 0 0 127 0" result="hardAlpha"/>
<feOffset dx="-25" dy="-25"/>
<feGaussianBlur stdDeviation="25"/>
<feComposite in2="hardAlpha" operator="arithmetic" k2="-1" k3="1"/>
<feColorMatrix type="matrix" values="0 0 0 0 1 0 0 0 0 1 0 0 0 0 1 0 0 0 0.12 0"/>
<feBlend mode="normal" in2="effect1_innerShadow_8516_36113" result="effect2_innerShadow_8516_36113"/>
</filter>
<filter id="filter2_ii_8516_36113" x="86.6001" y="-25" width="67" height="67" filterUnits="userSpaceOnUse" color-interpolation-filters="sRGB">
<feFlood flood-opacity="0" result="BackgroundImageFix"/>
<feBlend mode="normal" in="SourceGraphic" in2="BackgroundImageFix" result="shape"/>
<feColorMatrix in="SourceAlpha" type="matrix" values="0 0 0 0 0 0 0 0 0 0 0 0 0 0 0 0 0 0 127 0" result="hardAlpha"/>
<feOffset dx="12" dy="12"/>
<feGaussianBlur stdDeviation="6"/>
<feComposite in2="hardAlpha" operator="arithmetic" k2="-1" k3="1"/>
<feColorMatrix type="matrix" values="0 0 0 0 1 0 0 0 0 1 0 0 0 0 1 0 0 0 0.12 0"/>
<feBlend mode="normal" in2="shape" result="effect1_innerShadow_8516_36113"/>
<feColorMatrix in="SourceAlpha" type="matrix" values="0 0 0 0 0 0 0 0 0 0 0 0 0 0 0 0 0 0 127 0" result="hardAlpha"/>
<feOffset dx="-25" dy="-25"/>
<feGaussianBlur stdDeviation="25"/>
<feComposite in2="hardAlpha" operator="arithmetic" k2="-1" k3="1"/>
<feColorMatrix type="matrix" values="0 0 0 0 1 0 0 0 0 1 0 0 0 0 1 0 0 0 0.12 0"/>
<feBlend mode="normal" in2="effect1_innerShadow_8516_36113" result="effect2_innerShadow_8516_36113"/>
</filter>
<filter id="filter3_ii_8516_36113" x="12.2002" y="-25" width="67" height="67" filterUnits="userSpaceOnUse" color-interpolation-filters="sRGB">
<feFlood flood-opacity="0" result="BackgroundImageFix"/>
<feBlend mode="normal" in="SourceGraphic" in2="BackgroundImageFix" result="shape"/>
<feColorMatrix in="SourceAlpha" type="matrix" values="0 0 0 0 0 0 0 0 0 0 0 0 0 0 0 0 0 0 127 0" result="hardAlpha"/>
<feOffset dx="12" dy="12"/>
<feGaussianBlur stdDeviation="6"/>
<feComposite in2="hardAlpha" operator="arithmetic" k2="-1" k3="1"/>
<feColorMatrix type="matrix" values="0 0 0 0 1 0 0 0 0 1 0 0 0 0 1 0 0 0 0.12 0"/>
<feBlend mode="normal" in2="shape" result="effect1_innerShadow_8516_36113"/>
<feColorMatrix in="SourceAlpha" type="matrix" values="0 0 0 0 0 0 0 0 0 0 0 0 0 0 0 0 0 0 127 0" result="hardAlpha"/>
<feOffset dx="-25" dy="-25"/>
<feGaussianBlur stdDeviation="25"/>
<feComposite in2="hardAlpha" operator="arithmetic" k2="-1" k3="1"/>
<feColorMatrix type="matrix" values="0 0 0 0 1 0 0 0 0 1 0 0 0 0 1 0 0 0 0.12 0"/>
<feBlend mode="normal" in2="effect1_innerShadow_8516_36113" result="effect2_innerShadow_8516_36113"/>
</filter>
<filter id="filter4_ii_8516_36113" x="123.8" y="-25" width="67" height="67" filterUnits="userSpaceOnUse" color-interpolation-filters="sRGB">
<feFlood flood-opacity="0" result="BackgroundImageFix"/>
<feBlend mode="normal" in="SourceGraphic" in2="BackgroundImageFix" result="shape"/>
<feColorMatrix in="SourceAlpha" type="matrix" values="0 0 0 0 0 0 0 0 0 0 0 0 0 0 0 0 0 0 127 0" result="hardAlpha"/>
<feOffset dx="12" dy="12"/>
<feGaussianBlur stdDeviation="6"/>
<feComposite in2="hardAlpha" operator="arithmetic" k2="-1" k3="1"/>
<feColorMatrix type="matrix" values="0 0 0 0 1 0 0 0 0 1 0 0 0 0 1 0 0 0 0.12 0"/>
<feBlend mode="normal" in2="shape" result="effect1_innerShadow_8516_36113"/>
<feColorMatrix in="SourceAlpha" type="matrix" values="0 0 0 0 0 0 0 0 0 0 0 0 0 0 0 0 0 0 127 0" result="hardAlpha"/>
<feOffset dx="-25" dy="-25"/>
<feGaussianBlur stdDeviation="25"/>
<feComposite in2="hardAlpha" operator="arithmetic" k2="-1" k3="1"/>
<feColorMatrix type="matrix" values="0 0 0 0 1 0 0 0 0 1 0 0 0 0 1 0 0 0 0.12 0"/>
<feBlend mode="normal" in2="effect1_innerShadow_8516_36113" result="effect2_innerShadow_8516_36113"/>
</filter>
<filter id="filter5_ii_8516_36113" x="49.3999" y="33" width="67" height="67" filterUnits="userSpaceOnUse" color-interpolation-filters="sRGB">
<feFlood flood-opacity="0" result="BackgroundImageFix"/>
<feBlend mode="normal" in="SourceGraphic" in2="BackgroundImageFix" result="shape"/>
<feColorMatrix in="SourceAlpha" type="matrix" values="0 0 0 0 0 0 0 0 0 0 0 0 0 0 0 0 0 0 127 0" result="hardAlpha"/>
<feOffset dx="12" dy="12"/>
<feGaussianBlur stdDeviation="6"/>
<feComposite in2="hardAlpha" operator="arithmetic" k2="-1" k3="1"/>
<feColorMatrix type="matrix" values="0 0 0 0 1 0 0 0 0 1 0 0 0 0 1 0 0 0 0.12 0"/>
<feBlend mode="normal" in2="shape" result="effect1_innerShadow_8516_36113"/>
<feColorMatrix in="SourceAlpha" type="matrix" values="0 0 0 0 0 0 0 0 0 0 0 0 0 0 0 0 0 0 127 0" result="hardAlpha"/>
<feOffset dx="-25" dy="-25"/>
<feGaussianBlur stdDeviation="25"/>
<feComposite in2="hardAlpha" operator="arithmetic" k2="-1" k3="1"/>
<feColorMatrix type="matrix" values="0 0 0 0 1 0 0 0 0 1 0 0 0 0 1 0 0 0 0.12 0"/>
<feBlend mode="normal" in2="effect1_innerShadow_8516_36113" result="effect2_innerShadow_8516_36113"/>
</filter>
<filter id="filter6_ii_8516_36113" x="-25" y="33" width="67" height="67" filterUnits="userSpaceOnUse" color-interpolation-filters="sRGB">
<feFlood flood-opacity="0" result="BackgroundImageFix"/>
<feBlend mode="normal" in="SourceGraphic" in2="BackgroundImageFix" result="shape"/>
<feColorMatrix in="SourceAlpha" type="matrix" values="0 0 0 0 0 0 0 0 0 0 0 0 0 0 0 0 0 0 127 0" result="hardAlpha"/>
<feOffset dx="12" dy="12"/>
<feGaussianBlur stdDeviation="6"/>
<feComposite in2="hardAlpha" operator="arithmetic" k2="-1" k3="1"/>
<feColorMatrix type="matrix" values="0 0 0 0 1 0 0 0 0 1 0 0 0 0 1 0 0 0 0.12 0"/>
<feBlend mode="normal" in2="shape" result="effect1_innerShadow_8516_36113"/>
<feColorMatrix in="SourceAlpha" type="matrix" values="0 0 0 0 0 0 0 0 0 0 0 0 0 0 0 0 0 0 127 0" result="hardAlpha"/>
<feOffset dx="-25" dy="-25"/>
<feGaussianBlur stdDeviation="25"/>
<feComposite in2="hardAlpha" operator="arithmetic" k2="-1" k3="1"/>
<feColorMatrix type="matrix" values="0 0 0 0 1 0 0 0 0 1 0 0 0 0 1 0 0 0 0.12 0"/>
<feBlend mode="normal" in2="effect1_innerShadow_8516_36113" result="effect2_innerShadow_8516_36113"/>
</filter>
<filter id="filter7_ii_8516_36113" x="86.6001" y="33" width="67" height="67" filterUnits="userSpaceOnUse" color-interpolation-filters="sRGB">
<feFlood flood-opacity="0" result="BackgroundImageFix"/>
<feBlend mode="normal" in="SourceGraphic" in2="BackgroundImageFix" result="shape"/>
<feColorMatrix in="SourceAlpha" type="matrix" values="0 0 0 0 0 0 0 0 0 0 0 0 0 0 0 0 0 0 127 0" result="hardAlpha"/>
<feOffset dx="12" dy="12"/>
<feGaussianBlur stdDeviation="6"/>
<feComposite in2="hardAlpha" operator="arithmetic" k2="-1" k3="1"/>
<feColorMatrix type="matrix" values="0 0 0 0 1 0 0 0 0 1 0 0 0 0 1 0 0 0 0.12 0"/>
<feBlend mode="normal" in2="shape" result="effect1_innerShadow_8516_36113"/>
<feColorMatrix in="SourceAlpha" type="matrix" values="0 0 0 0 0 0 0 0 0 0 0 0 0 0 0 0 0 0 127 0" result="hardAlpha"/>
<feOffset dx="-25" dy="-25"/>
<feGaussianBlur stdDeviation="25"/>
<feComposite in2="hardAlpha" operator="arithmetic" k2="-1" k3="1"/>
<feColorMatrix type="matrix" values="0 0 0 0 1 0 0 0 0 1 0 0 0 0 1 0 0 0 0.12 0"/>
<feBlend mode="normal" in2="effect1_innerShadow_8516_36113" result="effect2_innerShadow_8516_36113"/>
</filter>
<filter id="filter8_ii_8516_36113" x="12.2002" y="33" width="67" height="67" filterUnits="userSpaceOnUse" color-interpolation-filters="sRGB">
<feFlood flood-opacity="0" result="BackgroundImageFix"/>
<feBlend mode="normal" in="SourceGraphic" in2="BackgroundImageFix" result="shape"/>
<feColorMatrix in="SourceAlpha" type="matrix" values="0 0 0 0 0 0 0 0 0 0 0 0 0 0 0 0 0 0 127 0" result="hardAlpha"/>
<feOffset dx="12" dy="12"/>
<feGaussianBlur stdDeviation="6"/>
<feComposite in2="hardAlpha" operator="arithmetic" k2="-1" k3="1"/>
<feColorMatrix type="matrix" values="0 0 0 0 1 0 0 0 0 1 0 0 0 0 1 0 0 0 0.12 0"/>
<feBlend mode="normal" in2="shape" result="effect1_innerShadow_8516_36113"/>
<feColorMatrix in="SourceAlpha" type="matrix" values="0 0 0 0 0 0 0 0 0 0 0 0 0 0 0 0 0 0 127 0" result="hardAlpha"/>
<feOffset dx="-25" dy="-25"/>
<feGaussianBlur stdDeviation="25"/>
<feComposite in2="hardAlpha" operator="arithmetic" k2="-1" k3="1"/>
<feColorMatrix type="matrix" values="0 0 0 0 1 0 0 0 0 1 0 0 0 0 1 0 0 0 0.12 0"/>
<feBlend mode="normal" in2="effect1_innerShadow_8516_36113" result="effect2_innerShadow_8516_36113"/>
</filter>
<filter id="filter9_ii_8516_36113" x="123.8" y="33" width="67" height="67" filterUnits="userSpaceOnUse" color-interpolation-filters="sRGB">
<feFlood flood-opacity="0" result="BackgroundImageFix"/>
<feBlend mode="normal" in="SourceGraphic" in2="BackgroundImageFix" result="shape"/>
<feColorMatrix in="SourceAlpha" type="matrix" values="0 0 0 0 0 0 0 0 0 0 0 0 0 0 0 0 0 0 127 0" result="hardAlpha"/>
<feOffset dx="12" dy="12"/>
<feGaussianBlur stdDeviation="6"/>
<feComposite in2="hardAlpha" operator="arithmetic" k2="-1" k3="1"/>
<feColorMatrix type="matrix" values="0 0 0 0 1 0 0 0 0 1 0 0 0 0 1 0 0 0 0.12 0"/>
<feBlend mode="normal" in2="shape" result="effect1_innerShadow_8516_36113"/>
<feColorMatrix in="SourceAlpha" type="matrix" values="0 0 0 0 0 0 0 0 0 0 0 0 0 0 0 0 0 0 127 0" result="hardAlpha"/>
<feOffset dx="-25" dy="-25"/>
<feGaussianBlur stdDeviation="25"/>
<feComposite in2="hardAlpha" operator="arithmetic" k2="-1" k3="1"/>
<feColorMatrix type="matrix" values="0 0 0 0 1 0 0 0 0 1 0 0 0 0 1 0 0 0 0.12 0"/>
<feBlend mode="normal" in2="effect1_innerShadow_8516_36113" result="effect2_innerShadow_8516_36113"/>
</filter>
<linearGradient id="paint0_linear_8516_36113" x1="89.3999" y1="1.95" x2="82.6499" y2="34.65" gradientUnits="userSpaceOnUse">
<stop stop-color="#4000F4"/>
<stop offset="1" stop-color="#0D0000"/>
</linearGradient>
<linearGradient id="paint1_linear_8516_36113" x1="15" y1="1.95" x2="8.25" y2="34.65" gradientUnits="userSpaceOnUse">
<stop stop-color="#4000F4"/>
<stop offset="1" stop-color="#0D0000"/>
</linearGradient>
<linearGradient id="paint2_linear_8516_36113" x1="126.6" y1="1.95" x2="119.85" y2="34.65" gradientUnits="userSpaceOnUse">
<stop stop-color="#4000F4"/>
<stop offset="1" stop-color="#0D0000"/>
</linearGradient>
<linearGradient id="paint3_linear_8516_36113" x1="52.2002" y1="1.95" x2="45.4502" y2="34.65" gradientUnits="userSpaceOnUse">
<stop stop-color="#4000F4"/>
<stop offset="1" stop-color="#0D0000"/>
</linearGradient>
<linearGradient id="paint4_linear_8516_36113" x1="163.8" y1="1.95" x2="157.05" y2="34.65" gradientUnits="userSpaceOnUse">
<stop stop-color="#4000F4"/>
<stop offset="1" stop-color="#0D0000"/>
</linearGradient>
<linearGradient id="paint5_linear_8516_36113" x1="89.3999" y1="59.95" x2="82.6499" y2="92.65" gradientUnits="userSpaceOnUse">
<stop stop-color="#01AE53"/>
<stop offset="1" stop-color="#0D0000"/>
</linearGradient>
<linearGradient id="paint6_linear_8516_36113" x1="15" y1="59.95" x2="8.25" y2="92.65" gradientUnits="userSpaceOnUse">
<stop stop-color="#01AE53"/>
<stop offset="1" stop-color="#0D0000"/>
</linearGradient>
<linearGradient id="paint7_linear_8516_36113" x1="126.6" y1="59.95" x2="119.85" y2="92.65" gradientUnits="userSpaceOnUse">
<stop stop-color="#01AE53"/>
<stop offset="1" stop-color="#0D0000"/>
</linearGradient>
<linearGradient id="paint8_linear_8516_36113" x1="52.2002" y1="59.95" x2="45.4502" y2="92.65" gradientUnits="userSpaceOnUse">
<stop stop-color="#01AE53"/>
<stop offset="1" stop-color="#0D0000"/>
</linearGradient>
<linearGradient id="paint9_linear_8516_36113" x1="163.8" y1="59.95" x2="157.05" y2="92.65" gradientUnits="userSpaceOnUse">
<stop stop-color="#01AE53"/>
<stop offset="1" stop-color="#0D0000"/>
</linearGradient>
</defs>
</svg>
