<svg width="142" height="88" viewBox="0 0 142 88" fill="none" xmlns="http://www.w3.org/2000/svg">
<g filter="url(#filter0_ii_1515_5893)">
<circle cx="89.3999" cy="15" r="15" fill="url(#paint0_linear_1515_5893)"/>
<path d="M95.6333 6.10156L96.8791 5.4146L98.2868 7.03683L97.88 8.58548L95.6333 6.10156Z" fill="white" fill-opacity="0.5"/>
</g>
<path d="M84.97 18.6016V12.2016L85.67 12.9016H83.57V11.6016H86.59V18.6016H84.97ZM87.726 17.1316V16.0416L91.026 11.6016H92.726L89.496 16.0416L88.706 15.8116H94.216V17.1316H87.726ZM91.496 18.6016V17.1316L91.546 15.8116V14.5016H93.076V18.6016H91.496Z" fill="white"/>
<g filter="url(#filter1_ii_1515_5893)">
<circle cx="15" cy="15" r="15" fill="url(#paint1_linear_1515_5893)"/>
<path d="M21.2334 6.09375L22.4792 5.40679L23.8869 7.02902L23.4801 8.57766L21.2334 6.09375Z" fill="white" fill-opacity="0.5"/>
</g>
<path d="M11.2601 19.3231C10.7734 19.3231 10.2901 19.2598 9.8101 19.1331C9.3301 18.9998 8.92343 18.8131 8.5901 18.5731L9.2201 17.3331C9.48676 17.5265 9.79676 17.6798 10.1501 17.7931C10.5034 17.9065 10.8601 17.9631 11.2201 17.9631C11.6268 17.9631 11.9468 17.8831 12.1801 17.7231C12.4134 17.5631 12.5301 17.3431 12.5301 17.0631C12.5301 16.7965 12.4268 16.5865 12.2201 16.4331C12.0134 16.2798 11.6801 16.2031 11.2201 16.2031H10.4801V15.1331L12.4301 12.9231L12.6101 13.5031H8.9401V12.2031H13.8401V13.2531L11.9001 15.4631L11.0801 14.9931H11.5501C12.4101 14.9931 13.0601 15.1865 13.5001 15.5731C13.9401 15.9598 14.1601 16.4565 14.1601 17.0631C14.1601 17.4565 14.0568 17.8265 13.8501 18.1731C13.6434 18.5131 13.3268 18.7898 12.9001 19.0031C12.4734 19.2165 11.9268 19.3231 11.2601 19.3231ZM17.1292 19.3231C16.6426 19.3231 16.1592 19.2598 15.6792 19.1331C15.1992 18.9998 14.7926 18.8131 14.4592 18.5731L15.0892 17.3331C15.3559 17.5265 15.6659 17.6798 16.0192 17.7931C16.3726 17.9065 16.7292 17.9631 17.0892 17.9631C17.4959 17.9631 17.8159 17.8831 18.0492 17.7231C18.2826 17.5631 18.3992 17.3431 18.3992 17.0631C18.3992 16.7965 18.2959 16.5865 18.0892 16.4331C17.8826 16.2798 17.5492 16.2031 17.0892 16.2031H16.3492V15.1331L18.2992 12.9231L18.4792 13.5031H14.8092V12.2031H19.7092V13.2531L17.7692 15.4631L16.9492 14.9931H17.4192C18.2792 14.9931 18.9292 15.1865 19.3692 15.5731C19.8092 15.9598 20.0292 16.4565 20.0292 17.0631C20.0292 17.4565 19.9259 17.8265 19.7192 18.1731C19.5126 18.5131 19.1959 18.7898 18.7692 19.0031C18.3426 19.2165 17.7959 19.3231 17.1292 19.3231Z" fill="white"/>
<g filter="url(#filter2_ii_1515_5893)">
<circle cx="126.6" cy="15" r="15" fill="url(#paint2_linear_1515_5893)"/>
<path d="M132.833 6.09375L134.079 5.40679L135.487 7.02902L135.08 8.57766L132.833 6.09375Z" fill="white" fill-opacity="0.5"/>
</g>
<path d="M122.96 18.7216C122.474 18.7216 121.99 18.6582 121.51 18.5316C121.03 18.3982 120.624 18.2116 120.29 17.9716L120.92 16.7316C121.187 16.9249 121.497 17.0782 121.85 17.1916C122.204 17.3049 122.56 17.3616 122.92 17.3616C123.327 17.3616 123.647 17.2816 123.88 17.1216C124.114 16.9616 124.23 16.7416 124.23 16.4616C124.23 16.1949 124.127 15.9849 123.92 15.8316C123.714 15.6782 123.38 15.6016 122.92 15.6016H122.18V14.5316L124.13 12.3216L124.31 12.9016H120.64V11.6016H125.54V12.6516L123.6 14.8616L122.78 14.3916H123.25C124.11 14.3916 124.76 14.5849 125.2 14.9716C125.64 15.3582 125.86 15.8549 125.86 16.4616C125.86 16.8549 125.757 17.2249 125.55 17.5716C125.344 17.9116 125.027 18.1882 124.6 18.4016C124.174 18.6149 123.627 18.7216 122.96 18.7216ZM129.068 11.4816C129.715 11.4816 130.272 11.6149 130.738 11.8816C131.205 12.1482 131.565 12.5382 131.818 13.0516C132.072 13.5582 132.198 14.1916 132.198 14.9516C132.198 15.7582 132.045 16.4416 131.738 17.0016C131.438 17.5616 131.022 17.9882 130.488 18.2816C129.955 18.5749 129.335 18.7216 128.628 18.7216C128.262 18.7216 127.908 18.6816 127.568 18.6016C127.228 18.5216 126.935 18.4016 126.688 18.2416L127.288 17.0516C127.482 17.1849 127.688 17.2782 127.908 17.3316C128.128 17.3782 128.358 17.4016 128.598 17.4016C129.198 17.4016 129.675 17.2182 130.028 16.8516C130.388 16.4849 130.568 15.9416 130.568 15.2216C130.568 15.1016 130.565 14.9682 130.558 14.8216C130.552 14.6749 130.535 14.5282 130.508 14.3816L130.948 14.8016C130.835 15.0616 130.675 15.2816 130.468 15.4616C130.262 15.6349 130.022 15.7682 129.748 15.8616C129.475 15.9482 129.168 15.9916 128.828 15.9916C128.382 15.9916 127.975 15.9016 127.608 15.7216C127.248 15.5416 126.958 15.2882 126.738 14.9616C126.525 14.6349 126.418 14.2516 126.418 13.8116C126.418 13.3316 126.535 12.9182 126.768 12.5716C127.008 12.2249 127.328 11.9582 127.728 11.7716C128.135 11.5782 128.582 11.4816 129.068 11.4816ZM129.168 12.6916C128.935 12.6916 128.732 12.7349 128.558 12.8216C128.385 12.9016 128.248 13.0216 128.148 13.1816C128.048 13.3349 127.998 13.5182 127.998 13.7316C127.998 14.0516 128.105 14.3082 128.318 14.5016C128.538 14.6882 128.828 14.7816 129.188 14.7816C129.422 14.7816 129.628 14.7382 129.808 14.6516C129.995 14.5582 130.138 14.4316 130.238 14.2716C130.338 14.1116 130.388 13.9316 130.388 13.7316C130.388 13.5316 130.338 13.3549 130.238 13.2016C130.145 13.0416 130.008 12.9182 129.828 12.8316C129.648 12.7382 129.428 12.6916 129.168 12.6916Z" fill="white"/>
<g filter="url(#filter3_ii_1515_5893)">
<circle cx="52.2002" cy="15" r="15" fill="url(#paint3_linear_1515_5893)"/>
<path d="M58.4336 6.09375L59.6794 5.40679L61.0871 7.02902L60.6803 8.57766L58.4336 6.09375Z" fill="white" fill-opacity="0.5"/>
</g>
<path d="M46.6303 18.6016V17.5516L49.3303 15.0016C49.5436 14.8082 49.7003 14.6349 49.8003 14.4816C49.9003 14.3282 49.967 14.1882 50.0003 14.0616C50.0403 13.9349 50.0603 13.8182 50.0603 13.7116C50.0603 13.4316 49.9636 13.2182 49.7703 13.0716C49.5836 12.9182 49.307 12.8416 48.9403 12.8416C48.647 12.8416 48.3736 12.8982 48.1203 13.0116C47.8736 13.1249 47.6636 13.3016 47.4903 13.5416L46.3103 12.7816C46.577 12.3816 46.9503 12.0649 47.4303 11.8316C47.9103 11.5982 48.4636 11.4816 49.0903 11.4816C49.6103 11.4816 50.0636 11.5682 50.4503 11.7416C50.8436 11.9082 51.147 12.1449 51.3603 12.4516C51.5803 12.7582 51.6903 13.1249 51.6903 13.5516C51.6903 13.7782 51.6603 14.0049 51.6003 14.2316C51.547 14.4516 51.4336 14.6849 51.2603 14.9316C51.0936 15.1782 50.847 15.4549 50.5203 15.7616L48.2803 17.8716L47.9703 17.2816H51.9203V18.6016H46.6303ZM52.4013 17.1316V16.0416L55.7013 11.6016H57.4013L54.1713 16.0416L53.3813 15.8116H58.8913V17.1316H52.4013ZM56.1713 18.6016V17.1316L56.2213 15.8116V14.5016H57.7513V18.6016H56.1713Z" fill="white"/>
<g filter="url(#filter4_ii_1515_5893)">
<circle cx="89.3999" cy="73" r="15" fill="url(#paint4_linear_1515_5893)"/>
<path d="M95.6333 64.1016L96.8791 63.4146L98.2868 65.0368L97.88 66.5855L95.6333 64.1016Z" fill="white" fill-opacity="0.5"/>
</g>
<path d="M84.97 76.6016V70.2016L85.67 70.9016H83.57V69.6016H86.59V76.6016H84.97ZM87.726 75.1316V74.0416L91.026 69.6016H92.726L89.496 74.0416L88.706 73.8116H94.216V75.1316H87.726ZM91.496 76.6016V75.1316L91.546 73.8116V72.5016H93.076V76.6016H91.496Z" fill="white"/>
<g filter="url(#filter5_ii_1515_5893)">
<circle cx="15" cy="73" r="15" fill="url(#paint5_linear_1515_5893)"/>
<path d="M21.2334 64.0938L22.4792 63.4068L23.8869 65.029L23.4801 66.5777L21.2334 64.0938Z" fill="white" fill-opacity="0.5"/>
</g>
<path d="M11.2601 77.3231C10.7734 77.3231 10.2901 77.2598 9.8101 77.1331C9.3301 76.9998 8.92343 76.8131 8.5901 76.5731L9.2201 75.3331C9.48676 75.5265 9.79676 75.6798 10.1501 75.7931C10.5034 75.9065 10.8601 75.9631 11.2201 75.9631C11.6268 75.9631 11.9468 75.8831 12.1801 75.7231C12.4134 75.5631 12.5301 75.3431 12.5301 75.0631C12.5301 74.7965 12.4268 74.5865 12.2201 74.4331C12.0134 74.2798 11.6801 74.2031 11.2201 74.2031H10.4801V73.1331L12.4301 70.9231L12.6101 71.5031H8.9401V70.2031H13.8401V71.2531L11.9001 73.4631L11.0801 72.9931H11.5501C12.4101 72.9931 13.0601 73.1865 13.5001 73.5731C13.9401 73.9598 14.1601 74.4565 14.1601 75.0631C14.1601 75.4565 14.0568 75.8265 13.8501 76.1731C13.6434 76.5131 13.3268 76.7898 12.9001 77.0031C12.4734 77.2165 11.9268 77.3231 11.2601 77.3231ZM17.1292 77.3231C16.6426 77.3231 16.1592 77.2598 15.6792 77.1331C15.1992 76.9998 14.7926 76.8131 14.4592 76.5731L15.0892 75.3331C15.3559 75.5265 15.6659 75.6798 16.0192 75.7931C16.3726 75.9065 16.7292 75.9631 17.0892 75.9631C17.4959 75.9631 17.8159 75.8831 18.0492 75.7231C18.2826 75.5631 18.3992 75.3431 18.3992 75.0631C18.3992 74.7965 18.2959 74.5865 18.0892 74.4331C17.8826 74.2798 17.5492 74.2031 17.0892 74.2031H16.3492V73.1331L18.2992 70.9231L18.4792 71.5031H14.8092V70.2031H19.7092V71.2531L17.7692 73.4631L16.9492 72.9931H17.4192C18.2792 72.9931 18.9292 73.1865 19.3692 73.5731C19.8092 73.9598 20.0292 74.4565 20.0292 75.0631C20.0292 75.4565 19.9259 75.8265 19.7192 76.1731C19.5126 76.5131 19.1959 76.7898 18.7692 77.0031C18.3426 77.2165 17.7959 77.3231 17.1292 77.3231Z" fill="white"/>
<g filter="url(#filter6_ii_1515_5893)">
<circle cx="126.6" cy="73" r="15" fill="url(#paint6_linear_1515_5893)"/>
<path d="M132.833 64.0938L134.079 63.4068L135.487 65.029L135.08 66.5777L132.833 64.0938Z" fill="white" fill-opacity="0.5"/>
</g>
<path d="M122.96 76.7216C122.474 76.7216 121.99 76.6582 121.51 76.5316C121.03 76.3982 120.624 76.2116 120.29 75.9716L120.92 74.7316C121.187 74.9249 121.497 75.0782 121.85 75.1916C122.204 75.3049 122.56 75.3616 122.92 75.3616C123.327 75.3616 123.647 75.2816 123.88 75.1216C124.114 74.9616 124.23 74.7416 124.23 74.4616C124.23 74.1949 124.127 73.9849 123.92 73.8316C123.714 73.6782 123.38 73.6016 122.92 73.6016H122.18V72.5316L124.13 70.3216L124.31 70.9016H120.64V69.6016H125.54V70.6516L123.6 72.8616L122.78 72.3916H123.25C124.11 72.3916 124.76 72.5849 125.2 72.9716C125.64 73.3582 125.86 73.8549 125.86 74.4616C125.86 74.8549 125.757 75.2249 125.55 75.5716C125.344 75.9116 125.027 76.1882 124.6 76.4016C124.174 76.6149 123.627 76.7216 122.96 76.7216ZM129.068 69.4816C129.715 69.4816 130.272 69.6149 130.738 69.8816C131.205 70.1482 131.565 70.5382 131.818 71.0516C132.072 71.5582 132.198 72.1916 132.198 72.9516C132.198 73.7582 132.045 74.4416 131.738 75.0016C131.438 75.5616 131.022 75.9882 130.488 76.2816C129.955 76.5749 129.335 76.7216 128.628 76.7216C128.262 76.7216 127.908 76.6816 127.568 76.6016C127.228 76.5216 126.935 76.4016 126.688 76.2416L127.288 75.0516C127.482 75.1849 127.688 75.2782 127.908 75.3316C128.128 75.3782 128.358 75.4016 128.598 75.4016C129.198 75.4016 129.675 75.2182 130.028 74.8516C130.388 74.4849 130.568 73.9416 130.568 73.2216C130.568 73.1016 130.565 72.9682 130.558 72.8216C130.552 72.6749 130.535 72.5282 130.508 72.3816L130.948 72.8016C130.835 73.0616 130.675 73.2816 130.468 73.4616C130.262 73.6349 130.022 73.7682 129.748 73.8616C129.475 73.9482 129.168 73.9916 128.828 73.9916C128.382 73.9916 127.975 73.9016 127.608 73.7216C127.248 73.5416 126.958 73.2882 126.738 72.9616C126.525 72.6349 126.418 72.2516 126.418 71.8116C126.418 71.3316 126.535 70.9182 126.768 70.5716C127.008 70.2249 127.328 69.9582 127.728 69.7716C128.135 69.5782 128.582 69.4816 129.068 69.4816ZM129.168 70.6916C128.935 70.6916 128.732 70.7349 128.558 70.8216C128.385 70.9016 128.248 71.0216 128.148 71.1816C128.048 71.3349 127.998 71.5182 127.998 71.7316C127.998 72.0516 128.105 72.3082 128.318 72.5016C128.538 72.6882 128.828 72.7816 129.188 72.7816C129.422 72.7816 129.628 72.7382 129.808 72.6516C129.995 72.5582 130.138 72.4316 130.238 72.2716C130.338 72.1116 130.388 71.9316 130.388 71.7316C130.388 71.5316 130.338 71.3549 130.238 71.2016C130.145 71.0416 130.008 70.9182 129.828 70.8316C129.648 70.7382 129.428 70.6916 129.168 70.6916Z" fill="white"/>
<g filter="url(#filter7_ii_1515_5893)">
<circle cx="52.2002" cy="73" r="15" fill="url(#paint7_linear_1515_5893)"/>
<path d="M58.4336 64.0938L59.6794 63.4068L61.0871 65.029L60.6803 66.5777L58.4336 64.0938Z" fill="white" fill-opacity="0.5"/>
</g>
<path d="M46.6303 76.6016V75.5516L49.3303 73.0016C49.5436 72.8082 49.7003 72.6349 49.8003 72.4816C49.9003 72.3282 49.967 72.1882 50.0003 72.0616C50.0403 71.9349 50.0603 71.8182 50.0603 71.7116C50.0603 71.4316 49.9636 71.2182 49.7703 71.0716C49.5836 70.9182 49.307 70.8416 48.9403 70.8416C48.647 70.8416 48.3736 70.8982 48.1203 71.0116C47.8736 71.1249 47.6636 71.3016 47.4903 71.5416L46.3103 70.7816C46.577 70.3816 46.9503 70.0649 47.4303 69.8316C47.9103 69.5982 48.4636 69.4816 49.0903 69.4816C49.6103 69.4816 50.0636 69.5682 50.4503 69.7416C50.8436 69.9082 51.147 70.1449 51.3603 70.4516C51.5803 70.7582 51.6903 71.1249 51.6903 71.5516C51.6903 71.7782 51.6603 72.0049 51.6003 72.2316C51.547 72.4516 51.4336 72.6849 51.2603 72.9316C51.0936 73.1782 50.847 73.4549 50.5203 73.7616L48.2803 75.8716L47.9703 75.2816H51.9203V76.6016H46.6303ZM52.4013 75.1316V74.0416L55.7013 69.6016H57.4013L54.1713 74.0416L53.3813 73.8116H58.8913V75.1316H52.4013ZM56.1713 76.6016V75.1316L56.2213 73.8116V72.5016H57.7513V76.6016H56.1713Z" fill="white"/>
<path d="M7.58667 42.5808C7.1392 42.2568 6.51382 42.3569 6.19017 42.8044C5.86616 43.2515 5.96626 43.8769 6.41373 44.2005C7.97238 45.3292 9.24746 47.0894 10.2934 49.4108C10.645 50.1913 11.7513 50.198 12.1119 49.4212C14.1505 45.034 17.1066 40.7934 20.6501 37.7597C21.0697 37.4005 21.1189 36.7692 20.7597 36.3496C20.4004 35.9301 19.7691 35.8812 19.3496 36.2405C16.0607 39.0561 13.2771 42.7998 11.1932 46.7681C10.1902 45.0159 9.00367 43.6065 7.58654 42.5804L7.58667 42.5808Z" fill="#01AE53"/>
<path d="M80.5867 42.5808C80.1392 42.2568 79.5138 42.3569 79.1902 42.8044C78.8662 43.2515 78.9663 43.8769 79.4137 44.2005C80.9724 45.3292 82.2475 47.0894 83.2934 49.4108C83.645 50.1913 84.7513 50.198 85.1119 49.4212C87.1505 45.034 90.1066 40.7934 93.6501 37.7597C94.0697 37.4005 94.1189 36.7692 93.7597 36.3496C93.4004 35.9301 92.7691 35.8812 92.3496 36.2405C89.0607 39.0561 86.2771 42.7998 84.1932 46.7681C83.1902 45.0159 82.0037 43.6065 80.5865 42.5804L80.5867 42.5808Z" fill="#01AE53"/>
<path d="M53.4348 44.5L58.5991 39.3357C59.1336 38.8012 59.1336 37.9352 58.5991 37.4009C58.0646 36.8664 57.1986 36.8664 56.6643 37.4009L51.5 42.5649L46.3357 37.4009C45.8012 36.8664 44.9352 36.8664 44.4009 37.4009C43.8664 37.9354 43.8664 38.8014 44.4009 39.3357L49.5649 44.5L44.4009 49.664C43.8664 50.1985 43.8664 51.0646 44.4009 51.5989C44.9354 52.1334 45.8014 52.1334 46.3357 51.5989L51.5 46.4346L56.6643 51.5989C57.1988 52.1334 58.0648 52.1334 58.5991 51.5989C59.1336 51.0644 59.1336 50.1983 58.5991 49.664L53.4348 44.5Z" fill="#FF000F"/>
<path d="M127.435 44.5L132.599 39.3357C133.134 38.8012 133.134 37.9352 132.599 37.4009C132.065 36.8664 131.199 36.8664 130.664 37.4009L125.5 42.5649L120.336 37.4009C119.801 36.8664 118.935 36.8664 118.401 37.4009C117.866 37.9354 117.866 38.8014 118.401 39.3357L123.565 44.5L118.401 49.664C117.866 50.1985 117.866 51.0646 118.401 51.5989C118.935 52.1334 119.801 52.1334 120.336 51.5989L125.5 46.4346L130.664 51.5989C131.199 52.1334 132.065 52.1334 132.599 51.5989C133.134 51.0644 133.134 50.1983 132.599 49.664L127.435 44.5Z" fill="#FF000F"/>
<defs>
<filter id="filter0_ii_1515_5893" x="49.3999" y="-25" width="67" height="67" filterUnits="userSpaceOnUse" color-interpolation-filters="sRGB">
<feFlood flood-opacity="0" result="BackgroundImageFix"/>
<feBlend mode="normal" in="SourceGraphic" in2="BackgroundImageFix" result="shape"/>
<feColorMatrix in="SourceAlpha" type="matrix" values="0 0 0 0 0 0 0 0 0 0 0 0 0 0 0 0 0 0 127 0" result="hardAlpha"/>
<feOffset dx="12" dy="12"/>
<feGaussianBlur stdDeviation="6"/>
<feComposite in2="hardAlpha" operator="arithmetic" k2="-1" k3="1"/>
<feColorMatrix type="matrix" values="0 0 0 0 1 0 0 0 0 1 0 0 0 0 1 0 0 0 0.12 0"/>
<feBlend mode="normal" in2="shape" result="effect1_innerShadow_1515_5893"/>
<feColorMatrix in="SourceAlpha" type="matrix" values="0 0 0 0 0 0 0 0 0 0 0 0 0 0 0 0 0 0 127 0" result="hardAlpha"/>
<feOffset dx="-25" dy="-25"/>
<feGaussianBlur stdDeviation="25"/>
<feComposite in2="hardAlpha" operator="arithmetic" k2="-1" k3="1"/>
<feColorMatrix type="matrix" values="0 0 0 0 1 0 0 0 0 1 0 0 0 0 1 0 0 0 0.12 0"/>
<feBlend mode="normal" in2="effect1_innerShadow_1515_5893" result="effect2_innerShadow_1515_5893"/>
</filter>
<filter id="filter1_ii_1515_5893" x="-25" y="-25" width="67" height="67" filterUnits="userSpaceOnUse" color-interpolation-filters="sRGB">
<feFlood flood-opacity="0" result="BackgroundImageFix"/>
<feBlend mode="normal" in="SourceGraphic" in2="BackgroundImageFix" result="shape"/>
<feColorMatrix in="SourceAlpha" type="matrix" values="0 0 0 0 0 0 0 0 0 0 0 0 0 0 0 0 0 0 127 0" result="hardAlpha"/>
<feOffset dx="12" dy="12"/>
<feGaussianBlur stdDeviation="6"/>
<feComposite in2="hardAlpha" operator="arithmetic" k2="-1" k3="1"/>
<feColorMatrix type="matrix" values="0 0 0 0 1 0 0 0 0 1 0 0 0 0 1 0 0 0 0.12 0"/>
<feBlend mode="normal" in2="shape" result="effect1_innerShadow_1515_5893"/>
<feColorMatrix in="SourceAlpha" type="matrix" values="0 0 0 0 0 0 0 0 0 0 0 0 0 0 0 0 0 0 127 0" result="hardAlpha"/>
<feOffset dx="-25" dy="-25"/>
<feGaussianBlur stdDeviation="25"/>
<feComposite in2="hardAlpha" operator="arithmetic" k2="-1" k3="1"/>
<feColorMatrix type="matrix" values="0 0 0 0 1 0 0 0 0 1 0 0 0 0 1 0 0 0 0.12 0"/>
<feBlend mode="normal" in2="effect1_innerShadow_1515_5893" result="effect2_innerShadow_1515_5893"/>
</filter>
<filter id="filter2_ii_1515_5893" x="86.6001" y="-25" width="67" height="67" filterUnits="userSpaceOnUse" color-interpolation-filters="sRGB">
<feFlood flood-opacity="0" result="BackgroundImageFix"/>
<feBlend mode="normal" in="SourceGraphic" in2="BackgroundImageFix" result="shape"/>
<feColorMatrix in="SourceAlpha" type="matrix" values="0 0 0 0 0 0 0 0 0 0 0 0 0 0 0 0 0 0 127 0" result="hardAlpha"/>
<feOffset dx="12" dy="12"/>
<feGaussianBlur stdDeviation="6"/>
<feComposite in2="hardAlpha" operator="arithmetic" k2="-1" k3="1"/>
<feColorMatrix type="matrix" values="0 0 0 0 1 0 0 0 0 1 0 0 0 0 1 0 0 0 0.12 0"/>
<feBlend mode="normal" in2="shape" result="effect1_innerShadow_1515_5893"/>
<feColorMatrix in="SourceAlpha" type="matrix" values="0 0 0 0 0 0 0 0 0 0 0 0 0 0 0 0 0 0 127 0" result="hardAlpha"/>
<feOffset dx="-25" dy="-25"/>
<feGaussianBlur stdDeviation="25"/>
<feComposite in2="hardAlpha" operator="arithmetic" k2="-1" k3="1"/>
<feColorMatrix type="matrix" values="0 0 0 0 1 0 0 0 0 1 0 0 0 0 1 0 0 0 0.12 0"/>
<feBlend mode="normal" in2="effect1_innerShadow_1515_5893" result="effect2_innerShadow_1515_5893"/>
</filter>
<filter id="filter3_ii_1515_5893" x="12.2002" y="-25" width="67" height="67" filterUnits="userSpaceOnUse" color-interpolation-filters="sRGB">
<feFlood flood-opacity="0" result="BackgroundImageFix"/>
<feBlend mode="normal" in="SourceGraphic" in2="BackgroundImageFix" result="shape"/>
<feColorMatrix in="SourceAlpha" type="matrix" values="0 0 0 0 0 0 0 0 0 0 0 0 0 0 0 0 0 0 127 0" result="hardAlpha"/>
<feOffset dx="12" dy="12"/>
<feGaussianBlur stdDeviation="6"/>
<feComposite in2="hardAlpha" operator="arithmetic" k2="-1" k3="1"/>
<feColorMatrix type="matrix" values="0 0 0 0 1 0 0 0 0 1 0 0 0 0 1 0 0 0 0.12 0"/>
<feBlend mode="normal" in2="shape" result="effect1_innerShadow_1515_5893"/>
<feColorMatrix in="SourceAlpha" type="matrix" values="0 0 0 0 0 0 0 0 0 0 0 0 0 0 0 0 0 0 127 0" result="hardAlpha"/>
<feOffset dx="-25" dy="-25"/>
<feGaussianBlur stdDeviation="25"/>
<feComposite in2="hardAlpha" operator="arithmetic" k2="-1" k3="1"/>
<feColorMatrix type="matrix" values="0 0 0 0 1 0 0 0 0 1 0 0 0 0 1 0 0 0 0.12 0"/>
<feBlend mode="normal" in2="effect1_innerShadow_1515_5893" result="effect2_innerShadow_1515_5893"/>
</filter>
<filter id="filter4_ii_1515_5893" x="49.3999" y="33" width="67" height="67" filterUnits="userSpaceOnUse" color-interpolation-filters="sRGB">
<feFlood flood-opacity="0" result="BackgroundImageFix"/>
<feBlend mode="normal" in="SourceGraphic" in2="BackgroundImageFix" result="shape"/>
<feColorMatrix in="SourceAlpha" type="matrix" values="0 0 0 0 0 0 0 0 0 0 0 0 0 0 0 0 0 0 127 0" result="hardAlpha"/>
<feOffset dx="12" dy="12"/>
<feGaussianBlur stdDeviation="6"/>
<feComposite in2="hardAlpha" operator="arithmetic" k2="-1" k3="1"/>
<feColorMatrix type="matrix" values="0 0 0 0 1 0 0 0 0 1 0 0 0 0 1 0 0 0 0.12 0"/>
<feBlend mode="normal" in2="shape" result="effect1_innerShadow_1515_5893"/>
<feColorMatrix in="SourceAlpha" type="matrix" values="0 0 0 0 0 0 0 0 0 0 0 0 0 0 0 0 0 0 127 0" result="hardAlpha"/>
<feOffset dx="-25" dy="-25"/>
<feGaussianBlur stdDeviation="25"/>
<feComposite in2="hardAlpha" operator="arithmetic" k2="-1" k3="1"/>
<feColorMatrix type="matrix" values="0 0 0 0 1 0 0 0 0 1 0 0 0 0 1 0 0 0 0.12 0"/>
<feBlend mode="normal" in2="effect1_innerShadow_1515_5893" result="effect2_innerShadow_1515_5893"/>
</filter>
<filter id="filter5_ii_1515_5893" x="-25" y="33" width="67" height="67" filterUnits="userSpaceOnUse" color-interpolation-filters="sRGB">
<feFlood flood-opacity="0" result="BackgroundImageFix"/>
<feBlend mode="normal" in="SourceGraphic" in2="BackgroundImageFix" result="shape"/>
<feColorMatrix in="SourceAlpha" type="matrix" values="0 0 0 0 0 0 0 0 0 0 0 0 0 0 0 0 0 0 127 0" result="hardAlpha"/>
<feOffset dx="12" dy="12"/>
<feGaussianBlur stdDeviation="6"/>
<feComposite in2="hardAlpha" operator="arithmetic" k2="-1" k3="1"/>
<feColorMatrix type="matrix" values="0 0 0 0 1 0 0 0 0 1 0 0 0 0 1 0 0 0 0.12 0"/>
<feBlend mode="normal" in2="shape" result="effect1_innerShadow_1515_5893"/>
<feColorMatrix in="SourceAlpha" type="matrix" values="0 0 0 0 0 0 0 0 0 0 0 0 0 0 0 0 0 0 127 0" result="hardAlpha"/>
<feOffset dx="-25" dy="-25"/>
<feGaussianBlur stdDeviation="25"/>
<feComposite in2="hardAlpha" operator="arithmetic" k2="-1" k3="1"/>
<feColorMatrix type="matrix" values="0 0 0 0 1 0 0 0 0 1 0 0 0 0 1 0 0 0 0.12 0"/>
<feBlend mode="normal" in2="effect1_innerShadow_1515_5893" result="effect2_innerShadow_1515_5893"/>
</filter>
<filter id="filter6_ii_1515_5893" x="86.6001" y="33" width="67" height="67" filterUnits="userSpaceOnUse" color-interpolation-filters="sRGB">
<feFlood flood-opacity="0" result="BackgroundImageFix"/>
<feBlend mode="normal" in="SourceGraphic" in2="BackgroundImageFix" result="shape"/>
<feColorMatrix in="SourceAlpha" type="matrix" values="0 0 0 0 0 0 0 0 0 0 0 0 0 0 0 0 0 0 127 0" result="hardAlpha"/>
<feOffset dx="12" dy="12"/>
<feGaussianBlur stdDeviation="6"/>
<feComposite in2="hardAlpha" operator="arithmetic" k2="-1" k3="1"/>
<feColorMatrix type="matrix" values="0 0 0 0 1 0 0 0 0 1 0 0 0 0 1 0 0 0 0.12 0"/>
<feBlend mode="normal" in2="shape" result="effect1_innerShadow_1515_5893"/>
<feColorMatrix in="SourceAlpha" type="matrix" values="0 0 0 0 0 0 0 0 0 0 0 0 0 0 0 0 0 0 127 0" result="hardAlpha"/>
<feOffset dx="-25" dy="-25"/>
<feGaussianBlur stdDeviation="25"/>
<feComposite in2="hardAlpha" operator="arithmetic" k2="-1" k3="1"/>
<feColorMatrix type="matrix" values="0 0 0 0 1 0 0 0 0 1 0 0 0 0 1 0 0 0 0.12 0"/>
<feBlend mode="normal" in2="effect1_innerShadow_1515_5893" result="effect2_innerShadow_1515_5893"/>
</filter>
<filter id="filter7_ii_1515_5893" x="12.2002" y="33" width="67" height="67" filterUnits="userSpaceOnUse" color-interpolation-filters="sRGB">
<feFlood flood-opacity="0" result="BackgroundImageFix"/>
<feBlend mode="normal" in="SourceGraphic" in2="BackgroundImageFix" result="shape"/>
<feColorMatrix in="SourceAlpha" type="matrix" values="0 0 0 0 0 0 0 0 0 0 0 0 0 0 0 0 0 0 127 0" result="hardAlpha"/>
<feOffset dx="12" dy="12"/>
<feGaussianBlur stdDeviation="6"/>
<feComposite in2="hardAlpha" operator="arithmetic" k2="-1" k3="1"/>
<feColorMatrix type="matrix" values="0 0 0 0 1 0 0 0 0 1 0 0 0 0 1 0 0 0 0.12 0"/>
<feBlend mode="normal" in2="shape" result="effect1_innerShadow_1515_5893"/>
<feColorMatrix in="SourceAlpha" type="matrix" values="0 0 0 0 0 0 0 0 0 0 0 0 0 0 0 0 0 0 127 0" result="hardAlpha"/>
<feOffset dx="-25" dy="-25"/>
<feGaussianBlur stdDeviation="25"/>
<feComposite in2="hardAlpha" operator="arithmetic" k2="-1" k3="1"/>
<feColorMatrix type="matrix" values="0 0 0 0 1 0 0 0 0 1 0 0 0 0 1 0 0 0 0.12 0"/>
<feBlend mode="normal" in2="effect1_innerShadow_1515_5893" result="effect2_innerShadow_1515_5893"/>
</filter>
<linearGradient id="paint0_linear_1515_5893" x1="89.3999" y1="1.95" x2="82.6499" y2="34.65" gradientUnits="userSpaceOnUse">
<stop stop-color="#4000F4"/>
<stop offset="1" stop-color="#0D0000"/>
</linearGradient>
<linearGradient id="paint1_linear_1515_5893" x1="15" y1="1.95" x2="8.25" y2="34.65" gradientUnits="userSpaceOnUse">
<stop stop-color="#4000F4"/>
<stop offset="1" stop-color="#0D0000"/>
</linearGradient>
<linearGradient id="paint2_linear_1515_5893" x1="126.6" y1="1.95" x2="119.85" y2="34.65" gradientUnits="userSpaceOnUse">
<stop stop-color="#4000F4"/>
<stop offset="1" stop-color="#0D0000"/>
</linearGradient>
<linearGradient id="paint3_linear_1515_5893" x1="52.2002" y1="1.95" x2="45.4502" y2="34.65" gradientUnits="userSpaceOnUse">
<stop stop-color="#4000F4"/>
<stop offset="1" stop-color="#0D0000"/>
</linearGradient>
<linearGradient id="paint4_linear_1515_5893" x1="89.3999" y1="59.95" x2="82.6499" y2="92.65" gradientUnits="userSpaceOnUse">
<stop stop-color="#01AE53"/>
<stop offset="1" stop-color="#0D0000"/>
</linearGradient>
<linearGradient id="paint5_linear_1515_5893" x1="15" y1="59.95" x2="8.25" y2="92.65" gradientUnits="userSpaceOnUse">
<stop stop-color="#01AE53"/>
<stop offset="1" stop-color="#0D0000"/>
</linearGradient>
<linearGradient id="paint6_linear_1515_5893" x1="126.6" y1="59.95" x2="119.85" y2="92.65" gradientUnits="userSpaceOnUse">
<stop stop-color="#01AE53"/>
<stop offset="1" stop-color="#0D0000"/>
</linearGradient>
<linearGradient id="paint7_linear_1515_5893" x1="52.2002" y1="59.95" x2="45.4502" y2="92.65" gradientUnits="userSpaceOnUse">
<stop stop-color="#01AE53"/>
<stop offset="1" stop-color="#0D0000"/>
</linearGradient>
</defs>
</svg>
